<svg width="441" height="375" viewBox="0 0 441 375" fill="none" xmlns="http://www.w3.org/2000/svg">
<path d="M222 373L228 259L260 265.5L245.5 373H222Z" fill="#98B5AC"/>
<rect x="146" y="93" width="157" height="128" rx="31" fill="#39383C"/>
<g filter="url(#filter0_f_18_80)">
<path d="M148 184C147.919 133.295 150.334 108.283 160.827 100.301C161.567 99.7384 162.516 99.5036 163.446 99.5101C222.417 99.9223 242.017 99.9954 286.848 100.482C287.91 100.494 288.971 100.83 289.773 101.526C303.377 113.33 299.986 139.105 300.5 178.5" stroke="#FFFEFE" stroke-width="0.5"/>
</g>
<g filter="url(#filter1_i_18_80)">
<path d="M250.052 21.1557C238.648 32.1174 223.499 31.0678 194.559 27.6199C192.225 43.2538 189.636 50.7364 181.542 60.5283C158.249 52.8888 163.729 81.6837 186.338 79.3331C193.902 90.1072 199.138 92.7525 209.631 93.4367V108.716C218.996 115.206 224.243 114.07 233.61 108.716V93.4367C245.513 93.123 250.371 88.7896 258.273 79.3331C282.252 77.5701 282.937 57.59 263.754 57.59C265.922 33.4118 261.087 27.8625 250.052 21.1557Z" fill="#EDC4A6"/>
</g>
<path d="M196.819 29.9074C195.617 47.6549 192.158 54.369 181.399 61.0838L176.259 58.8569C173.797 40.4766 174.328 33.8857 177.544 26.5671C179.266 23.9442 180.929 23.2777 185.254 23.7835C196.819 5.41165 230.23 3.18476 257.858 16.5461C267.902 26.3237 269.956 35.9966 268.78 58.8569C265.502 58.0826 263.808 58.0349 261.07 58.8569C264.106 42.0691 259.916 35.2401 250.79 23.7835C232.913 35.2265 220.539 34.9875 196.819 29.9074Z" fill="#6E5E5A"/>
<path d="M233.104 108.449C223.994 114.515 218.905 114.281 209.802 108.449H188.889C169.307 114.039 161.839 148.312 146.466 191.234C145.009 200.235 146.798 202.87 154.234 203.575H291.66C303.936 205.207 305.987 202.18 306 193.805C288.301 144.974 270.337 112.814 254.615 108.449H233.104Z" fill="#ECE8E3"/>
<g filter="url(#filter2_f_18_80)">
<path d="M210 108C219.909 114.857 224.881 114.473 233 108" stroke="black" stroke-width="0.2"/>
</g>
<g filter="url(#filter3_f_18_80)">
<path d="M286.5 149.5L304.5 193C305.175 195.747 305.143 196.937 304.5 198.5H285" stroke="#FFFBFB"/>
</g>
<rect x="165" y="114" width="121" height="76.3768" rx="4" fill="white"/>
<rect x="165" y="190.377" width="121" height="8.62319" rx="4.31159" fill="#9DA29F"/>
<rect x="3" y="199" width="435" height="11" rx="4" fill="#452323"/>
<rect x="146" y="236" width="157" height="25" rx="4" fill="#39383C"/>
<path d="M36 210H406V231C406 235.418 402.418 239 398 239H44C39.5817 239 36 235.418 36 231V210Z" fill="#745C5C"/>
<path d="M301.5 273L301.998 271.472C302.515 271.57 303 271.5 303 271.5L301.5 273Z" fill="#4B4641"/>
<path d="M170.788 260L180.75 260.876L162.969 440.159L157.324 439.662L170.788 260Z" fill="#848A83"/>
<path d="M51.7881 238L61.7496 238.876L43.969 418.159L38.3242 417.662L51.7881 238Z" fill="#745C5C"/>
<path d="M370.046 239.27L379.983 238.147L398.225 417.383L392.595 418.019L370.046 239.27Z" fill="#745C5C"/>
<path d="M265.205 256.813L275.152 255.787L291.641 435.193L286.005 435.775L265.205 256.813Z" fill="#848A83"/>
<rect x="110.5" y="177.5" width="14" height="16" rx="5.5" stroke="#989998" stroke-width="3"/>
<path d="M87.9396 199.064C87.9736 199.591 88.4103 200 88.9376 200H111.607C112.115 200 112.543 199.618 112.6 199.112L115.874 170.112C115.941 169.519 115.477 169 114.881 169H87.0666C86.489 169 86.0315 169.488 86.0687 170.064L87.9396 199.064Z" fill="#989998"/>
<rect x="36" y="18" width="56" height="33" rx="10" fill="#5D3DE8"/>
<rect x="8" y="81" width="65" height="33" rx="10" fill="#9949FF"/>
<rect x="301" y="1" width="65" height="33" rx="10" fill="#9949FF"/>
<path d="M19.8807 104V92.3636H22.6932V97.0341H27.2784V92.3636H30.0852V104H27.2784V99.3239H22.6932V104H19.8807ZM31.4688 94.6477V92.3636H41.304V94.6477H37.7756V104H35.0028V94.6477H31.4688ZM42.6776 92.3636H46.1605L49.1151 99.5682H49.2514L52.206 92.3636H55.6889V104H52.9503V96.8523H52.8537L50.0582 103.926H48.3082L45.5128 96.8125H45.4162V104H42.6776V92.3636ZM57.4432 104V92.3636H60.2557V101.716H65.0966V104H57.4432Z" fill="white"/>
<path d="M44.2461 37.2915V34.1665L56.7461 28.6623V32.2578L48.1879 35.6935L48.3033 35.5071V35.951L48.1879 35.7646L56.7461 39.2003V42.7958L44.2461 37.2915ZM68.4205 23.9659L62.5611 45.7344H59.3029L65.1623 23.9659H68.4205ZM83.4795 37.2915L70.9795 42.7958V39.2003L79.5377 35.7646L79.4223 35.951V35.5071L79.5377 35.6935L70.9795 32.2578V28.6623L83.4795 34.1665V37.2915Z" fill="white"/>
<rect x="357" y="122" width="54" height="34" rx="6" fill="#F45D78"/>
<path d="M378.874 137.652H375.678C375.635 137.324 375.548 137.028 375.415 136.763C375.283 136.499 375.109 136.273 374.891 136.086C374.674 135.898 374.416 135.756 374.118 135.658C373.824 135.555 373.498 135.504 373.14 135.504C372.505 135.504 371.957 135.66 371.497 135.971C371.041 136.282 370.69 136.732 370.442 137.32C370.2 137.908 370.078 138.619 370.078 139.455C370.078 140.324 370.202 141.053 370.449 141.641C370.7 142.224 371.052 142.665 371.504 142.964C371.96 143.258 372.499 143.405 373.121 143.405C373.47 143.405 373.788 143.36 374.073 143.271C374.363 143.181 374.616 143.051 374.834 142.881C375.055 142.706 375.237 142.495 375.377 142.248C375.522 141.996 375.622 141.713 375.678 141.398L378.874 141.417C378.818 141.996 378.65 142.567 378.369 143.13C378.092 143.692 377.71 144.206 377.224 144.67C376.739 145.131 376.146 145.497 375.447 145.77C374.753 146.043 373.956 146.179 373.057 146.179C371.872 146.179 370.811 145.919 369.874 145.399C368.94 144.875 368.203 144.112 367.662 143.111C367.121 142.109 366.85 140.891 366.85 139.455C366.85 138.014 367.125 136.793 367.675 135.792C368.224 134.79 368.968 134.03 369.906 133.51C370.843 132.99 371.893 132.73 373.057 132.73C373.849 132.73 374.582 132.841 375.256 133.062C375.929 133.28 376.521 133.599 377.033 134.021C377.544 134.439 377.96 134.952 378.279 135.562C378.599 136.171 378.797 136.868 378.874 137.652ZM387.76 136.834C387.718 136.365 387.528 136.001 387.191 135.741C386.859 135.477 386.384 135.344 385.766 135.344C385.357 135.344 385.016 135.398 384.743 135.504C384.47 135.611 384.266 135.758 384.129 135.945C383.993 136.129 383.923 136.339 383.919 136.578C383.91 136.774 383.948 136.947 384.034 137.096C384.123 137.245 384.251 137.377 384.417 137.492C384.588 137.603 384.792 137.701 385.031 137.786C385.269 137.871 385.538 137.946 385.836 138.01L386.961 138.266C387.609 138.406 388.18 138.594 388.674 138.828C389.173 139.062 389.59 139.342 389.927 139.665C390.268 139.989 390.526 140.362 390.7 140.784C390.875 141.206 390.965 141.679 390.969 142.203C390.965 143.03 390.756 143.739 390.343 144.332C389.929 144.924 389.335 145.378 388.559 145.693C387.788 146.009 386.857 146.166 385.766 146.166C384.671 146.166 383.716 146.002 382.902 145.674C382.088 145.346 381.455 144.847 381.004 144.178C380.552 143.509 380.32 142.663 380.307 141.641H383.337C383.362 142.062 383.475 142.414 383.676 142.695C383.876 142.977 384.151 143.19 384.5 143.335C384.854 143.479 385.263 143.552 385.727 143.552C386.154 143.552 386.516 143.494 386.814 143.379C387.117 143.264 387.349 143.104 387.511 142.9C387.673 142.695 387.756 142.461 387.76 142.197C387.756 141.95 387.679 141.739 387.53 141.564C387.381 141.385 387.151 141.232 386.84 141.104C386.533 140.972 386.141 140.85 385.664 140.739L384.296 140.42C383.162 140.16 382.269 139.74 381.617 139.161C380.965 138.577 380.642 137.788 380.646 136.795C380.642 135.986 380.859 135.276 381.298 134.667C381.737 134.058 382.344 133.582 383.119 133.241C383.895 132.901 384.779 132.73 385.772 132.73C386.786 132.73 387.666 132.903 388.412 133.248C389.162 133.589 389.744 134.068 390.157 134.686C390.57 135.304 390.781 136.02 390.79 136.834H387.76ZM399.643 136.834C399.6 136.365 399.411 136.001 399.074 135.741C398.742 135.477 398.267 135.344 397.649 135.344C397.24 135.344 396.899 135.398 396.626 135.504C396.353 135.611 396.149 135.758 396.012 135.945C395.876 136.129 395.806 136.339 395.801 136.578C395.793 136.774 395.831 136.947 395.916 137.096C396.006 137.245 396.134 137.377 396.3 137.492C396.47 137.603 396.675 137.701 396.914 137.786C397.152 137.871 397.421 137.946 397.719 138.01L398.844 138.266C399.492 138.406 400.063 138.594 400.557 138.828C401.056 139.062 401.473 139.342 401.81 139.665C402.151 139.989 402.409 140.362 402.583 140.784C402.758 141.206 402.847 141.679 402.852 142.203C402.847 143.03 402.639 143.739 402.225 144.332C401.812 144.924 401.218 145.378 400.442 145.693C399.671 146.009 398.74 146.166 397.649 146.166C396.553 146.166 395.599 146.002 394.785 145.674C393.971 145.346 393.338 144.847 392.887 144.178C392.435 143.509 392.203 142.663 392.19 141.641H395.22C395.245 142.062 395.358 142.414 395.558 142.695C395.759 142.977 396.034 143.19 396.383 143.335C396.737 143.479 397.146 143.552 397.61 143.552C398.036 143.552 398.399 143.494 398.697 143.379C398.999 143.264 399.232 143.104 399.394 142.9C399.556 142.695 399.639 142.461 399.643 142.197C399.639 141.95 399.562 141.739 399.413 141.564C399.264 141.385 399.034 141.232 398.722 141.104C398.416 140.972 398.024 140.85 397.546 140.739L396.178 140.42C395.045 140.16 394.152 139.74 393.5 139.161C392.848 138.577 392.524 137.788 392.529 136.795C392.524 135.986 392.742 135.276 393.181 134.667C393.619 134.058 394.227 133.582 395.002 133.241C395.778 132.901 396.662 132.73 397.655 132.73C398.669 132.73 399.549 132.903 400.295 133.248C401.045 133.589 401.627 134.068 402.04 134.686C402.453 135.304 402.664 136.02 402.673 136.834H399.643Z" fill="white"/>
<rect x="344" y="60" width="56" height="33" rx="6" fill="#5C3DDE"/>
<path d="M368.36 69.7273H372V80.2869C371.995 81.2763 371.759 82.1413 371.291 82.8821C370.824 83.6179 370.178 84.1896 369.352 84.5973C368.532 85.005 367.582 85.2088 366.504 85.2088C365.549 85.2088 364.681 85.0423 363.901 84.7092C363.125 84.3761 362.506 83.859 362.044 83.158C361.587 82.457 361.36 81.5597 361.365 80.4659H365.042C365.057 80.8587 365.131 81.1942 365.266 81.4727C365.405 81.7461 365.596 81.9524 365.84 82.0916C366.083 82.2308 366.374 82.3004 366.712 82.3004C367.065 82.3004 367.364 82.2259 367.607 82.0767C367.851 81.9226 368.035 81.6964 368.159 81.3981C368.288 81.0998 368.355 80.7294 368.36 80.2869V69.7273ZM382.572 74.3061C382.523 73.7592 382.301 73.3342 381.909 73.0309C381.521 72.7227 380.967 72.5685 380.246 72.5685C379.768 72.5685 379.371 72.6307 379.052 72.755C378.734 72.8793 378.496 73.0508 378.337 73.2695C378.177 73.4833 378.095 73.7294 378.09 74.0078C378.081 74.2365 378.125 74.4379 378.225 74.6119C378.329 74.7859 378.478 74.94 378.672 75.0742C378.871 75.2035 379.11 75.3178 379.388 75.4173C379.666 75.5167 379.98 75.6037 380.328 75.6783L381.64 75.9766C382.396 76.1406 383.062 76.3594 383.639 76.6328C384.22 76.9062 384.708 77.2319 385.1 77.6097C385.498 77.9876 385.799 78.4226 386.003 78.9148C386.207 79.407 386.311 79.9588 386.316 80.5703C386.311 81.5348 386.067 82.3626 385.585 83.0536C385.103 83.7447 384.409 84.2741 383.505 84.642C382.605 85.0099 381.518 85.1939 380.246 85.1939C378.968 85.1939 377.854 85.0025 376.905 84.6197C375.955 84.2369 375.217 83.6552 374.69 82.8746C374.163 82.0941 373.892 81.1072 373.877 79.9141H377.412C377.442 80.4062 377.573 80.8164 377.807 81.1445C378.041 81.4727 378.361 81.7212 378.769 81.8903C379.182 82.0593 379.659 82.1438 380.201 82.1438C380.698 82.1438 381.121 82.0767 381.469 81.9425C381.822 81.8082 382.093 81.6218 382.282 81.3832C382.47 81.1445 382.567 80.8711 382.572 80.5629C382.567 80.2745 382.478 80.0284 382.304 79.8246C382.13 79.6158 381.861 79.4368 381.498 79.2876C381.141 79.1335 380.683 78.9918 380.126 78.8626L378.53 78.4897C377.208 78.1864 376.166 77.6967 375.406 77.0206C374.645 76.3395 374.267 75.4197 374.272 74.2614C374.267 73.3168 374.521 72.489 375.033 71.7781C375.545 71.0671 376.253 70.5128 377.158 70.1151C378.063 69.7173 379.095 69.5185 380.253 69.5185C381.436 69.5185 382.463 69.7198 383.333 70.1225C384.208 70.5202 384.887 71.0795 385.369 71.8004C385.851 72.5213 386.097 73.3565 386.107 74.3061H382.572Z" fill="white"/>
<path d="M307.881 24V12.3636H312.688C313.559 12.3636 314.311 12.5208 314.943 12.8352C315.58 13.1458 316.07 13.5928 316.415 14.1761C316.759 14.7557 316.932 15.4432 316.932 16.2386C316.932 17.0455 316.756 17.7311 316.403 18.2955C316.051 18.8561 315.551 19.2841 314.903 19.5795C314.256 19.8712 313.489 20.017 312.602 20.017H309.562V17.8011H312.08C312.504 17.8011 312.858 17.7462 313.142 17.6364C313.43 17.5227 313.648 17.3523 313.795 17.125C313.943 16.8939 314.017 16.5985 314.017 16.2386C314.017 15.8788 313.943 15.5814 313.795 15.3466C313.648 15.108 313.43 14.9299 313.142 14.8125C312.854 14.6913 312.5 14.6307 312.08 14.6307H310.693V24H307.881ZM314.432 18.6818L317.33 24H314.261L311.42 18.6818H314.432ZM318.474 24V12.3636H326.588V14.6477H321.287V17.0341H326.173V19.3239H321.287V21.7159H326.588V24H318.474ZM330.866 24H327.844L331.77 12.3636H335.514L339.44 24H336.418L333.685 15.2955H333.594L330.866 24ZM330.463 19.4205H336.781V21.5568H330.463V19.4205ZM350.709 16.5795H347.868C347.83 16.2879 347.752 16.0246 347.635 15.7898C347.518 15.5549 347.362 15.3542 347.169 15.1875C346.976 15.0208 346.747 14.8939 346.482 14.8068C346.22 14.7159 345.93 14.6705 345.612 14.6705C345.048 14.6705 344.561 14.8087 344.152 15.0852C343.747 15.3617 343.434 15.7614 343.214 16.2841C342.999 16.8068 342.891 17.4394 342.891 18.1818C342.891 18.9545 343 19.6023 343.22 20.125C343.444 20.6439 343.756 21.036 344.158 21.3011C344.563 21.5625 345.042 21.6932 345.595 21.6932C345.906 21.6932 346.188 21.6534 346.442 21.5739C346.699 21.4943 346.925 21.3788 347.118 21.2273C347.315 21.072 347.476 20.8845 347.601 20.6648C347.73 20.4413 347.819 20.1894 347.868 19.9091L350.709 19.9261C350.66 20.4413 350.51 20.9489 350.26 21.4489C350.014 21.9489 349.675 22.4053 349.243 22.8182C348.811 23.2273 348.285 23.553 347.663 23.7955C347.046 24.0379 346.338 24.1591 345.538 24.1591C344.485 24.1591 343.542 23.928 342.709 23.4659C341.879 23 341.224 22.322 340.743 21.4318C340.262 20.5417 340.021 19.4583 340.021 18.1818C340.021 16.9015 340.266 15.8163 340.754 14.9261C341.243 14.036 341.904 13.3598 342.737 12.8977C343.571 12.4356 344.504 12.2045 345.538 12.2045C346.243 12.2045 346.894 12.303 347.493 12.5C348.091 12.6932 348.618 12.9773 349.072 13.3523C349.527 13.7235 349.896 14.1799 350.18 14.7216C350.464 15.2633 350.641 15.8826 350.709 16.5795ZM351.938 14.6477V12.3636H361.773V14.6477H358.244V24H355.472V14.6477H351.938Z" fill="white"/>
<ellipse cx="211" cy="60.5" rx="3" ry="4.5" fill="#111111"/>
<ellipse cx="240" cy="60.5" rx="3" ry="4.5" fill="#111111"/>
<path d="M200.305 47.4139C200.26 46.7984 200.647 46.2318 201.241 46.0635C205.927 44.7352 209.01 44.6219 213.824 45.1705C214.454 45.2423 214.939 45.756 214.985 46.3883V46.3883C215.053 47.333 214.139 48.0418 213.226 47.7897C209.079 46.6444 206.202 46.7679 202.267 48.5391C201.398 48.9305 200.373 48.365 200.305 47.4139V47.4139Z" fill="#111111"/>
<path d="M236.315 46.4333C236.395 45.8215 236.888 45.3443 237.503 45.2988C242.361 44.9394 245.404 45.448 250.009 46.953C250.612 47.1499 250.984 47.7508 250.902 48.3794V48.3794C250.779 49.3185 249.741 49.8291 248.897 49.3986C245.065 47.4431 242.222 46.9859 238.011 47.9301C237.081 48.1387 236.191 47.3789 236.315 46.4333V46.4333Z" fill="#111111"/>
<rect x="231.5" y="50.5" width="26" height="18" rx="4.5" stroke="black"/>
<path d="M220 57C224.233 56.1026 226.629 56.115 231 57V59C226.701 57.7793 224.299 57.6975 220 59V57Z" fill="#0E0D0D"/>
<path d="M218 77.2122C218 76.134 219.62 75.6877 220.326 76.5027C223.866 80.5907 228.206 80.7123 231.737 76.5247C232.411 75.7254 234 76.1518 234 77.1973V77.1973C234 77.4815 233.875 77.7552 233.66 77.9413C227.511 83.27 224.022 83.4328 218.313 77.9484C218.114 77.7569 218 77.4886 218 77.2122V77.2122Z" fill="#CA6E6E"/>
<circle cx="224.5" cy="152.5" r="6.5" fill="#748A69"/>
<path d="M92 34H161C163.209 34 165 35.7909 165 38V103" stroke="#A2A6A2"/>
<path d="M307.999 255.5L307 260.288L306.226 259.956L307.999 255.5Z" fill="#4B4641"/>
<path d="M72.5 97.5H142C146.418 97.5 150 101.082 150 105.5V130C150 134.418 153.582 138 158 138H159" stroke="#A2A6A2"/>
<path d="M357.5 141.5H293.5M344.5 78H325C320.582 78 317 81.5817 317 86V115C317 119.418 313.418 123 309 123H293.5M300.5 15.5H289.5C285.082 15.5 281.5 19.0817 281.5 23.5V101" stroke="#A2A6A2"/>
<path d="M93.4998 164.5C95.9264 161.47 96.4023 159.595 93.4998 155.5C90.1558 151.037 90.5135 148.907 93.4998 145.5C96.9625 141.976 96.4202 139.587 93.4998 135" stroke="#918E8E"/>
<path d="M104 167C106.152 165.505 106.935 164.424 104 160C101.666 155.794 101.749 153.958 104 151.5" stroke="#918E8E"/>
<rect x="193.5" y="50.5" width="26" height="18" rx="4.5" stroke="black"/>
<path d="M269.546 239H168.046C166.581 249.044 200.096 256.622 301.546 273L308.046 255.5L269.546 239Z" fill="#96B3AA"/>
<g filter="url(#filter4_f_18_80)">
<path d="M149.5 240.5V256.511C149.5 256.783 149.717 257.005 149.989 257.011L215 258.5" stroke="#FFFCFC" stroke-width="0.5"/>
</g>
<path d="M306.255 260.002L313.165 262.451L309.155 273.762L302 271.5L306.255 260.002Z" fill="#E6C6A4"/>
<path d="M308 274L312.5 261L323 264.5L320 306C311.697 301.274 310.355 293.656 311 275.5L308 274Z" fill="#786A66"/>
<g filter="url(#filter5_f_18_80)">
<path d="M248.564 27.4471C248.13 26.8087 248.303 25.9342 248.954 25.5185V25.5185C249.62 25.0935 250.508 25.3259 250.886 26.0194C256.743 36.7735 257.295 37.9622 260.047 50.082C260.085 50.2514 260.083 50.4336 260.037 50.6011V50.6011C259.726 51.7357 258.02 51.5941 257.864 50.4281C256.623 41.1693 254.547 36.2388 248.564 27.4471Z" fill="#FFFEFE"/>
</g>
<g filter="url(#filter6_f_18_80)">
<path d="M197.168 31.5022C197.192 31.1668 197.442 30.8836 197.774 30.8276V30.8276C198.277 30.7427 198.709 31.1909 198.602 31.69C196.192 42.9743 193.321 48.6414 190.929 61.3244C190.85 61.7432 190.53 62.0817 190.114 62.1764V62.1764C189.23 62.3777 188.518 61.4553 188.94 60.6524C192.578 53.7171 196.048 47.0282 197.168 31.5022Z" fill="#FFFEFE"/>
</g>
<g filter="url(#filter7_f_18_80)">
<path d="M207.121 90.3739C208.21 90.5397 208.797 91.7614 208.214 92.6962V92.6962C207.838 93.297 207.093 93.5569 206.43 93.3082C200.482 91.0778 197.329 88.9097 193.784 83.918C193.356 83.3159 193.469 82.4898 194.028 82.0066V82.0066C194.81 81.3296 196.028 81.6602 196.425 82.6156C198.729 88.1551 201.406 89.5043 207.121 90.3739Z" fill="#AC926C"/>
</g>
<g filter="url(#filter8_f_18_80)">
<path d="M254.201 76.905C254.823 76.0402 256.095 75.981 256.781 76.7957V76.7957C257.322 77.4371 257.283 78.3879 256.688 78.979C250.241 85.3827 245.722 88.5381 237.58 91.5835C236.717 91.9063 235.767 91.4148 235.516 90.5282V90.5282C235.252 89.5956 235.876 88.6467 236.832 88.4849C245.805 86.9662 249.04 84.0767 254.201 76.905Z" fill="white"/>
</g>
<g filter="url(#filter9_f_18_80)">
<path d="M209.639 88.6513C210.69 88.8263 211.306 89.9405 210.88 90.9168V90.9168C210.544 91.6855 209.675 92.0719 208.881 91.8C200.285 88.8544 195.455 86.1998 189.119 80.2477C188.447 79.6168 188.468 78.5475 189.151 77.9297V77.9297C189.87 77.2796 190.998 77.4195 191.566 78.2049C196.9 85.5777 200.924 87.1993 209.639 88.6513Z" fill="white"/>
</g>
<g filter="url(#filter10_f_18_80)">
<rect x="212" y="94" width="2" height="15" rx="1" fill="#FFFBFB"/>
</g>
<g filter="url(#filter11_f_18_80)">
<rect x="229" y="94" width="2" height="15" rx="1" fill="#FFFBFB"/>
</g>
<g filter="url(#filter12_f_18_80)">
<path d="M238.02 46.3356C238.029 46.2146 238.131 46.1211 238.253 46.1216C242.306 46.1393 244.579 46.7783 248.792 47.4663C248.911 47.4857 249 47.5885 249 47.7087V47.7087C249 47.8608 248.861 47.9757 248.711 47.9491C244.5 47.1994 242.352 46.5703 238.255 46.5872C238.119 46.5877 238.009 46.4718 238.02 46.3356V46.3356Z" fill="#D9D9D9"/>
</g>
<g filter="url(#filter13_f_18_80)">
<path d="M238.02 46.3356C238.029 46.2146 238.131 46.1211 238.253 46.1216C242.306 46.1393 244.579 46.7783 248.792 47.4663C248.911 47.4857 249 47.5885 249 47.7087V47.7087C249 47.8608 248.861 47.9757 248.711 47.9491C244.5 47.1994 242.352 46.5703 238.255 46.5872C238.119 46.5877 238.009 46.4718 238.02 46.3356V46.3356Z" fill="#D9D9D9"/>
</g>
<g filter="url(#filter14_f_18_80)">
<path d="M201.04 46.6654C201.025 46.5449 201.107 46.4329 201.226 46.4095C205.203 45.6253 207.557 45.8024 211.823 45.6436C211.943 45.6392 212.051 45.7223 212.074 45.8402V45.8402C212.104 45.9893 211.991 46.1294 211.839 46.1329C207.563 46.2308 205.333 46.0388 201.32 46.8653C201.187 46.8928 201.056 46.801 201.04 46.6654V46.6654Z" fill="#D9D9D9"/>
</g>
<g filter="url(#filter15_f_18_80)">
<path d="M218.5 77.4511C218.5 77.3097 218.685 77.2496 218.773 77.3602C222.529 82.0804 229.922 82.1677 233.271 77.8132C233.371 77.6836 233.277 77.5 233.113 77.5V77.5C233.043 77.5 232.977 77.5371 232.939 77.5963C229.856 82.4223 222.461 82.6829 218.53 77.5393C218.511 77.5141 218.5 77.4828 218.5 77.4511V77.4511Z" fill="white"/>
</g>
<g filter="url(#filter16_f_18_80)">
<ellipse cx="212.5" cy="62" rx="0.5" ry="1" fill="#FEFDFD"/>
</g>
<g filter="url(#filter17_f_18_80)">
<ellipse cx="238.5" cy="62" rx="0.5" ry="1" fill="#FEFDFD"/>
</g>
<g filter="url(#filter18_f_18_80)">
<path d="M164.113 144.277L164.851 144.819C158.71 164.969 145.697 195.771 147.14 198.546L146.36 198.462C144.378 195.834 156.695 165.424 164.113 144.277Z" fill="white"/>
</g>
<g filter="url(#filter19_f_18_80)">
<path d="M147 197.961C147 197.831 147.741 197.296 147.87 197.312C150.383 197.624 157.877 197.143 164.491 197.01C164.771 197.004 165 197.23 165 197.51V197.51C165 197.782 164.781 198.005 164.509 198.011C155.241 198.216 147.673 198.509 147.026 198.024C147.006 198.009 147 197.986 147 197.961V197.961Z" fill="white"/>
</g>
<g filter="url(#filter20_f_18_80)">
<path d="M183.5 113.5C184.32 112.345 185.119 111.601 186.496 110.983C188.414 110.121 190.561 109.973 192.662 109.919L201.297 109.698C206.339 109.568 211.201 111.115 215.959 112.788C219.558 114.053 222.634 114.256 225.85 113.352C231.245 111.834 236.496 109.5 242.1 109.5H249.353C252.756 109.5 256.338 109.8 259.065 111.836C259.668 112.286 260.294 112.824 261 113.5" stroke="#FFF9F9"/>
</g>
<g filter="url(#filter21_f_18_80)">
<path d="M177.907 61.4091C177.965 61.4336 178.034 61.4417 178.096 61.4292V61.4292C178.461 61.3562 178.411 60.8878 178.039 60.896C165.058 61.1803 166.116 70.9529 178.406 77.2457C178.965 77.5316 178.771 78.4484 178.144 78.4484V78.4484C178.05 78.4484 177.954 78.4239 177.871 78.3791C163.048 70.3844 165.028 56.0337 177.907 61.4091Z" fill="white"/>
</g>
<g filter="url(#filter22_f_18_80)">
<path d="M260.635 76.7697C260.248 76.6181 260 76.2333 260 75.8172V75.8172C260 75.1395 260.632 74.6373 261.3 74.7491C275.608 77.1427 276.254 65.2884 269.701 60.2902C269.393 60.0553 269.55 59.5 269.937 59.5V59.5C269.979 59.5 270.023 59.5078 270.062 59.5217C282.737 63.9772 272.362 81.3606 260.635 76.7697Z" fill="white"/>
</g>
<g filter="url(#filter23_f_18_80)">
<path d="M170.5 183.5V121C170.5 119.343 171.843 118 173.5 118H279.5C281.157 118 282.5 119.343 282.5 121V183.5C282.5 185.157 281.157 186.5 279.5 186.5H173.5C171.843 186.5 170.5 185.157 170.5 183.5Z" stroke="white" stroke-width="2"/>
</g>
<g filter="url(#filter24_f_18_80)">
<circle cx="225" cy="153" r="3.5" stroke="#FFFBFB"/>
</g>
<g filter="url(#filter25_f_18_80)">
<rect x="167" y="196" width="118" height="2" rx="1" fill="#FBFAFA"/>
</g>
<g filter="url(#filter26_f_18_80)">
<path d="M170.071 240.63C169.737 240.554 169.5 240.257 169.5 239.914V239.914C169.5 239.445 169.934 239.096 170.393 239.198L301.146 268.2C301.833 268.352 302.194 269.11 301.88 269.74V269.74C301.657 270.186 301.158 270.422 300.672 270.312L170.071 240.63Z" fill="white"/>
</g>
<g filter="url(#filter27_f_18_80)">
<path d="M264.457 239.311C264.296 239.24 264.19 239.082 264.185 238.906V238.906C264.175 238.57 264.518 238.339 264.826 238.474L306.157 256.631C306.402 256.739 306.519 257.021 306.42 257.271V257.271C306.316 257.535 306.014 257.659 305.754 257.544L264.457 239.311Z" fill="white"/>
</g>
<g filter="url(#filter28_f_18_80)">
<rect x="230.745" y="262.576" width="2" height="111.394" rx="1" transform="rotate(2.7386 230.745 262.576)" fill="#FFFBFB"/>
</g>
<g filter="url(#filter29_f_18_80)">
<path d="M253.346 267.637C253.394 267.23 253.723 266.914 254.132 266.881V266.881C254.671 266.838 255.115 267.299 255.054 267.836L243.129 371.521C243.074 371.996 242.691 372.366 242.215 372.404V372.404C241.586 372.453 241.069 371.916 241.143 371.29L253.346 267.637Z" fill="#FFFCFC"/>
</g>
<g filter="url(#filter30_f_18_80)">
<path d="M306.945 260L311.705 261.978C312.195 262.182 312.441 262.733 312.265 263.234L309.279 271.721C309.093 272.25 308.508 272.523 307.983 272.324L303 270.442" stroke="#FFFBFB" stroke-width="0.5"/>
</g>
<g filter="url(#filter31_f_18_80)">
<path d="M277 240H296.5C298.157 240 299.5 241.343 299.5 243V250.5" stroke="#FFFCFC" stroke-width="0.5"/>
</g>
<g filter="url(#filter32_f_18_80)">
<path d="M6.5 206.5H434.5" stroke="#FFFCFC"/>
</g>
<g filter="url(#filter33_f_18_80)">
<path d="M41 212.5V229C41 231.761 43.2386 234 46 234H396C398.761 234 401 231.761 401 229V214.5" stroke="#FFFEFE"/>
</g>
<g filter="url(#filter34_f_18_80)">
<path d="M313 275.5C312.239 293.391 312.973 300.53 318 304" stroke="#FFFEFE"/>
</g>
<g filter="url(#filter35_f_18_80)">
<path d="M58.5 241L46.5 374.5M373.5 241L391 374.5" stroke="#FFFEFE"/>
</g>
<g filter="url(#filter36_f_18_80)">
<path d="M177.5 262.5L166 373.5M270 269L280.5 373.5" stroke="#FFFEFE"/>
</g>
<g filter="url(#filter37_f_18_80)">
<path d="M11 96V106C11 108.761 13.2386 111 16 111H38.5333M48.6476 84H65C67.7614 84 70 86.2386 70 89V97.8462" stroke="#FFFEFE" stroke-width="0.5"/>
</g>
<g filter="url(#filter38_f_18_80)">
<path d="M39 33V43C39 45.7614 41.2386 48 44 48H61.8667M70.2667 21H83C85.7614 21 88 23.2386 88 26V34.8462" stroke="#FFFEFE" stroke-width="0.5"/>
</g>
<g filter="url(#filter39_f_18_80)">
<path d="M305 15.1111V24C305 26.7614 307.239 29 310 29H332.067M342.01 4H358C360.761 4 363 6.23858 363 9V16.8205" stroke="#FFFEFE" stroke-width="0.5"/>
</g>
<g filter="url(#filter40_f_18_80)">
<path d="M347 75V85C347 87.7614 349.239 90 352 90H370.333M378.905 63H392C394.761 63 397 65.2386 397 68V76.8462" stroke="#FFFEFE" stroke-width="0.5"/>
</g>
<g filter="url(#filter41_f_18_80)">
<path d="M361 138V148C361 150.761 363.239 153 366 153H382.933M390.99 126H403C405.761 126 408 128.239 408 131V139.846" stroke="#FFFEFE" stroke-width="0.5"/>
</g>
<g filter="url(#filter42_f_18_80)">
<path d="M95.5 171.5V197.5" stroke="#FFFEFE" stroke-width="0.5"/>
</g>
<g filter="url(#filter43_f_18_80)">
<path d="M193.249 25.4241C192.714 26.295 191.648 26.7272 190.691 26.3683V26.3683C189.5 25.9218 189.025 24.4866 189.843 23.5125C204.353 6.2167 250.635 8.91146 263.289 27.583C263.625 28.0792 263.447 28.7447 262.926 29.0421V29.0421C262.466 29.305 261.887 29.1931 261.547 28.7868C246.516 10.8479 205.044 6.22751 193.249 25.4241Z" fill="#4E3E3E"/>
</g>
<g filter="url(#filter44_f_18_80)">
<path d="M196.91 26.9103C196.621 26.6207 196.877 26.1298 197.282 26.1889C219.663 29.4495 231.286 29.1215 247.896 20.8046C248.254 20.6256 248.691 20.6913 248.974 20.9739V20.9739C249.452 21.4517 249.269 22.2652 248.633 22.4943C231.772 28.5719 220.416 31.8579 197.126 27.0262C197.045 27.0094 196.969 26.9688 196.91 26.9103V26.9103Z" fill="#554544"/>
</g>
<g filter="url(#filter45_f_18_80)">
<path d="M189 25C186.885 24.6201 185.489 24.5105 183.828 24.7007C182.64 24.8366 181.58 25.5085 180.906 26.4952C176.815 32.4817 175.816 39.284 178 58" stroke="#4E3F3F" stroke-width="0.5"/>
</g>
<path d="M125.002 231C124.941 231 124.872 230.977 124.795 230.931C124.734 230.87 124.703 230.801 124.703 230.724V218.028C124.703 217.951 124.695 217.905 124.68 217.89C124.665 217.875 124.619 217.867 124.542 217.867H121.759C121.59 217.867 121.483 217.852 121.437 217.821C121.406 217.775 121.391 217.698 121.391 217.591V215.797C121.391 215.69 121.406 215.621 121.437 215.59C121.483 215.544 121.575 215.521 121.713 215.521H130.729C130.882 215.521 130.982 215.544 131.028 215.59C131.074 215.621 131.097 215.69 131.097 215.797V217.568C131.097 217.691 131.074 217.775 131.028 217.821C130.982 217.852 130.875 217.867 130.706 217.867H127.923C127.831 217.867 127.777 217.875 127.762 217.89C127.747 217.905 127.739 217.951 127.739 218.028V230.724C127.739 230.908 127.647 231 127.463 231H125.002ZM152.03 230.195C152.03 230.563 151.815 230.801 151.386 230.908C151.171 230.985 150.903 231.038 150.581 231.069C150.274 231.115 149.975 231.146 149.684 231.161C149.408 231.176 149.193 231.184 149.04 231.184C147.185 231.184 145.697 230.517 144.578 229.183C143.459 227.849 142.899 225.886 142.899 223.295C142.899 220.688 143.436 218.718 144.509 217.384C145.598 216.035 147.108 215.36 149.04 215.36C149.193 215.36 149.408 215.375 149.684 215.406C149.975 215.421 150.274 215.452 150.581 215.498C150.903 215.529 151.171 215.582 151.386 215.659C151.601 215.705 151.762 215.766 151.869 215.843C151.976 215.92 152.03 216.027 152.03 216.165V218.166C152.03 218.58 151.808 218.634 151.363 218.327C151.056 218.128 150.719 217.982 150.351 217.89C149.983 217.783 149.623 217.729 149.27 217.729C148.641 217.729 148.112 217.867 147.683 218.143C147.269 218.404 146.939 218.779 146.694 219.27C146.449 219.745 146.272 220.297 146.165 220.926C146.058 221.555 146.004 222.245 146.004 222.996C146.004 223.502 146.027 224.023 146.073 224.56C146.134 225.097 146.226 225.626 146.349 226.147C146.487 226.653 146.671 227.113 146.901 227.527C147.146 227.941 147.461 228.271 147.844 228.516C148.243 228.746 148.718 228.861 149.27 228.861C149.669 228.861 150.052 228.815 150.42 228.723C150.788 228.616 151.079 228.501 151.294 228.378C151.585 228.194 151.777 228.11 151.869 228.125C151.976 228.14 152.03 228.263 152.03 228.493V230.195ZM154.945 231C154.853 231 154.753 230.985 154.646 230.954C154.554 230.923 154.508 230.847 154.508 230.724C154.446 230.172 154.385 229.49 154.324 228.677C154.278 227.849 154.239 226.952 154.209 225.986C154.178 225.005 154.155 224.008 154.14 222.996C154.14 222.061 154.147 221.148 154.163 220.259C154.193 219.354 154.239 218.526 154.301 217.775C154.377 217.008 154.462 216.357 154.554 215.82C154.569 215.728 154.623 215.659 154.715 215.613C154.807 215.552 154.891 215.521 154.968 215.521C155.382 215.521 155.788 215.521 156.187 215.521C156.601 215.521 157.007 215.521 157.406 215.521C157.544 215.521 157.605 215.621 157.59 215.82C157.528 216.311 157.475 216.893 157.429 217.568C157.383 218.227 157.337 218.917 157.291 219.638C157.26 220.359 157.229 221.049 157.199 221.708C157.199 221.846 157.214 221.938 157.245 221.984C157.275 222.03 157.367 222.053 157.521 222.053C158.272 222.053 159.031 222.053 159.798 222.053C160.564 222.053 161.323 222.053 162.075 222.053C162.182 222.053 162.259 222.038 162.305 222.007C162.351 221.961 162.374 221.861 162.374 221.708C162.358 221.064 162.328 220.382 162.282 219.661C162.236 218.94 162.19 218.25 162.144 217.591C162.098 216.916 162.044 216.326 161.983 215.82C161.983 215.621 162.044 215.521 162.167 215.521C162.565 215.521 162.964 215.521 163.363 215.521C163.777 215.521 164.183 215.521 164.582 215.521C164.674 215.521 164.766 215.552 164.858 215.613C164.95 215.659 165.003 215.728 165.019 215.82C165.126 216.357 165.21 217.016 165.272 217.798C165.333 218.565 165.379 219.4 165.41 220.305C165.44 221.194 165.448 222.107 165.433 223.042C165.433 224.039 165.41 225.028 165.364 226.009C165.333 226.975 165.287 227.864 165.226 228.677C165.18 229.49 165.126 230.172 165.065 230.724C165.049 230.847 164.996 230.923 164.904 230.954C164.812 230.985 164.712 231 164.605 231C164.206 231 163.8 231 163.386 231C162.987 231 162.588 231 162.19 231C162.082 231 162.036 230.908 162.052 230.724C162.098 230.295 162.136 229.835 162.167 229.344C162.213 228.838 162.251 228.317 162.282 227.78C162.328 227.243 162.358 226.707 162.374 226.17C162.389 225.618 162.397 225.097 162.397 224.606C162.397 224.499 162.374 224.43 162.328 224.399C162.297 224.368 162.22 224.353 162.098 224.353C161.331 224.353 160.557 224.353 159.775 224.353C159.008 224.353 158.241 224.353 157.475 224.353C157.352 224.353 157.268 224.368 157.222 224.399C157.191 224.43 157.176 224.499 157.176 224.606C157.176 225.112 157.183 225.633 157.199 226.17C157.229 226.707 157.252 227.243 157.268 227.78C157.298 228.317 157.337 228.838 157.383 229.344C157.429 229.835 157.475 230.295 157.521 230.724C157.536 230.908 157.49 231 157.383 231C156.984 231 156.578 231 156.164 231C155.765 231 155.359 231 154.945 231ZM178.826 230.287C178.826 230.486 178.688 230.655 178.412 230.793C178.152 230.916 177.799 231 177.354 231.046C176.91 231.107 176.411 231.138 175.859 231.138C173.099 231.138 171.022 230.494 169.626 229.206C168.231 227.903 167.533 226.001 167.533 223.502C167.533 221.831 167.848 220.389 168.476 219.178C169.12 217.967 170.002 217.039 171.121 216.395C172.241 215.736 173.513 215.406 174.939 215.406C175.553 215.406 176.151 215.429 176.733 215.475C177.331 215.521 177.799 215.605 178.136 215.728C178.351 215.789 178.497 215.843 178.573 215.889C178.665 215.935 178.711 216.058 178.711 216.257V217.867C178.711 218.158 178.65 218.342 178.527 218.419C178.405 218.48 178.267 218.465 178.113 218.373C177.73 218.158 177.339 218.005 176.94 217.913C176.542 217.806 176.089 217.752 175.583 217.752C175.139 217.752 174.633 217.829 174.065 217.982C173.513 218.135 172.984 218.419 172.478 218.833C171.988 219.232 171.574 219.799 171.236 220.535C170.914 221.256 170.753 222.199 170.753 223.364C170.753 224.56 170.907 225.518 171.213 226.239C171.535 226.96 171.926 227.504 172.386 227.872C172.862 228.24 173.345 228.485 173.835 228.608C174.341 228.731 174.778 228.792 175.146 228.792C175.545 228.792 175.76 228.692 175.79 228.493V224.514C175.79 224.422 175.775 224.368 175.744 224.353C175.729 224.338 175.683 224.33 175.606 224.33H173.007C172.854 224.33 172.754 224.315 172.708 224.284C172.662 224.253 172.639 224.161 172.639 224.008V222.352C172.639 222.199 172.655 222.099 172.685 222.053C172.731 222.007 172.839 221.984 173.007 221.984H178.366C178.596 221.984 178.727 222.015 178.757 222.076C178.803 222.122 178.826 222.26 178.826 222.49V230.287ZM184.581 230.724C184.581 230.908 184.473 231 184.259 231H181.867C181.652 231 181.545 230.908 181.545 230.724V215.82C181.545 215.621 181.652 215.521 181.867 215.521H184.259C184.473 215.521 184.581 215.621 184.581 215.82V230.724ZM196.143 230.195C196.143 230.563 195.929 230.801 195.499 230.908C195.285 230.985 195.016 231.038 194.694 231.069C194.388 231.115 194.089 231.146 193.797 231.161C193.521 231.176 193.307 231.184 193.153 231.184C191.298 231.184 189.811 230.517 188.691 229.183C187.572 227.849 187.012 225.886 187.012 223.295C187.012 220.688 187.549 218.718 188.622 217.384C189.711 216.035 191.221 215.36 193.153 215.36C193.307 215.36 193.521 215.375 193.797 215.406C194.089 215.421 194.388 215.452 194.694 215.498C195.016 215.529 195.285 215.582 195.499 215.659C195.714 215.705 195.875 215.766 195.982 215.843C196.09 215.92 196.143 216.027 196.143 216.165V218.166C196.143 218.58 195.921 218.634 195.476 218.327C195.17 218.128 194.832 217.982 194.464 217.89C194.096 217.783 193.736 217.729 193.383 217.729C192.755 217.729 192.226 217.867 191.796 218.143C191.382 218.404 191.053 218.779 190.807 219.27C190.562 219.745 190.386 220.297 190.278 220.926C190.171 221.555 190.117 222.245 190.117 222.996C190.117 223.502 190.14 224.023 190.186 224.56C190.248 225.097 190.34 225.626 190.462 226.147C190.6 226.653 190.784 227.113 191.014 227.527C191.26 227.941 191.574 228.271 191.957 228.516C192.356 228.746 192.831 228.861 193.383 228.861C193.782 228.861 194.165 228.815 194.533 228.723C194.901 228.616 195.193 228.501 195.407 228.378C195.699 228.194 195.89 228.11 195.982 228.125C196.09 228.14 196.143 228.263 196.143 228.493V230.195ZM204.164 231.184C202.845 231.184 201.803 231.038 201.036 230.747C200.285 230.44 199.717 230.057 199.334 229.597C198.951 229.122 198.698 228.646 198.575 228.171C198.452 227.696 198.368 227.274 198.322 226.906C198.261 226.308 198.215 225.672 198.184 224.997C198.153 224.322 198.138 223.709 198.138 223.157C198.138 222.436 198.153 221.647 198.184 220.788C198.215 219.929 198.261 219.063 198.322 218.189C198.399 217.315 198.498 216.51 198.621 215.774C198.636 215.667 198.682 215.598 198.759 215.567C198.836 215.536 198.928 215.521 199.035 215.521C199.403 215.521 199.771 215.521 200.139 215.521C200.507 215.521 200.883 215.521 201.266 215.521C201.404 215.521 201.481 215.544 201.496 215.59C201.511 215.636 201.511 215.797 201.496 216.073C201.435 216.686 201.381 217.315 201.335 217.959C201.289 218.603 201.251 219.255 201.22 219.914C201.159 221.064 201.128 222.183 201.128 223.272C201.128 224.345 201.174 225.403 201.266 226.446C201.297 226.891 201.373 227.266 201.496 227.573C201.634 227.88 201.818 228.133 202.048 228.332C202.293 228.516 202.585 228.654 202.922 228.746C203.275 228.823 203.666 228.861 204.095 228.861C204.555 228.861 204.954 228.823 205.291 228.746C205.628 228.654 205.912 228.516 206.142 228.332C206.387 228.133 206.579 227.88 206.717 227.573C206.855 227.266 206.947 226.891 206.993 226.446C207.07 225.419 207.1 224.368 207.085 223.295C207.085 222.206 207.062 221.087 207.016 219.937C207.001 219.278 206.962 218.626 206.901 217.982C206.855 217.323 206.801 216.686 206.74 216.073C206.725 215.797 206.725 215.636 206.74 215.59C206.755 215.544 206.84 215.521 206.993 215.521C207.376 215.521 207.76 215.521 208.143 215.521C208.542 215.521 208.933 215.521 209.316 215.521C209.439 215.521 209.531 215.536 209.592 215.567C209.669 215.598 209.707 215.667 209.707 215.774C209.845 216.51 209.945 217.315 210.006 218.189C210.083 219.048 210.136 219.914 210.167 220.788C210.198 221.647 210.213 222.429 210.213 223.134C210.213 223.701 210.205 224.322 210.19 224.997C210.175 225.672 210.129 226.308 210.052 226.906C210.021 227.197 209.96 227.535 209.868 227.918C209.776 228.286 209.623 228.662 209.408 229.045C209.193 229.428 208.871 229.789 208.442 230.126C208.028 230.448 207.476 230.709 206.786 230.908C206.096 231.092 205.222 231.184 204.164 231.184ZM212.577 230.149V228.263C212.577 228.156 212.607 228.102 212.669 228.102C212.745 228.102 212.868 228.133 213.037 228.194C213.343 228.286 213.704 228.378 214.118 228.47C214.532 228.547 214.938 228.608 215.337 228.654C215.735 228.7 216.057 228.723 216.303 228.723C217.1 228.723 217.706 228.501 218.12 228.056C218.549 227.611 218.764 227.098 218.764 226.515C218.764 225.917 218.549 225.434 218.12 225.066C217.706 224.698 217.146 224.414 216.441 224.215C216.057 224.123 215.62 223.993 215.13 223.824C214.654 223.655 214.187 223.418 213.727 223.111C213.282 222.804 212.914 222.383 212.623 221.846C212.331 221.294 212.186 220.596 212.186 219.753C212.186 218.71 212.423 217.875 212.899 217.246C213.389 216.617 214.018 216.157 214.785 215.866C215.567 215.559 216.395 215.406 217.269 215.406C217.606 215.406 217.974 215.444 218.373 215.521C218.787 215.582 219.193 215.667 219.592 215.774C219.99 215.881 220.343 216.004 220.65 216.142C220.772 216.173 220.849 216.219 220.88 216.28C220.91 216.326 220.926 216.395 220.926 216.487V218.212C220.926 218.626 220.673 218.695 220.167 218.419C219.845 218.235 219.454 218.074 218.994 217.936C218.549 217.783 218.051 217.706 217.499 217.706C216.824 217.706 216.28 217.882 215.866 218.235C215.452 218.588 215.245 219.009 215.245 219.5C215.245 219.975 215.375 220.359 215.636 220.65C215.896 220.941 216.234 221.171 216.648 221.34C217.062 221.509 217.491 221.647 217.936 221.754C218.38 221.861 218.787 221.984 219.155 222.122C219.768 222.321 220.274 222.59 220.673 222.927C221.087 223.249 221.401 223.678 221.616 224.215C221.83 224.752 221.938 225.434 221.938 226.262C221.938 227.381 221.692 228.309 221.202 229.045C220.726 229.766 220.067 230.302 219.224 230.655C218.38 231.008 217.422 231.184 216.349 231.184C215.873 231.184 215.337 231.138 214.739 231.046C214.141 230.954 213.596 230.824 213.106 230.655C212.906 230.594 212.768 230.532 212.692 230.471C212.615 230.394 212.577 230.287 212.577 230.149ZM234.987 231C234.772 231 234.665 230.908 234.665 230.724V215.82C234.665 215.621 234.772 215.521 234.987 215.521H237.31C237.463 215.521 237.563 215.552 237.609 215.613C237.67 215.659 237.701 215.759 237.701 215.912V228.447C237.701 228.539 237.709 228.6 237.724 228.631C237.739 228.646 237.793 228.654 237.885 228.654H242.577C242.792 228.654 242.914 228.677 242.945 228.723C242.991 228.769 243.014 228.892 243.014 229.091V230.563C243.014 230.778 242.991 230.908 242.945 230.954C242.899 230.985 242.776 231 242.577 231H234.987ZM254.435 231C254.312 231 254.235 230.946 254.205 230.839C254.174 230.732 254.182 230.525 254.228 230.218C254.335 229.528 254.496 228.7 254.711 227.734C254.925 226.753 255.178 225.718 255.47 224.629C255.761 223.54 256.068 222.452 256.39 221.363C256.727 220.274 257.072 219.262 257.425 218.327C257.777 217.376 258.115 216.587 258.437 215.958C258.529 215.82 258.605 215.713 258.667 215.636C258.743 215.559 258.835 215.521 258.943 215.521H261.128C261.25 215.567 261.35 215.621 261.427 215.682C261.503 215.728 261.58 215.82 261.657 215.958C261.979 216.587 262.316 217.376 262.669 218.327C263.021 219.262 263.366 220.274 263.704 221.363C264.041 222.452 264.355 223.548 264.647 224.652C264.938 225.741 265.191 226.776 265.406 227.757C265.62 228.723 265.774 229.543 265.866 230.218C265.927 230.525 265.942 230.732 265.912 230.839C265.881 230.946 265.797 231 265.659 231H263.29C263.167 231 263.083 230.969 263.037 230.908C262.991 230.831 262.937 230.647 262.876 230.356C262.814 230.003 262.73 229.589 262.623 229.114C262.531 228.623 262.446 228.194 262.37 227.826C262.354 227.719 262.331 227.657 262.301 227.642C262.27 227.611 262.201 227.596 262.094 227.596H258C257.892 227.611 257.831 227.627 257.816 227.642C257.8 227.657 257.777 227.726 257.747 227.849C257.67 228.202 257.578 228.623 257.471 229.114C257.379 229.589 257.294 230.011 257.218 230.379C257.172 230.655 257.126 230.831 257.08 230.908C257.034 230.969 256.949 231 256.827 231H254.435ZM258.644 225.273H261.45C261.557 225.273 261.618 225.258 261.634 225.227C261.664 225.181 261.664 225.104 261.634 224.997C261.434 224.215 261.22 223.402 260.99 222.559C260.76 221.7 260.522 220.926 260.277 220.236C260.246 220.098 260.192 220.029 260.116 220.029H259.955C259.893 220.029 259.84 220.098 259.794 220.236C259.671 220.635 259.525 221.102 259.357 221.639C259.203 222.176 259.05 222.735 258.897 223.318C258.743 223.901 258.598 224.468 258.46 225.02C258.444 225.112 258.444 225.181 258.46 225.227C258.475 225.258 258.536 225.273 258.644 225.273ZM268.161 231C267.962 231 267.862 230.908 267.862 230.724V215.82C267.862 215.621 267.962 215.521 268.161 215.521H272.048C273.244 215.521 274.21 215.682 274.946 216.004C275.698 216.311 276.25 216.809 276.602 217.499C276.955 218.189 277.131 219.124 277.131 220.305C277.131 221.133 276.986 221.907 276.694 222.628C276.403 223.349 275.943 223.947 275.314 224.422C275.1 224.621 274.939 224.805 274.831 224.974C274.739 225.143 274.778 225.365 274.946 225.641C275.069 225.917 275.207 226.193 275.36 226.469C275.514 226.73 275.682 226.967 275.866 227.182C276.05 227.397 276.257 227.581 276.487 227.734C276.733 227.903 277.009 228.033 277.315 228.125C277.622 228.217 277.982 228.263 278.396 228.263C278.534 228.263 278.619 228.278 278.649 228.309C278.695 228.34 278.718 228.439 278.718 228.608V230.724C278.718 230.816 278.703 230.877 278.672 230.908C278.642 230.939 278.55 230.962 278.396 230.977C278.243 230.992 277.982 231 277.614 231C276.986 231 276.403 230.908 275.866 230.724C275.345 230.54 274.87 230.287 274.44 229.965C274.057 229.674 273.697 229.329 273.359 228.93C273.037 228.516 272.754 228.071 272.508 227.596C272.263 227.121 272.048 226.622 271.864 226.101C271.849 226.07 271.818 225.986 271.772 225.848C271.726 225.71 271.657 225.641 271.565 225.641H271.036C270.944 225.641 270.898 225.756 270.898 225.986V230.724C270.898 230.908 270.791 231 270.576 231H268.161ZM270.898 223.042C270.898 223.103 270.914 223.149 270.944 223.18C270.975 223.211 271.021 223.226 271.082 223.226H272.002C272.677 223.226 273.206 222.973 273.589 222.467C273.973 221.946 274.164 221.233 274.164 220.328C274.164 219.577 274.072 219.009 273.888 218.626C273.72 218.243 273.467 217.982 273.129 217.844C272.807 217.706 272.409 217.637 271.933 217.637H271.082C271.006 217.637 270.952 217.645 270.921 217.66C270.906 217.675 270.898 217.737 270.898 217.844V223.042ZM289.063 224.652C289.109 224.713 289.17 224.744 289.247 224.744C289.323 224.744 289.362 224.698 289.362 224.606C289.377 224.131 289.377 223.625 289.362 223.088C289.362 222.551 289.354 221.992 289.339 221.409C289.339 220.811 289.323 220.198 289.293 219.569C289.277 218.94 289.239 218.319 289.178 217.706C289.132 217.077 289.07 216.456 288.994 215.843C288.978 215.628 289.032 215.521 289.155 215.521H291.616C291.708 215.521 291.792 215.552 291.869 215.613C291.961 215.659 292.014 215.728 292.03 215.82C292.137 216.387 292.221 217.077 292.283 217.89C292.359 218.687 292.405 219.561 292.421 220.512C292.451 221.447 292.459 222.406 292.444 223.387C292.428 224.353 292.398 225.304 292.352 226.239C292.321 227.159 292.275 228.01 292.214 228.792C292.168 229.559 292.114 230.203 292.053 230.724C292.037 230.847 291.984 230.923 291.892 230.954C291.815 230.985 291.723 231 291.616 231H290.052C289.944 231 289.814 230.877 289.661 230.632L283.727 221.754C283.711 221.693 283.673 221.662 283.612 221.662C283.55 221.662 283.52 221.7 283.52 221.777C283.52 222.605 283.52 223.387 283.52 224.123C283.52 224.844 283.52 225.526 283.52 226.17C283.535 226.799 283.558 227.389 283.589 227.941C283.619 228.478 283.65 228.984 283.681 229.459C283.711 229.919 283.757 230.333 283.819 230.701C283.834 230.9 283.78 231 283.658 231H281.243C281.151 231 281.051 230.985 280.944 230.954C280.852 230.923 280.798 230.847 280.783 230.724C280.721 230.203 280.668 229.559 280.622 228.792C280.576 228.01 280.537 227.159 280.507 226.239C280.476 225.304 280.453 224.345 280.438 223.364C280.438 222.383 280.445 221.424 280.461 220.489C280.491 219.538 280.537 218.664 280.599 217.867C280.66 217.054 280.744 216.372 280.852 215.82C280.882 215.728 280.936 215.659 281.013 215.613C281.105 215.552 281.189 215.521 281.266 215.521H282.761C282.899 215.521 282.998 215.59 283.06 215.728L289.063 224.652ZM298.345 230.724C298.345 230.908 298.238 231 298.023 231H295.631C295.417 231 295.309 230.908 295.309 230.724V215.82C295.309 215.621 295.417 215.521 295.631 215.521H298.023C298.238 215.521 298.345 215.621 298.345 215.82V230.724ZM309.839 224.652C309.885 224.713 309.946 224.744 310.023 224.744C310.1 224.744 310.138 224.698 310.138 224.606C310.153 224.131 310.153 223.625 310.138 223.088C310.138 222.551 310.13 221.992 310.115 221.409C310.115 220.811 310.1 220.198 310.069 219.569C310.054 218.94 310.015 218.319 309.954 217.706C309.908 217.077 309.847 216.456 309.77 215.843C309.755 215.628 309.808 215.521 309.931 215.521H312.392C312.484 215.521 312.568 215.552 312.645 215.613C312.737 215.659 312.791 215.728 312.806 215.82C312.913 216.387 312.998 217.077 313.059 217.89C313.136 218.687 313.182 219.561 313.197 220.512C313.228 221.447 313.235 222.406 313.22 223.387C313.205 224.353 313.174 225.304 313.128 226.239C313.097 227.159 313.051 228.01 312.99 228.792C312.944 229.559 312.89 230.203 312.829 230.724C312.814 230.847 312.76 230.923 312.668 230.954C312.591 230.985 312.499 231 312.392 231H310.828C310.721 231 310.59 230.877 310.437 230.632L304.503 221.754C304.488 221.693 304.449 221.662 304.388 221.662C304.327 221.662 304.296 221.7 304.296 221.777C304.296 222.605 304.296 223.387 304.296 224.123C304.296 224.844 304.296 225.526 304.296 226.17C304.311 226.799 304.334 227.389 304.365 227.941C304.396 228.478 304.426 228.984 304.457 229.459C304.488 229.919 304.534 230.333 304.595 230.701C304.61 230.9 304.557 231 304.434 231H302.019C301.927 231 301.827 230.985 301.72 230.954C301.628 230.923 301.574 230.847 301.559 230.724C301.498 230.203 301.444 229.559 301.398 228.792C301.352 228.01 301.314 227.159 301.283 226.239C301.252 225.304 301.229 224.345 301.214 223.364C301.214 222.383 301.222 221.424 301.237 220.489C301.268 219.538 301.314 218.664 301.375 217.867C301.436 217.054 301.521 216.372 301.628 215.82C301.659 215.728 301.712 215.659 301.789 215.613C301.881 215.552 301.965 215.521 302.042 215.521H303.537C303.675 215.521 303.775 215.59 303.836 215.728L309.839 224.652ZM326.597 230.287C326.597 230.486 326.459 230.655 326.183 230.793C325.922 230.916 325.569 231 325.125 231.046C324.68 231.107 324.182 231.138 323.63 231.138C320.87 231.138 318.792 230.494 317.397 229.206C316.001 227.903 315.304 226.001 315.304 223.502C315.304 221.831 315.618 220.389 316.247 219.178C316.891 217.967 317.772 217.039 318.892 216.395C320.011 215.736 321.284 215.406 322.71 215.406C323.323 215.406 323.921 215.429 324.504 215.475C325.102 215.521 325.569 215.605 325.907 215.728C326.121 215.789 326.267 215.843 326.344 215.889C326.436 215.935 326.482 216.058 326.482 216.257V217.867C326.482 218.158 326.42 218.342 326.298 218.419C326.175 218.48 326.037 218.465 325.884 218.373C325.5 218.158 325.109 218.005 324.711 217.913C324.312 217.806 323.86 217.752 323.354 217.752C322.909 217.752 322.403 217.829 321.836 217.982C321.284 218.135 320.755 218.419 320.249 218.833C319.758 219.232 319.344 219.799 319.007 220.535C318.685 221.256 318.524 222.199 318.524 223.364C318.524 224.56 318.677 225.518 318.984 226.239C319.306 226.96 319.697 227.504 320.157 227.872C320.632 228.24 321.115 228.485 321.606 228.608C322.112 228.731 322.549 228.792 322.917 228.792C323.315 228.792 323.53 228.692 323.561 228.493V224.514C323.561 224.422 323.545 224.368 323.515 224.353C323.499 224.338 323.453 224.33 323.377 224.33H320.778C320.624 224.33 320.525 224.315 320.479 224.284C320.433 224.253 320.41 224.161 320.41 224.008V222.352C320.41 222.199 320.425 222.099 320.456 222.053C320.502 222.007 320.609 221.984 320.778 221.984H326.137C326.367 221.984 326.497 222.015 326.528 222.076C326.574 222.122 326.597 222.26 326.597 222.49V230.287Z" fill="white"/>
<path d="M133.283 231C133.084 231 132.984 230.908 132.984 230.724V215.82C132.984 215.621 133.084 215.521 133.283 215.521H140.965C141.149 215.521 141.257 215.536 141.287 215.567C141.318 215.598 141.333 215.697 141.333 215.866V217.476C141.333 217.66 141.31 217.775 141.264 217.821C141.218 217.852 141.119 217.867 140.965 217.867H136.227C136.12 217.867 136.059 217.875 136.043 217.89C136.028 217.905 136.02 217.959 136.02 218.051V221.846C136.02 221.938 136.028 221.999 136.043 222.03C136.074 222.045 136.128 222.053 136.204 222.053H139.93C140.13 222.053 140.245 222.076 140.275 222.122C140.306 222.153 140.321 222.275 140.321 222.49V223.939C140.321 224.138 140.298 224.261 140.252 224.307C140.222 224.338 140.114 224.353 139.93 224.353H136.204C136.128 224.353 136.074 224.361 136.043 224.376C136.028 224.391 136.02 224.437 136.02 224.514V228.447C136.02 228.539 136.028 228.6 136.043 228.631C136.059 228.646 136.112 228.654 136.204 228.654H140.919C141.134 228.654 141.257 228.677 141.287 228.723C141.318 228.769 141.333 228.892 141.333 229.091V230.563C141.333 230.778 141.31 230.908 141.264 230.954C141.218 230.985 141.096 231 140.896 231H133.283ZM245.049 231C244.85 231 244.75 230.908 244.75 230.724V215.82C244.75 215.621 244.85 215.521 245.049 215.521H252.731C252.915 215.521 253.022 215.536 253.053 215.567C253.084 215.598 253.099 215.697 253.099 215.866V217.476C253.099 217.66 253.076 217.775 253.03 217.821C252.984 217.852 252.884 217.867 252.731 217.867H247.993C247.886 217.867 247.824 217.875 247.809 217.89C247.794 217.905 247.786 217.959 247.786 218.051V221.846C247.786 221.938 247.794 221.999 247.809 222.03C247.84 222.045 247.893 222.053 247.97 222.053H251.696C251.895 222.053 252.01 222.076 252.041 222.122C252.072 222.153 252.087 222.275 252.087 222.49V223.939C252.087 224.138 252.064 224.261 252.018 224.307C251.987 224.338 251.88 224.353 251.696 224.353H247.97C247.893 224.353 247.84 224.361 247.809 224.376C247.794 224.391 247.786 224.437 247.786 224.514V228.447C247.786 228.539 247.794 228.6 247.809 228.631C247.824 228.646 247.878 228.654 247.97 228.654H252.685C252.9 228.654 253.022 228.677 253.053 228.723C253.084 228.769 253.099 228.892 253.099 229.091V230.563C253.099 230.778 253.076 230.908 253.03 230.954C252.984 230.985 252.861 231 252.662 231H245.049Z" fill="#16BB26"/>
<g filter="url(#filter46_f_18_80)">
<path d="M96.5 215V225C96.5 231.075 101.425 236 107.5 236H344C350.075 236 355 231.075 355 225V216" stroke="#C6BFBF" stroke-width="0.5"/>
</g>
<g filter="url(#filter47_f_18_80)">
<path d="M209 93C218.589 94.7489 224.024 95.1311 234 93V94.0341C224.458 95.4693 218.934 95.1658 209 94.0341V93Z" fill="#C3836E"/>
</g>
<g filter="url(#filter48_f_18_80)">
<path d="M174.026 63.915C174.46 63.3279 175.157 63 175.887 63V63C178.072 63 178.921 65.7636 178.516 67.9109C178.445 68.2871 178.433 68.6579 178.478 69.0286C178.743 71.181 177.952 74 175.783 74V74C175.115 74 174.471 73.7203 174.048 73.2027C171.282 69.8198 171.36 67.5295 174.026 63.915Z" fill="#D8AD8E"/>
</g>
<g filter="url(#filter49_f_18_80)">
<path d="M269.029 72.5743C268.49 73.0663 267.742 73.2528 267.027 73.1115V73.1115C264.883 72.6881 264.586 69.8125 265.399 67.7842C265.541 67.4289 265.625 67.0674 265.652 66.6949C265.81 64.5321 267.132 61.9198 269.26 62.34V62.34C269.916 62.4695 270.493 62.8687 270.808 63.4584C272.865 67.313 272.346 69.545 269.029 72.5743Z" fill="#D8AD8E"/>
</g>
<g filter="url(#filter50_f_18_80)">
<rect x="229.4" y="261" width="30.9886" height="1.55917" transform="rotate(9.18804 229.4 261)" fill="#414945"/>
</g>
<g filter="url(#filter51_f_18_80)">
<path d="M241.666 58.9399C241.868 59.7433 242.326 61.3515 241.791 61.4863C241.255 61.6211 239.44 60.3034 239.238 59.5C239.036 58.6966 238.703 57.6231 239.238 57.4883C239.774 57.3536 241.464 58.1365 241.666 58.9399Z" fill="#FFFAFA"/>
</g>
<g filter="url(#filter52_f_18_80)">
<path d="M209.562 58.5641C210.209 58.0461 211.48 56.9602 211.826 57.3913C212.171 57.8223 211.727 60.021 211.081 60.5389C210.434 61.0568 209.597 61.8063 209.251 61.3753C208.906 60.9442 208.915 59.082 209.562 58.5641Z" fill="#D9D9D9"/>
</g>
<g filter="url(#filter53_f_18_80)">
<path d="M185.5 24C191.501 24.126 194.091 25.2467 197 29.5" stroke="#100F0F" stroke-width="0.5"/>
</g>
<defs>
<filter id="filter0_f_18_80" x="142.748" y="94.2599" width="163.03" height="94.7405" filterUnits="userSpaceOnUse" color-interpolation-filters="sRGB">
<feFlood flood-opacity="0" result="BackgroundImageFix"/>
<feBlend mode="normal" in="SourceGraphic" in2="BackgroundImageFix" result="shape"/>
<feGaussianBlur stdDeviation="2.5" result="effect1_foregroundBlur_18_80"/>
</filter>
<filter id="filter1_i_18_80" x="166.513" y="21.1557" width="110.769" height="96.012" filterUnits="userSpaceOnUse" color-interpolation-filters="sRGB">
<feFlood flood-opacity="0" result="BackgroundImageFix"/>
<feBlend mode="normal" in="SourceGraphic" in2="BackgroundImageFix" result="shape"/>
<feColorMatrix in="SourceAlpha" type="matrix" values="0 0 0 0 0 0 0 0 0 0 0 0 0 0 0 0 0 0 127 0" result="hardAlpha"/>
<feOffset dy="4"/>
<feGaussianBlur stdDeviation="2"/>
<feComposite in2="hardAlpha" operator="arithmetic" k2="-1" k3="1"/>
<feColorMatrix type="matrix" values="0 0 0 0 0.896667 0 0 0 0 0.755525 0 0 0 0 0.523056 0 0 0 1 0"/>
<feBlend mode="normal" in2="shape" result="effect1_innerShadow_18_80"/>
</filter>
<filter id="filter2_f_18_80" x="207.943" y="105.918" width="27.1196" height="9.18224" filterUnits="userSpaceOnUse" color-interpolation-filters="sRGB">
<feFlood flood-opacity="0" result="BackgroundImageFix"/>
<feBlend mode="normal" in="SourceGraphic" in2="BackgroundImageFix" result="shape"/>
<feGaussianBlur stdDeviation="1" result="effect1_foregroundBlur_18_80"/>
</filter>
<filter id="filter3_f_18_80" x="283" y="147.309" width="24.4941" height="53.6912" filterUnits="userSpaceOnUse" color-interpolation-filters="sRGB">
<feFlood flood-opacity="0" result="BackgroundImageFix"/>
<feBlend mode="normal" in="SourceGraphic" in2="BackgroundImageFix" result="shape"/>
<feGaussianBlur stdDeviation="1" result="effect1_foregroundBlur_18_80"/>
</filter>
<filter id="filter4_f_18_80" x="144.25" y="235.5" width="75.7559" height="28.2499" filterUnits="userSpaceOnUse" color-interpolation-filters="sRGB">
<feFlood flood-opacity="0" result="BackgroundImageFix"/>
<feBlend mode="normal" in="SourceGraphic" in2="BackgroundImageFix" result="shape"/>
<feGaussianBlur stdDeviation="2.5" result="effect1_foregroundBlur_18_80"/>
</filter>
<filter id="filter5_f_18_80" x="240.325" y="17.3053" width="27.7485" height="42.0761" filterUnits="userSpaceOnUse" color-interpolation-filters="sRGB">
<feFlood flood-opacity="0" result="BackgroundImageFix"/>
<feBlend mode="normal" in="SourceGraphic" in2="BackgroundImageFix" result="shape"/>
<feGaussianBlur stdDeviation="4" result="effect1_foregroundBlur_18_80"/>
</filter>
<filter id="filter6_f_18_80" x="183.815" y="25.8172" width="19.8027" height="41.3872" filterUnits="userSpaceOnUse" color-interpolation-filters="sRGB">
<feFlood flood-opacity="0" result="BackgroundImageFix"/>
<feBlend mode="normal" in="SourceGraphic" in2="BackgroundImageFix" result="shape"/>
<feGaussianBlur stdDeviation="2.5" result="effect1_foregroundBlur_18_80"/>
</filter>
<filter id="filter7_f_18_80" x="186.524" y="74.6494" width="28.9194" height="25.7527" filterUnits="userSpaceOnUse" color-interpolation-filters="sRGB">
<feFlood flood-opacity="0" result="BackgroundImageFix"/>
<feBlend mode="normal" in="SourceGraphic" in2="BackgroundImageFix" result="shape"/>
<feGaussianBlur stdDeviation="3.5" result="effect1_foregroundBlur_18_80"/>
</filter>
<filter id="filter8_f_18_80" x="228.455" y="69.219" width="35.707" height="29.464" filterUnits="userSpaceOnUse" color-interpolation-filters="sRGB">
<feFlood flood-opacity="0" result="BackgroundImageFix"/>
<feBlend mode="normal" in="SourceGraphic" in2="BackgroundImageFix" result="shape"/>
<feGaussianBlur stdDeviation="3.5" result="effect1_foregroundBlur_18_80"/>
</filter>
<filter id="filter9_f_18_80" x="181.627" y="70.5178" width="36.3896" height="28.369" filterUnits="userSpaceOnUse" color-interpolation-filters="sRGB">
<feFlood flood-opacity="0" result="BackgroundImageFix"/>
<feBlend mode="normal" in="SourceGraphic" in2="BackgroundImageFix" result="shape"/>
<feGaussianBlur stdDeviation="3.5" result="effect1_foregroundBlur_18_80"/>
</filter>
<filter id="filter10_f_18_80" x="208" y="90" width="10" height="23" filterUnits="userSpaceOnUse" color-interpolation-filters="sRGB">
<feFlood flood-opacity="0" result="BackgroundImageFix"/>
<feBlend mode="normal" in="SourceGraphic" in2="BackgroundImageFix" result="shape"/>
<feGaussianBlur stdDeviation="2" result="effect1_foregroundBlur_18_80"/>
</filter>
<filter id="filter11_f_18_80" x="225" y="90" width="10" height="23" filterUnits="userSpaceOnUse" color-interpolation-filters="sRGB">
<feFlood flood-opacity="0" result="BackgroundImageFix"/>
<feBlend mode="normal" in="SourceGraphic" in2="BackgroundImageFix" result="shape"/>
<feGaussianBlur stdDeviation="2" result="effect1_foregroundBlur_18_80"/>
</filter>
<filter id="filter12_f_18_80" x="236.519" y="44.6216" width="13.981" height="4.83134" filterUnits="userSpaceOnUse" color-interpolation-filters="sRGB">
<feFlood flood-opacity="0" result="BackgroundImageFix"/>
<feBlend mode="normal" in="SourceGraphic" in2="BackgroundImageFix" result="shape"/>
<feGaussianBlur stdDeviation="0.75" result="effect1_foregroundBlur_18_80"/>
</filter>
<filter id="filter13_f_18_80" x="236.519" y="44.6216" width="13.981" height="4.83134" filterUnits="userSpaceOnUse" color-interpolation-filters="sRGB">
<feFlood flood-opacity="0" result="BackgroundImageFix"/>
<feBlend mode="normal" in="SourceGraphic" in2="BackgroundImageFix" result="shape"/>
<feGaussianBlur stdDeviation="0.75" result="effect1_foregroundBlur_18_80"/>
</filter>
<filter id="filter14_f_18_80" x="199.538" y="44.1435" width="14.0415" height="4.2267" filterUnits="userSpaceOnUse" color-interpolation-filters="sRGB">
<feFlood flood-opacity="0" result="BackgroundImageFix"/>
<feBlend mode="normal" in="SourceGraphic" in2="BackgroundImageFix" result="shape"/>
<feGaussianBlur stdDeviation="0.75" result="effect1_foregroundBlur_18_80"/>
</filter>
<filter id="filter15_f_18_80" x="217.5" y="76.3029" width="16.812" height="6.00386" filterUnits="userSpaceOnUse" color-interpolation-filters="sRGB">
<feFlood flood-opacity="0" result="BackgroundImageFix"/>
<feBlend mode="normal" in="SourceGraphic" in2="BackgroundImageFix" result="shape"/>
<feGaussianBlur stdDeviation="0.5" result="effect1_foregroundBlur_18_80"/>
</filter>
<filter id="filter16_f_18_80" x="211" y="60" width="3" height="4" filterUnits="userSpaceOnUse" color-interpolation-filters="sRGB">
<feFlood flood-opacity="0" result="BackgroundImageFix"/>
<feBlend mode="normal" in="SourceGraphic" in2="BackgroundImageFix" result="shape"/>
<feGaussianBlur stdDeviation="0.5" result="effect1_foregroundBlur_18_80"/>
</filter>
<filter id="filter17_f_18_80" x="237" y="60" width="3" height="4" filterUnits="userSpaceOnUse" color-interpolation-filters="sRGB">
<feFlood flood-opacity="0" result="BackgroundImageFix"/>
<feBlend mode="normal" in="SourceGraphic" in2="BackgroundImageFix" result="shape"/>
<feGaussianBlur stdDeviation="0.5" result="effect1_foregroundBlur_18_80"/>
</filter>
<filter id="filter18_f_18_80" x="144.147" y="142.277" width="22.7036" height="58.2692" filterUnits="userSpaceOnUse" color-interpolation-filters="sRGB">
<feFlood flood-opacity="0" result="BackgroundImageFix"/>
<feBlend mode="normal" in="SourceGraphic" in2="BackgroundImageFix" result="shape"/>
<feGaussianBlur stdDeviation="1" result="effect1_foregroundBlur_18_80"/>
</filter>
<filter id="filter19_f_18_80" x="145" y="195.009" width="22" height="5.27853" filterUnits="userSpaceOnUse" color-interpolation-filters="sRGB">
<feFlood flood-opacity="0" result="BackgroundImageFix"/>
<feBlend mode="normal" in="SourceGraphic" in2="BackgroundImageFix" result="shape"/>
<feGaussianBlur stdDeviation="1" result="effect1_foregroundBlur_18_80"/>
</filter>
<filter id="filter20_f_18_80" x="181.092" y="107" width="82.2534" height="9.40892" filterUnits="userSpaceOnUse" color-interpolation-filters="sRGB">
<feFlood flood-opacity="0" result="BackgroundImageFix"/>
<feBlend mode="normal" in="SourceGraphic" in2="BackgroundImageFix" result="shape"/>
<feGaussianBlur stdDeviation="1" result="effect1_foregroundBlur_18_80"/>
</filter>
<filter id="filter21_f_18_80" x="163.487" y="56.2336" width="19.249" height="26.2149" filterUnits="userSpaceOnUse" color-interpolation-filters="sRGB">
<feFlood flood-opacity="0" result="BackgroundImageFix"/>
<feBlend mode="normal" in="SourceGraphic" in2="BackgroundImageFix" result="shape"/>
<feGaussianBlur stdDeviation="2" result="effect1_foregroundBlur_18_80"/>
</filter>
<filter id="filter22_f_18_80" x="253" y="52.5" width="29.8608" height="32.0348" filterUnits="userSpaceOnUse" color-interpolation-filters="sRGB">
<feFlood flood-opacity="0" result="BackgroundImageFix"/>
<feBlend mode="normal" in="SourceGraphic" in2="BackgroundImageFix" result="shape"/>
<feGaussianBlur stdDeviation="3.5" result="effect1_foregroundBlur_18_80"/>
</filter>
<filter id="filter23_f_18_80" x="166.5" y="114" width="120" height="76.5" filterUnits="userSpaceOnUse" color-interpolation-filters="sRGB">
<feFlood flood-opacity="0" result="BackgroundImageFix"/>
<feBlend mode="normal" in="SourceGraphic" in2="BackgroundImageFix" result="shape"/>
<feGaussianBlur stdDeviation="1.5" result="effect1_foregroundBlur_18_80"/>
</filter>
<filter id="filter24_f_18_80" x="216" y="144" width="18" height="18" filterUnits="userSpaceOnUse" color-interpolation-filters="sRGB">
<feFlood flood-opacity="0" result="BackgroundImageFix"/>
<feBlend mode="normal" in="SourceGraphic" in2="BackgroundImageFix" result="shape"/>
<feGaussianBlur stdDeviation="2.5" result="effect1_foregroundBlur_18_80"/>
</filter>
<filter id="filter25_f_18_80" x="163" y="192" width="126" height="10" filterUnits="userSpaceOnUse" color-interpolation-filters="sRGB">
<feFlood flood-opacity="0" result="BackgroundImageFix"/>
<feBlend mode="normal" in="SourceGraphic" in2="BackgroundImageFix" result="shape"/>
<feGaussianBlur stdDeviation="2" result="effect1_foregroundBlur_18_80"/>
</filter>
<filter id="filter26_f_18_80" x="161.5" y="231.18" width="148.495" height="47.1585" filterUnits="userSpaceOnUse" color-interpolation-filters="sRGB">
<feFlood flood-opacity="0" result="BackgroundImageFix"/>
<feBlend mode="normal" in="SourceGraphic" in2="BackgroundImageFix" result="shape"/>
<feGaussianBlur stdDeviation="4" result="effect1_foregroundBlur_18_80"/>
</filter>
<filter id="filter27_f_18_80" x="258.185" y="232.435" width="54.2705" height="31.152" filterUnits="userSpaceOnUse" color-interpolation-filters="sRGB">
<feFlood flood-opacity="0" result="BackgroundImageFix"/>
<feBlend mode="normal" in="SourceGraphic" in2="BackgroundImageFix" result="shape"/>
<feGaussianBlur stdDeviation="3" result="effect1_foregroundBlur_18_80"/>
</filter>
<filter id="filter28_f_18_80" x="217.469" y="254.623" width="23.2271" height="127.269" filterUnits="userSpaceOnUse" color-interpolation-filters="sRGB">
<feFlood flood-opacity="0" result="BackgroundImageFix"/>
<feBlend mode="normal" in="SourceGraphic" in2="BackgroundImageFix" result="shape"/>
<feGaussianBlur stdDeviation="4" result="effect1_foregroundBlur_18_80"/>
</filter>
<filter id="filter29_f_18_80" x="233.136" y="258.878" width="29.9238" height="121.528" filterUnits="userSpaceOnUse" color-interpolation-filters="sRGB">
<feFlood flood-opacity="0" result="BackgroundImageFix"/>
<feBlend mode="normal" in="SourceGraphic" in2="BackgroundImageFix" result="shape"/>
<feGaussianBlur stdDeviation="4" result="effect1_foregroundBlur_18_80"/>
</filter>
<filter id="filter30_f_18_80" x="300.912" y="257.769" width="13.6602" height="16.8701" filterUnits="userSpaceOnUse" color-interpolation-filters="sRGB">
<feFlood flood-opacity="0" result="BackgroundImageFix"/>
<feBlend mode="normal" in="SourceGraphic" in2="BackgroundImageFix" result="shape"/>
<feGaussianBlur stdDeviation="1" result="effect1_foregroundBlur_18_80"/>
</filter>
<filter id="filter31_f_18_80" x="273" y="235.75" width="30.75" height="18.75" filterUnits="userSpaceOnUse" color-interpolation-filters="sRGB">
<feFlood flood-opacity="0" result="BackgroundImageFix"/>
<feBlend mode="normal" in="SourceGraphic" in2="BackgroundImageFix" result="shape"/>
<feGaussianBlur stdDeviation="2" result="effect1_foregroundBlur_18_80"/>
</filter>
<filter id="filter32_f_18_80" x="0.5" y="200" width="440" height="13" filterUnits="userSpaceOnUse" color-interpolation-filters="sRGB">
<feFlood flood-opacity="0" result="BackgroundImageFix"/>
<feBlend mode="normal" in="SourceGraphic" in2="BackgroundImageFix" result="shape"/>
<feGaussianBlur stdDeviation="3" result="effect1_foregroundBlur_18_80"/>
</filter>
<filter id="filter33_f_18_80" x="30.5" y="202.5" width="381" height="42" filterUnits="userSpaceOnUse" color-interpolation-filters="sRGB">
<feFlood flood-opacity="0" result="BackgroundImageFix"/>
<feBlend mode="normal" in="SourceGraphic" in2="BackgroundImageFix" result="shape"/>
<feGaussianBlur stdDeviation="5" result="effect1_foregroundBlur_18_80"/>
</filter>
<filter id="filter34_f_18_80" x="310.244" y="273.479" width="10.0396" height="32.9327" filterUnits="userSpaceOnUse" color-interpolation-filters="sRGB">
<feFlood flood-opacity="0" result="BackgroundImageFix"/>
<feBlend mode="normal" in="SourceGraphic" in2="BackgroundImageFix" result="shape"/>
<feGaussianBlur stdDeviation="1" result="effect1_foregroundBlur_18_80"/>
</filter>
<filter id="filter35_f_18_80" x="42.002" y="236.935" width="353.494" height="141.63" filterUnits="userSpaceOnUse" color-interpolation-filters="sRGB">
<feFlood flood-opacity="0" result="BackgroundImageFix"/>
<feBlend mode="normal" in="SourceGraphic" in2="BackgroundImageFix" result="shape"/>
<feGaussianBlur stdDeviation="2" result="effect1_foregroundBlur_18_80"/>
</filter>
<filter id="filter36_f_18_80" x="161.502" y="258.448" width="123.495" height="119.103" filterUnits="userSpaceOnUse" color-interpolation-filters="sRGB">
<feFlood flood-opacity="0" result="BackgroundImageFix"/>
<feBlend mode="normal" in="SourceGraphic" in2="BackgroundImageFix" result="shape"/>
<feGaussianBlur stdDeviation="2" result="effect1_foregroundBlur_18_80"/>
</filter>
<filter id="filter37_f_18_80" x="7.75" y="80.75" width="65.5" height="33.5" filterUnits="userSpaceOnUse" color-interpolation-filters="sRGB">
<feFlood flood-opacity="0" result="BackgroundImageFix"/>
<feBlend mode="normal" in="SourceGraphic" in2="BackgroundImageFix" result="shape"/>
<feGaussianBlur stdDeviation="1.5" result="effect1_foregroundBlur_18_80"/>
</filter>
<filter id="filter38_f_18_80" x="35.75" y="17.75" width="55.5" height="33.5" filterUnits="userSpaceOnUse" color-interpolation-filters="sRGB">
<feFlood flood-opacity="0" result="BackgroundImageFix"/>
<feBlend mode="normal" in="SourceGraphic" in2="BackgroundImageFix" result="shape"/>
<feGaussianBlur stdDeviation="1.5" result="effect1_foregroundBlur_18_80"/>
</filter>
<filter id="filter39_f_18_80" x="301.75" y="0.75" width="64.5" height="31.5" filterUnits="userSpaceOnUse" color-interpolation-filters="sRGB">
<feFlood flood-opacity="0" result="BackgroundImageFix"/>
<feBlend mode="normal" in="SourceGraphic" in2="BackgroundImageFix" result="shape"/>
<feGaussianBlur stdDeviation="1.5" result="effect1_foregroundBlur_18_80"/>
</filter>
<filter id="filter40_f_18_80" x="343.75" y="59.75" width="56.5" height="33.5" filterUnits="userSpaceOnUse" color-interpolation-filters="sRGB">
<feFlood flood-opacity="0" result="BackgroundImageFix"/>
<feBlend mode="normal" in="SourceGraphic" in2="BackgroundImageFix" result="shape"/>
<feGaussianBlur stdDeviation="1.5" result="effect1_foregroundBlur_18_80"/>
</filter>
<filter id="filter41_f_18_80" x="357.75" y="122.75" width="53.5" height="33.5" filterUnits="userSpaceOnUse" color-interpolation-filters="sRGB">
<feFlood flood-opacity="0" result="BackgroundImageFix"/>
<feBlend mode="normal" in="SourceGraphic" in2="BackgroundImageFix" result="shape"/>
<feGaussianBlur stdDeviation="1.5" result="effect1_foregroundBlur_18_80"/>
</filter>
<filter id="filter42_f_18_80" x="91.25" y="167.5" width="8.5" height="34" filterUnits="userSpaceOnUse" color-interpolation-filters="sRGB">
<feFlood flood-opacity="0" result="BackgroundImageFix"/>
<feBlend mode="normal" in="SourceGraphic" in2="BackgroundImageFix" result="shape"/>
<feGaussianBlur stdDeviation="2" result="effect1_foregroundBlur_18_80"/>
</filter>
<filter id="filter43_f_18_80" x="178.435" y="0.941101" width="96.0254" height="39.243" filterUnits="userSpaceOnUse" color-interpolation-filters="sRGB">
<feFlood flood-opacity="0" result="BackgroundImageFix"/>
<feBlend mode="normal" in="SourceGraphic" in2="BackgroundImageFix" result="shape"/>
<feGaussianBlur stdDeviation="5.5" result="effect1_foregroundBlur_18_80"/>
</filter>
<filter id="filter44_f_18_80" x="189.786" y="13.705" width="66.4575" height="22.6443" filterUnits="userSpaceOnUse" color-interpolation-filters="sRGB">
<feFlood flood-opacity="0" result="BackgroundImageFix"/>
<feBlend mode="normal" in="SourceGraphic" in2="BackgroundImageFix" result="shape"/>
<feGaussianBlur stdDeviation="3.5" result="effect1_foregroundBlur_18_80"/>
</filter>
<filter id="filter45_f_18_80" x="174.623" y="22.3593" width="16.4219" height="37.6697" filterUnits="userSpaceOnUse" color-interpolation-filters="sRGB">
<feFlood flood-opacity="0" result="BackgroundImageFix"/>
<feBlend mode="normal" in="SourceGraphic" in2="BackgroundImageFix" result="shape"/>
<feGaussianBlur stdDeviation="1" result="effect1_foregroundBlur_18_80"/>
</filter>
<filter id="filter46_f_18_80" x="90.25" y="209" width="271" height="33.25" filterUnits="userSpaceOnUse" color-interpolation-filters="sRGB">
<feFlood flood-opacity="0" result="BackgroundImageFix"/>
<feBlend mode="normal" in="SourceGraphic" in2="BackgroundImageFix" result="shape"/>
<feGaussianBlur stdDeviation="3" result="effect1_foregroundBlur_18_80"/>
</filter>
<filter id="filter47_f_18_80" x="206" y="90" width="31" height="8" filterUnits="userSpaceOnUse" color-interpolation-filters="sRGB">
<feFlood flood-opacity="0" result="BackgroundImageFix"/>
<feBlend mode="normal" in="SourceGraphic" in2="BackgroundImageFix" result="shape"/>
<feGaussianBlur stdDeviation="1.5" result="effect1_foregroundBlur_18_80"/>
</filter>
<filter id="filter48_f_18_80" x="166" y="57" width="18.6138" height="23" filterUnits="userSpaceOnUse" color-interpolation-filters="sRGB">
<feFlood flood-opacity="0" result="BackgroundImageFix"/>
<feBlend mode="normal" in="SourceGraphic" in2="BackgroundImageFix" result="shape"/>
<feGaussianBlur stdDeviation="3" result="effect1_foregroundBlur_18_80"/>
</filter>
<filter id="filter49_f_18_80" x="258.983" y="56.2951" width="19.0435" height="22.8623" filterUnits="userSpaceOnUse" color-interpolation-filters="sRGB">
<feFlood flood-opacity="0" result="BackgroundImageFix"/>
<feBlend mode="normal" in="SourceGraphic" in2="BackgroundImageFix" result="shape"/>
<feGaussianBlur stdDeviation="3" result="effect1_foregroundBlur_18_80"/>
</filter>
<filter id="filter50_f_18_80" x="225.151" y="257" width="38.8398" height="14.4873" filterUnits="userSpaceOnUse" color-interpolation-filters="sRGB">
<feFlood flood-opacity="0" result="BackgroundImageFix"/>
<feBlend mode="normal" in="SourceGraphic" in2="BackgroundImageFix" result="shape"/>
<feGaussianBlur stdDeviation="2" result="effect1_foregroundBlur_18_80"/>
</filter>
<filter id="filter51_f_18_80" x="232.949" y="51.4731" width="15.0928" height="16.0228" filterUnits="userSpaceOnUse" color-interpolation-filters="sRGB">
<feFlood flood-opacity="0" result="BackgroundImageFix"/>
<feBlend mode="normal" in="SourceGraphic" in2="BackgroundImageFix" result="shape"/>
<feGaussianBlur stdDeviation="3" result="effect1_foregroundBlur_18_80"/>
</filter>
<filter id="filter52_f_18_80" x="204.025" y="52.2923" width="12.9214" height="14.2114" filterUnits="userSpaceOnUse" color-interpolation-filters="sRGB">
<feFlood flood-opacity="0" result="BackgroundImageFix"/>
<feBlend mode="normal" in="SourceGraphic" in2="BackgroundImageFix" result="shape"/>
<feGaussianBlur stdDeviation="2.5" result="effect1_foregroundBlur_18_80"/>
</filter>
<filter id="filter53_f_18_80" x="180.495" y="18.7501" width="21.7119" height="15.8911" filterUnits="userSpaceOnUse" color-interpolation-filters="sRGB">
<feFlood flood-opacity="0" result="BackgroundImageFix"/>
<feBlend mode="normal" in="SourceGraphic" in2="BackgroundImageFix" result="shape"/>
<feGaussianBlur stdDeviation="2.5" result="effect1_foregroundBlur_18_80"/>
</filter>
</defs>
</svg>
