<svg width="493" height="384" viewBox="0 0 493 384" fill="none" xmlns="http://www.w3.org/2000/svg">
<g filter="url(#filter0_f_20_82)">
<ellipse cx="246.5" cy="186.5" rx="181.5" ry="138.5" fill="#69C8D5"/>
</g>
<path d="M244 388L250 274L282 280.5L267.5 388H244Z" fill="#98B5AC"/>
<rect x="168" y="108" width="157" height="128" rx="31" fill="#39383C"/>
<g filter="url(#filter1_f_20_82)">
<path d="M170 199C169.919 148.295 172.334 123.283 182.827 115.301C183.567 114.738 184.516 114.504 185.446 114.51C244.417 114.922 264.017 114.995 308.848 115.482C309.91 115.494 310.971 115.83 311.773 116.526C325.377 128.33 321.986 154.105 322.5 193.5" stroke="#FFFEFE" stroke-width="0.5"/>
</g>
<g filter="url(#filter2_i_20_82)">
<path d="M272.052 36.1557C260.648 47.1174 245.499 46.0678 216.559 42.6199C214.225 58.2538 211.636 65.7364 203.542 75.5283C180.249 67.8888 185.729 96.6837 208.338 94.3331C215.902 105.107 221.138 107.752 231.631 108.437V123.716C240.996 130.206 246.243 129.07 255.61 123.716V108.437C267.513 108.123 272.371 103.79 280.273 94.3331C304.252 92.5701 304.937 72.59 285.754 72.59C287.922 48.4118 283.087 42.8625 272.052 36.1557Z" fill="#EDC4A6"/>
</g>
<path d="M218.819 44.9074C217.617 62.6549 214.158 69.369 203.399 76.0838L198.259 73.8569C195.797 55.4766 196.328 48.8857 199.544 41.5671C201.266 38.9442 202.929 38.2777 207.254 38.7835C218.819 20.4117 252.23 18.1848 279.858 31.5461C289.902 41.3237 291.956 50.9966 290.78 73.8569C287.502 73.0826 285.808 73.0349 283.07 73.8569C286.106 57.0691 281.916 50.2401 272.79 38.7835C254.913 50.2265 242.539 49.9875 218.819 44.9074Z" fill="#6E5E5A"/>
<path d="M255.104 123.449C245.994 129.515 240.905 129.281 231.802 123.449H210.889C191.307 129.039 183.839 163.312 168.466 206.234C167.009 215.235 168.798 217.87 176.234 218.575H313.66C325.936 220.207 327.987 217.18 328 208.805C310.301 159.974 292.337 127.814 276.615 123.449H255.104Z" fill="#ECE8E3"/>
<g filter="url(#filter3_f_20_82)">
<path d="M232 123C241.909 129.857 246.881 129.473 255 123" stroke="black" stroke-width="0.2"/>
</g>
<g filter="url(#filter4_f_20_82)">
<path d="M308.5 164.5L326.5 208C327.175 210.747 327.143 211.937 326.5 213.5H307" stroke="#FFFBFB"/>
</g>
<rect x="187" y="129" width="121" height="76.3768" rx="4" fill="white"/>
<rect x="187" y="205.377" width="121" height="8.62319" rx="4.31159" fill="#9DA29F"/>
<rect x="25" y="214" width="435" height="11" rx="4" fill="#452323"/>
<rect x="168" y="251" width="157" height="25" rx="4" fill="#39383C"/>
<path d="M58 225H428V246C428 250.418 424.418 254 420 254H66C61.5817 254 58 250.418 58 246V225Z" fill="#745C5C"/>
<path d="M323.5 288L323.998 286.472C324.515 286.57 325 286.5 325 286.5L323.5 288Z" fill="#4B4641"/>
<path d="M192.788 275L202.75 275.876L184.969 455.159L179.324 454.662L192.788 275Z" fill="#848A83"/>
<path d="M73.7881 253L83.7496 253.876L65.969 433.159L60.3242 432.662L73.7881 253Z" fill="#745C5C"/>
<path d="M392.046 254.27L401.983 253.147L420.225 432.383L414.595 433.019L392.046 254.27Z" fill="#745C5C"/>
<path d="M287.205 271.813L297.152 270.787L313.641 450.193L308.005 450.775L287.205 271.813Z" fill="#848A83"/>
<rect x="132.5" y="192.5" width="14" height="16" rx="5.5" stroke="#989998" stroke-width="3"/>
<path d="M109.94 214.064C109.974 214.591 110.41 215 110.938 215H133.607C134.115 215 134.543 214.618 134.6 214.112L137.874 185.112C137.941 184.519 137.477 184 136.881 184H109.067C108.489 184 108.031 184.488 108.069 185.064L109.94 214.064Z" fill="#989998"/>
<rect x="58" y="33" width="56" height="33" rx="10" fill="#5D3DE8"/>
<rect x="30" y="96" width="65" height="33" rx="10" fill="#9949FF"/>
<rect x="323" y="16" width="65" height="33" rx="10" fill="#9949FF"/>
<path d="M41.8807 119V107.364H44.6932V112.034H49.2784V107.364H52.0852V119H49.2784V114.324H44.6932V119H41.8807ZM53.4688 109.648V107.364H63.304V109.648H59.7756V119H57.0028V109.648H53.4688ZM64.6776 107.364H68.1605L71.1151 114.568H71.2514L74.206 107.364H77.6889V119H74.9503V111.852H74.8537L72.0582 118.926H70.3082L67.5128 111.812H67.4162V119H64.6776V107.364ZM79.4432 119V107.364H82.2557V116.716H87.0966V119H79.4432Z" fill="white"/>
<path d="M66.2461 52.2915V49.1665L78.7461 43.6623V47.2578L70.1879 50.6935L70.3033 50.5071V50.951L70.1879 50.7646L78.7461 54.2003V57.7958L66.2461 52.2915ZM90.4205 38.9659L84.5611 60.7344H81.3029L87.1623 38.9659H90.4205ZM105.479 52.2915L92.9795 57.7958V54.2003L101.538 50.7646L101.422 50.951V50.5071L101.538 50.6935L92.9795 47.2578V43.6623L105.479 49.1665V52.2915Z" fill="white"/>
<rect x="379" y="137" width="54" height="34" rx="6" fill="#F45D78"/>
<path d="M400.874 152.652H397.678C397.635 152.324 397.548 152.028 397.415 151.763C397.283 151.499 397.109 151.273 396.891 151.086C396.674 150.898 396.416 150.756 396.118 150.658C395.824 150.555 395.498 150.504 395.14 150.504C394.505 150.504 393.957 150.66 393.497 150.971C393.041 151.282 392.69 151.732 392.442 152.32C392.2 152.908 392.078 153.619 392.078 154.455C392.078 155.324 392.202 156.053 392.449 156.641C392.7 157.224 393.052 157.665 393.504 157.964C393.96 158.258 394.499 158.405 395.121 158.405C395.47 158.405 395.788 158.36 396.073 158.271C396.363 158.181 396.616 158.051 396.834 157.881C397.055 157.706 397.237 157.495 397.377 157.248C397.522 156.996 397.622 156.713 397.678 156.398L400.874 156.417C400.818 156.996 400.65 157.567 400.369 158.13C400.092 158.692 399.71 159.206 399.224 159.67C398.739 160.131 398.146 160.497 397.447 160.77C396.753 161.043 395.956 161.179 395.057 161.179C393.872 161.179 392.811 160.919 391.874 160.399C390.94 159.875 390.203 159.112 389.662 158.111C389.121 157.109 388.85 155.891 388.85 154.455C388.85 153.014 389.125 151.793 389.675 150.792C390.224 149.79 390.968 149.03 391.906 148.51C392.843 147.99 393.893 147.73 395.057 147.73C395.849 147.73 396.582 147.841 397.256 148.062C397.929 148.28 398.521 148.599 399.033 149.021C399.544 149.439 399.96 149.952 400.279 150.562C400.599 151.171 400.797 151.868 400.874 152.652ZM409.76 151.834C409.718 151.365 409.528 151.001 409.191 150.741C408.859 150.477 408.384 150.344 407.766 150.344C407.357 150.344 407.016 150.398 406.743 150.504C406.47 150.611 406.266 150.758 406.129 150.945C405.993 151.129 405.923 151.339 405.919 151.578C405.91 151.774 405.948 151.947 406.034 152.096C406.123 152.245 406.251 152.377 406.417 152.492C406.588 152.603 406.792 152.701 407.031 152.786C407.269 152.871 407.538 152.946 407.836 153.01L408.961 153.266C409.609 153.406 410.18 153.594 410.674 153.828C411.173 154.062 411.59 154.342 411.927 154.665C412.268 154.989 412.526 155.362 412.7 155.784C412.875 156.206 412.965 156.679 412.969 157.203C412.965 158.03 412.756 158.739 412.343 159.332C411.929 159.924 411.335 160.378 410.559 160.693C409.788 161.009 408.857 161.166 407.766 161.166C406.671 161.166 405.716 161.002 404.902 160.674C404.088 160.346 403.455 159.847 403.004 159.178C402.552 158.509 402.32 157.663 402.307 156.641H405.337C405.362 157.062 405.475 157.414 405.676 157.695C405.876 157.977 406.151 158.19 406.5 158.335C406.854 158.479 407.263 158.552 407.727 158.552C408.154 158.552 408.516 158.494 408.814 158.379C409.117 158.264 409.349 158.104 409.511 157.9C409.673 157.695 409.756 157.461 409.76 157.197C409.756 156.95 409.679 156.739 409.53 156.564C409.381 156.385 409.151 156.232 408.84 156.104C408.533 155.972 408.141 155.85 407.664 155.739L406.296 155.42C405.162 155.16 404.269 154.74 403.617 154.161C402.965 153.577 402.642 152.788 402.646 151.795C402.642 150.986 402.859 150.276 403.298 149.667C403.737 149.058 404.344 148.582 405.119 148.241C405.895 147.901 406.779 147.73 407.772 147.73C408.786 147.73 409.666 147.903 410.412 148.248C411.162 148.589 411.744 149.068 412.157 149.686C412.57 150.304 412.781 151.02 412.79 151.834H409.76ZM421.643 151.834C421.6 151.365 421.411 151.001 421.074 150.741C420.742 150.477 420.267 150.344 419.649 150.344C419.24 150.344 418.899 150.398 418.626 150.504C418.353 150.611 418.149 150.758 418.012 150.945C417.876 151.129 417.806 151.339 417.801 151.578C417.793 151.774 417.831 151.947 417.916 152.096C418.006 152.245 418.134 152.377 418.3 152.492C418.47 152.603 418.675 152.701 418.914 152.786C419.152 152.871 419.421 152.946 419.719 153.01L420.844 153.266C421.492 153.406 422.063 153.594 422.557 153.828C423.056 154.062 423.473 154.342 423.81 154.665C424.151 154.989 424.409 155.362 424.583 155.784C424.758 156.206 424.847 156.679 424.852 157.203C424.847 158.03 424.639 158.739 424.225 159.332C423.812 159.924 423.218 160.378 422.442 160.693C421.671 161.009 420.74 161.166 419.649 161.166C418.553 161.166 417.599 161.002 416.785 160.674C415.971 160.346 415.338 159.847 414.887 159.178C414.435 158.509 414.203 157.663 414.19 156.641H417.22C417.245 157.062 417.358 157.414 417.558 157.695C417.759 157.977 418.034 158.19 418.383 158.335C418.737 158.479 419.146 158.552 419.61 158.552C420.036 158.552 420.399 158.494 420.697 158.379C420.999 158.264 421.232 158.104 421.394 157.9C421.556 157.695 421.639 157.461 421.643 157.197C421.639 156.95 421.562 156.739 421.413 156.564C421.264 156.385 421.034 156.232 420.722 156.104C420.416 155.972 420.024 155.85 419.546 155.739L418.178 155.42C417.045 155.16 416.152 154.74 415.5 154.161C414.848 153.577 414.524 152.788 414.529 151.795C414.524 150.986 414.742 150.276 415.181 149.667C415.619 149.058 416.227 148.582 417.002 148.241C417.778 147.901 418.662 147.73 419.655 147.73C420.669 147.73 421.549 147.903 422.295 148.248C423.045 148.589 423.627 149.068 424.04 149.686C424.453 150.304 424.664 151.02 424.673 151.834H421.643Z" fill="white"/>
<rect x="366" y="75" width="56" height="33" rx="6" fill="#5C3DDE"/>
<path d="M390.36 84.7273H394V95.2869C393.995 96.2763 393.759 97.1413 393.291 97.8821C392.824 98.6179 392.178 99.1896 391.352 99.5973C390.532 100.005 389.582 100.209 388.504 100.209C387.549 100.209 386.681 100.042 385.901 99.7092C385.125 99.3761 384.506 98.859 384.044 98.158C383.587 97.457 383.36 96.5597 383.365 95.4659H387.042C387.057 95.8587 387.131 96.1942 387.266 96.4727C387.405 96.7461 387.596 96.9524 387.84 97.0916C388.083 97.2308 388.374 97.3004 388.712 97.3004C389.065 97.3004 389.364 97.2259 389.607 97.0767C389.851 96.9226 390.035 96.6964 390.159 96.3981C390.288 96.0998 390.355 95.7294 390.36 95.2869V84.7273ZM404.572 89.3061C404.523 88.7592 404.301 88.3342 403.909 88.0309C403.521 87.7227 402.967 87.5685 402.246 87.5685C401.768 87.5685 401.371 87.6307 401.052 87.755C400.734 87.8793 400.496 88.0508 400.337 88.2695C400.177 88.4833 400.095 88.7294 400.09 89.0078C400.081 89.2365 400.125 89.4379 400.225 89.6119C400.329 89.7859 400.478 89.94 400.672 90.0742C400.871 90.2035 401.11 90.3178 401.388 90.4173C401.666 90.5167 401.98 90.6037 402.328 90.6783L403.64 90.9766C404.396 91.1406 405.062 91.3594 405.639 91.6328C406.22 91.9062 406.708 92.2319 407.1 92.6097C407.498 92.9876 407.799 93.4226 408.003 93.9148C408.207 94.407 408.311 94.9588 408.316 95.5703C408.311 96.5348 408.067 97.3626 407.585 98.0536C407.103 98.7447 406.409 99.2741 405.505 99.642C404.605 100.01 403.518 100.194 402.246 100.194C400.968 100.194 399.854 100.002 398.905 99.6197C397.955 99.2369 397.217 98.6552 396.69 97.8746C396.163 97.0941 395.892 96.1072 395.877 94.9141H399.412C399.442 95.4062 399.573 95.8164 399.807 96.1445C400.041 96.4727 400.361 96.7212 400.769 96.8903C401.182 97.0593 401.659 97.1438 402.201 97.1438C402.698 97.1438 403.121 97.0767 403.469 96.9425C403.822 96.8082 404.093 96.6218 404.282 96.3832C404.47 96.1445 404.567 95.8711 404.572 95.5629C404.567 95.2745 404.478 95.0284 404.304 94.8246C404.13 94.6158 403.861 94.4368 403.498 94.2876C403.141 94.1335 402.683 93.9918 402.126 93.8626L400.53 93.4897C399.208 93.1864 398.166 92.6967 397.406 92.0206C396.645 91.3395 396.267 90.4197 396.272 89.2614C396.267 88.3168 396.521 87.489 397.033 86.7781C397.545 86.0671 398.253 85.5128 399.158 85.1151C400.063 84.7173 401.095 84.5185 402.253 84.5185C403.436 84.5185 404.463 84.7198 405.333 85.1225C406.208 85.5202 406.887 86.0795 407.369 86.8004C407.851 87.5213 408.097 88.3565 408.107 89.3061H404.572Z" fill="white"/>
<path d="M329.881 39V27.3636H334.688C335.559 27.3636 336.311 27.5208 336.943 27.8352C337.58 28.1458 338.07 28.5928 338.415 29.1761C338.759 29.7557 338.932 30.4432 338.932 31.2386C338.932 32.0455 338.756 32.7311 338.403 33.2955C338.051 33.8561 337.551 34.2841 336.903 34.5795C336.256 34.8712 335.489 35.017 334.602 35.017H331.562V32.8011H334.08C334.504 32.8011 334.858 32.7462 335.142 32.6364C335.43 32.5227 335.648 32.3523 335.795 32.125C335.943 31.8939 336.017 31.5985 336.017 31.2386C336.017 30.8788 335.943 30.5814 335.795 30.3466C335.648 30.108 335.43 29.9299 335.142 29.8125C334.854 29.6913 334.5 29.6307 334.08 29.6307H332.693V39H329.881ZM336.432 33.6818L339.33 39H336.261L333.42 33.6818H336.432ZM340.474 39V27.3636H348.588V29.6477H343.287V32.0341H348.173V34.3239H343.287V36.7159H348.588V39H340.474ZM352.866 39H349.844L353.77 27.3636H357.514L361.44 39H358.418L355.685 30.2955H355.594L352.866 39ZM352.463 34.4205H358.781V36.5568H352.463V34.4205ZM372.709 31.5795H369.868C369.83 31.2879 369.752 31.0246 369.635 30.7898C369.518 30.5549 369.362 30.3542 369.169 30.1875C368.976 30.0208 368.747 29.8939 368.482 29.8068C368.22 29.7159 367.93 29.6705 367.612 29.6705C367.048 29.6705 366.561 29.8087 366.152 30.0852C365.747 30.3617 365.434 30.7614 365.214 31.2841C364.999 31.8068 364.891 32.4394 364.891 33.1818C364.891 33.9545 365 34.6023 365.22 35.125C365.444 35.6439 365.756 36.036 366.158 36.3011C366.563 36.5625 367.042 36.6932 367.595 36.6932C367.906 36.6932 368.188 36.6534 368.442 36.5739C368.699 36.4943 368.925 36.3788 369.118 36.2273C369.315 36.072 369.476 35.8845 369.601 35.6648C369.73 35.4413 369.819 35.1894 369.868 34.9091L372.709 34.9261C372.66 35.4413 372.51 35.9489 372.26 36.4489C372.014 36.9489 371.675 37.4053 371.243 37.8182C370.811 38.2273 370.285 38.553 369.663 38.7955C369.046 39.0379 368.338 39.1591 367.538 39.1591C366.485 39.1591 365.542 38.928 364.709 38.4659C363.879 38 363.224 37.322 362.743 36.4318C362.262 35.5417 362.021 34.4583 362.021 33.1818C362.021 31.9015 362.266 30.8163 362.754 29.9261C363.243 29.036 363.904 28.3598 364.737 27.8977C365.571 27.4356 366.504 27.2045 367.538 27.2045C368.243 27.2045 368.894 27.303 369.493 27.5C370.091 27.6932 370.618 27.9773 371.072 28.3523C371.527 28.7235 371.896 29.1799 372.18 29.7216C372.464 30.2633 372.641 30.8826 372.709 31.5795ZM373.938 29.6477V27.3636H383.773V29.6477H380.244V39H377.472V29.6477H373.938Z" fill="white"/>
<ellipse cx="233" cy="75.5" rx="3" ry="4.5" fill="#111111"/>
<ellipse cx="262" cy="75.5" rx="3" ry="4.5" fill="#111111"/>
<path d="M222.305 62.4139C222.26 61.7984 222.647 61.2318 223.241 61.0635C227.927 59.7352 231.01 59.6219 235.824 60.1705C236.454 60.2423 236.939 60.756 236.985 61.3883V61.3883C237.053 62.333 236.139 63.0418 235.226 62.7897C231.079 61.6444 228.202 61.7679 224.267 63.5391C223.398 63.9305 222.373 63.365 222.305 62.4139V62.4139Z" fill="#111111"/>
<path d="M258.315 61.4333C258.395 60.8215 258.888 60.3443 259.503 60.2988C264.361 59.9394 267.404 60.448 272.009 61.953C272.612 62.1499 272.984 62.7508 272.902 63.3794V63.3794C272.779 64.3185 271.741 64.8291 270.897 64.3986C267.065 62.4431 264.222 61.9859 260.011 62.9301C259.081 63.1387 258.191 62.3789 258.315 61.4333V61.4333Z" fill="#111111"/>
<rect x="253.5" y="65.5" width="26" height="18" rx="4.5" stroke="black"/>
<path d="M242 72C246.233 71.1026 248.629 71.115 253 72V74C248.701 72.7793 246.299 72.6975 242 74V72Z" fill="#0E0D0D"/>
<path d="M240 92.2122C240 91.134 241.62 90.6877 242.326 91.5027C245.866 95.5907 250.206 95.7123 253.737 91.5247C254.411 90.7254 256 91.1518 256 92.1973V92.1973C256 92.4815 255.875 92.7552 255.66 92.9413C249.511 98.27 246.022 98.4328 240.313 92.9484C240.114 92.7569 240 92.4886 240 92.2122V92.2122Z" fill="#CA6E6E"/>
<circle cx="246.5" cy="167.5" r="6.5" fill="#748A69"/>
<path d="M114 49H183C185.209 49 187 50.7909 187 53V118" stroke="#A2A6A2"/>
<path d="M329.999 270.5L329 275.288L328.226 274.956L329.999 270.5Z" fill="#4B4641"/>
<path d="M94.5 112.5H164C168.418 112.5 172 116.082 172 120.5V145C172 149.418 175.582 153 180 153H181" stroke="#A2A6A2"/>
<path d="M379.5 156.5H315.5M366.5 93H347C342.582 93 339 96.5817 339 101V130C339 134.418 335.418 138 331 138H315.5M322.5 30.5H311.5C307.082 30.5 303.5 34.0817 303.5 38.5V116" stroke="#A2A6A2"/>
<path d="M115.5 179.5C117.926 176.47 118.402 174.595 115.5 170.5C112.156 166.037 112.513 163.907 115.5 160.5C118.962 156.976 118.42 154.587 115.5 150" stroke="#918E8E"/>
<path d="M126 182C128.152 180.505 128.935 179.424 126 175C123.666 170.794 123.749 168.958 126 166.5" stroke="#918E8E"/>
<rect x="215.5" y="65.5" width="26" height="18" rx="4.5" stroke="black"/>
<path d="M291.546 254H190.046C188.581 264.044 222.096 271.622 323.546 288L330.046 270.5L291.546 254Z" fill="#96B3AA"/>
<g filter="url(#filter5_f_20_82)">
<path d="M171.5 255.5V271.511C171.5 271.783 171.717 272.005 171.989 272.011L237 273.5" stroke="#FFFCFC" stroke-width="0.5"/>
</g>
<path d="M328.255 275.002L335.165 277.451L331.155 288.762L324 286.5L328.255 275.002Z" fill="#E6C6A4"/>
<path d="M330 289L334.5 276L345 279.5L342 321C333.697 316.274 332.355 308.656 333 290.5L330 289Z" fill="#786A66"/>
<g filter="url(#filter6_f_20_82)">
<path d="M270.564 42.4471C270.13 41.8087 270.303 40.9342 270.954 40.5185V40.5185C271.62 40.0935 272.508 40.3259 272.886 41.0194C278.743 51.7735 279.295 52.9622 282.047 65.082C282.085 65.2514 282.083 65.4336 282.037 65.6011V65.6011C281.726 66.7357 280.02 66.5941 279.864 65.4281C278.623 56.1693 276.547 51.2388 270.564 42.4471Z" fill="#FFFEFE"/>
</g>
<g filter="url(#filter7_f_20_82)">
<path d="M219.168 46.5022C219.192 46.1668 219.442 45.8836 219.774 45.8276V45.8276C220.277 45.7427 220.709 46.1909 220.602 46.69C218.192 57.9743 215.321 63.6414 212.929 76.3244C212.85 76.7432 212.53 77.0817 212.114 77.1764V77.1764C211.23 77.3777 210.518 76.4553 210.94 75.6524C214.578 68.7171 218.048 62.0282 219.168 46.5022Z" fill="#FFFEFE"/>
</g>
<g filter="url(#filter8_f_20_82)">
<path d="M229.121 105.374C230.21 105.54 230.797 106.761 230.214 107.696V107.696C229.838 108.297 229.093 108.557 228.43 108.308C222.482 106.078 219.329 103.91 215.784 98.918C215.356 98.3159 215.469 97.4898 216.028 97.0066V97.0066C216.81 96.3296 218.028 96.6602 218.425 97.6156C220.729 103.155 223.406 104.504 229.121 105.374Z" fill="#AC926C"/>
</g>
<g filter="url(#filter9_f_20_82)">
<path d="M276.201 91.905C276.823 91.0402 278.095 90.981 278.781 91.7957V91.7957C279.322 92.4371 279.283 93.3879 278.688 93.979C272.241 100.383 267.722 103.538 259.58 106.583C258.717 106.906 257.767 106.415 257.516 105.528V105.528C257.252 104.596 257.876 103.647 258.832 103.485C267.805 101.966 271.04 99.0767 276.201 91.905Z" fill="white"/>
</g>
<g filter="url(#filter10_f_20_82)">
<path d="M231.639 103.651C232.69 103.826 233.306 104.94 232.88 105.917V105.917C232.544 106.685 231.675 107.072 230.881 106.8C222.285 103.854 217.455 101.2 211.119 95.2477C210.447 94.6168 210.468 93.5475 211.151 92.9297V92.9297C211.87 92.2796 212.998 92.4195 213.566 93.2049C218.9 100.578 222.924 102.199 231.639 103.651Z" fill="white"/>
</g>
<g filter="url(#filter11_f_20_82)">
<rect x="234" y="109" width="2" height="15" rx="1" fill="#FFFBFB"/>
</g>
<g filter="url(#filter12_f_20_82)">
<rect x="251" y="109" width="2" height="15" rx="1" fill="#FFFBFB"/>
</g>
<g filter="url(#filter13_f_20_82)">
<path d="M260.02 61.3356C260.029 61.2146 260.131 61.1211 260.253 61.1216C264.306 61.1393 266.579 61.7783 270.792 62.4663C270.911 62.4857 271 62.5885 271 62.7087V62.7087C271 62.8608 270.861 62.9757 270.711 62.9491C266.5 62.1994 264.352 61.5703 260.255 61.5872C260.119 61.5877 260.009 61.4718 260.02 61.3356V61.3356Z" fill="#D9D9D9"/>
</g>
<g filter="url(#filter14_f_20_82)">
<path d="M260.02 61.3356C260.029 61.2146 260.131 61.1211 260.253 61.1216C264.306 61.1393 266.579 61.7783 270.792 62.4663C270.911 62.4857 271 62.5885 271 62.7087V62.7087C271 62.8608 270.861 62.9757 270.711 62.9491C266.5 62.1994 264.352 61.5703 260.255 61.5872C260.119 61.5877 260.009 61.4718 260.02 61.3356V61.3356Z" fill="#D9D9D9"/>
</g>
<g filter="url(#filter15_f_20_82)">
<path d="M223.04 61.6654C223.025 61.5449 223.107 61.4329 223.226 61.4095C227.203 60.6253 229.557 60.8024 233.823 60.6436C233.943 60.6392 234.051 60.7223 234.074 60.8402V60.8402C234.104 60.9893 233.991 61.1294 233.839 61.1329C229.563 61.2308 227.333 61.0388 223.32 61.8653C223.187 61.8928 223.056 61.801 223.04 61.6654V61.6654Z" fill="#D9D9D9"/>
</g>
<g filter="url(#filter16_f_20_82)">
<path d="M240.5 92.4511C240.5 92.3097 240.685 92.2496 240.773 92.3602C244.529 97.0804 251.922 97.1677 255.271 92.8132C255.371 92.6836 255.277 92.5 255.113 92.5V92.5C255.043 92.5 254.977 92.5371 254.939 92.5963C251.856 97.4223 244.461 97.6829 240.53 92.5393C240.511 92.5141 240.5 92.4828 240.5 92.4511V92.4511Z" fill="white"/>
</g>
<g filter="url(#filter17_f_20_82)">
<ellipse cx="234.5" cy="77" rx="0.5" ry="1" fill="#FEFDFD"/>
</g>
<g filter="url(#filter18_f_20_82)">
<ellipse cx="260.5" cy="77" rx="0.5" ry="1" fill="#FEFDFD"/>
</g>
<g filter="url(#filter19_f_20_82)">
<path d="M186.113 159.277L186.851 159.819C180.71 179.969 167.697 210.771 169.14 213.546L168.36 213.462C166.378 210.834 178.695 180.424 186.113 159.277Z" fill="white"/>
</g>
<g filter="url(#filter20_f_20_82)">
<path d="M169 212.961C169 212.831 169.741 212.296 169.87 212.312C172.383 212.624 179.877 212.143 186.491 212.01C186.771 212.004 187 212.23 187 212.51V212.51C187 212.782 186.781 213.005 186.509 213.011C177.241 213.216 169.673 213.509 169.026 213.024C169.006 213.009 169 212.986 169 212.961V212.961Z" fill="white"/>
</g>
<g filter="url(#filter21_f_20_82)">
<path d="M205.5 128.5C206.32 127.345 207.119 126.601 208.496 125.983C210.414 125.121 212.561 124.973 214.662 124.919L223.297 124.698C228.339 124.568 233.201 126.115 237.959 127.788C241.558 129.053 244.634 129.256 247.85 128.352C253.245 126.834 258.496 124.5 264.1 124.5H271.353C274.756 124.5 278.338 124.8 281.065 126.836C281.668 127.286 282.294 127.824 283 128.5" stroke="#FFF9F9"/>
</g>
<g filter="url(#filter22_f_20_82)">
<path d="M199.907 76.4091C199.965 76.4336 200.034 76.4417 200.096 76.4292V76.4292C200.461 76.3562 200.411 75.8878 200.039 75.896C187.058 76.1803 188.116 85.9529 200.406 92.2457C200.965 92.5316 200.771 93.4484 200.144 93.4484V93.4484C200.05 93.4484 199.954 93.4239 199.871 93.3791C185.048 85.3844 187.028 71.0337 199.907 76.4091Z" fill="white"/>
</g>
<g filter="url(#filter23_f_20_82)">
<path d="M282.635 91.7697C282.248 91.6181 282 91.2333 282 90.8172V90.8172C282 90.1395 282.632 89.6373 283.3 89.7491C297.608 92.1427 298.254 80.2884 291.701 75.2902C291.393 75.0553 291.55 74.5 291.937 74.5V74.5C291.979 74.5 292.023 74.5078 292.062 74.5217C304.737 78.9772 294.362 96.3606 282.635 91.7697Z" fill="white"/>
</g>
<g filter="url(#filter24_f_20_82)">
<path d="M192.5 198.5V136C192.5 134.343 193.843 133 195.5 133H301.5C303.157 133 304.5 134.343 304.5 136V198.5C304.5 200.157 303.157 201.5 301.5 201.5H195.5C193.843 201.5 192.5 200.157 192.5 198.5Z" stroke="white" stroke-width="2"/>
</g>
<g filter="url(#filter25_f_20_82)">
<circle cx="247" cy="168" r="3.5" stroke="#FFFBFB"/>
</g>
<g filter="url(#filter26_f_20_82)">
<rect x="189" y="211" width="118" height="2" rx="1" fill="#FBFAFA"/>
</g>
<g filter="url(#filter27_f_20_82)">
<path d="M192.071 255.63C191.737 255.554 191.5 255.257 191.5 254.914V254.914C191.5 254.445 191.934 254.096 192.393 254.198L323.146 283.2C323.833 283.352 324.194 284.11 323.88 284.74V284.74C323.657 285.186 323.158 285.422 322.672 285.312L192.071 255.63Z" fill="white"/>
</g>
<g filter="url(#filter28_f_20_82)">
<path d="M286.457 254.311C286.296 254.24 286.19 254.082 286.185 253.906V253.906C286.175 253.57 286.518 253.339 286.826 253.474L328.157 271.631C328.402 271.739 328.519 272.021 328.42 272.271V272.271C328.316 272.535 328.014 272.659 327.754 272.544L286.457 254.311Z" fill="white"/>
</g>
<g filter="url(#filter29_f_20_82)">
<rect x="252.745" y="277.576" width="2" height="111.394" rx="1" transform="rotate(2.7386 252.745 277.576)" fill="#FFFBFB"/>
</g>
<g filter="url(#filter30_f_20_82)">
<path d="M275.346 282.637C275.394 282.23 275.723 281.914 276.132 281.881V281.881C276.671 281.838 277.115 282.299 277.054 282.836L265.129 386.521C265.074 386.996 264.691 387.366 264.215 387.404V387.404C263.586 387.453 263.069 386.916 263.143 386.29L275.346 282.637Z" fill="#FFFCFC"/>
</g>
<g filter="url(#filter31_f_20_82)">
<path d="M328.945 275L333.705 276.978C334.195 277.182 334.441 277.733 334.265 278.234L331.279 286.721C331.093 287.25 330.508 287.523 329.983 287.324L325 285.442" stroke="#FFFBFB" stroke-width="0.5"/>
</g>
<g filter="url(#filter32_f_20_82)">
<path d="M299 255H318.5C320.157 255 321.5 256.343 321.5 258V265.5" stroke="#FFFCFC" stroke-width="0.5"/>
</g>
<g filter="url(#filter33_f_20_82)">
<path d="M28.5 221.5H456.5" stroke="#FFFCFC"/>
</g>
<g filter="url(#filter34_f_20_82)">
<path d="M63 227.5V244C63 246.761 65.2386 249 68 249H418C420.761 249 423 246.761 423 244V229.5" stroke="#FFFEFE"/>
</g>
<g filter="url(#filter35_f_20_82)">
<path d="M335 290.5C334.239 308.391 334.973 315.53 340 319" stroke="#FFFEFE"/>
</g>
<g filter="url(#filter36_f_20_82)">
<path d="M80.5 256L68.5 389.5M395.5 256L413 389.5" stroke="#FFFEFE"/>
</g>
<g filter="url(#filter37_f_20_82)">
<path d="M199.5 277.5L188 388.5M292 284L302.5 388.5" stroke="#FFFEFE"/>
</g>
<g filter="url(#filter38_f_20_82)">
<path d="M33 111V121C33 123.761 35.2386 126 38 126H60.5333M70.6476 99H87C89.7614 99 92 101.239 92 104V112.846" stroke="#FFFEFE" stroke-width="0.5"/>
</g>
<g filter="url(#filter39_f_20_82)">
<path d="M61 48V58C61 60.7614 63.2386 63 66 63H83.8667M92.2667 36H105C107.761 36 110 38.2386 110 41V49.8462" stroke="#FFFEFE" stroke-width="0.5"/>
</g>
<g filter="url(#filter40_f_20_82)">
<path d="M327 30.1111V39C327 41.7614 329.239 44 332 44H354.067M364.01 19H380C382.761 19 385 21.2386 385 24V31.8205" stroke="#FFFEFE" stroke-width="0.5"/>
</g>
<g filter="url(#filter41_f_20_82)">
<path d="M369 90V100C369 102.761 371.239 105 374 105H392.333M400.905 78H414C416.761 78 419 80.2386 419 83V91.8462" stroke="#FFFEFE" stroke-width="0.5"/>
</g>
<g filter="url(#filter42_f_20_82)">
<path d="M383 153V163C383 165.761 385.239 168 388 168H404.933M412.99 141H425C427.761 141 430 143.239 430 146V154.846" stroke="#FFFEFE" stroke-width="0.5"/>
</g>
<g filter="url(#filter43_f_20_82)">
<path d="M117.5 186.5V212.5" stroke="#FFFEFE" stroke-width="0.5"/>
</g>
<g filter="url(#filter44_f_20_82)">
<path d="M215.249 40.4241C214.714 41.295 213.648 41.7272 212.691 41.3683V41.3683C211.5 40.9218 211.025 39.4866 211.843 38.5125C226.353 21.2167 272.635 23.9115 285.289 42.583C285.625 43.0792 285.447 43.7447 284.926 44.0421V44.0421C284.466 44.305 283.887 44.1931 283.547 43.7868C268.516 25.8479 227.044 21.2275 215.249 40.4241Z" fill="#4E3E3E"/>
</g>
<g filter="url(#filter45_f_20_82)">
<path d="M218.91 41.9103C218.621 41.6207 218.877 41.1298 219.282 41.1889C241.663 44.4495 253.286 44.1215 269.896 35.8046C270.254 35.6256 270.691 35.6913 270.974 35.9739V35.9739C271.452 36.4517 271.269 37.2652 270.633 37.4943C253.772 43.5719 242.416 46.8579 219.126 42.0262C219.045 42.0094 218.969 41.9688 218.91 41.9103V41.9103Z" fill="#554544"/>
</g>
<g filter="url(#filter46_f_20_82)">
<path d="M211 40C208.885 39.6201 207.489 39.5105 205.828 39.7007C204.64 39.8366 203.58 40.5085 202.906 41.4952C198.815 47.4817 197.816 54.284 200 73" stroke="#4E3F3F" stroke-width="0.5"/>
</g>
<g filter="url(#filter47_f_20_82)">
<path d="M118.5 230V240C118.5 246.075 123.425 251 129.5 251H366C372.075 251 377 246.075 377 240V231" stroke="#C6BFBF" stroke-width="0.5"/>
</g>
<g filter="url(#filter48_f_20_82)">
<path d="M231 108C240.589 109.749 246.024 110.131 256 108V109.034C246.458 110.469 240.934 110.166 231 109.034V108Z" fill="#C3836E"/>
</g>
<g filter="url(#filter49_f_20_82)">
<path d="M196.026 78.915C196.46 78.3279 197.157 78 197.887 78V78C200.072 78 200.921 80.7636 200.516 82.9109C200.445 83.2871 200.433 83.6579 200.478 84.0286C200.743 86.181 199.952 89 197.783 89V89C197.115 89 196.471 88.7203 196.048 88.2027C193.282 84.8198 193.36 82.5295 196.026 78.915Z" fill="#D8AD8E"/>
</g>
<g filter="url(#filter50_f_20_82)">
<path d="M291.029 87.5743C290.49 88.0663 289.742 88.2528 289.027 88.1115V88.1115C286.883 87.6881 286.586 84.8125 287.399 82.7842C287.541 82.4289 287.625 82.0674 287.652 81.6949C287.81 79.5321 289.132 76.9198 291.26 77.34V77.34C291.916 77.4695 292.493 77.8687 292.808 78.4584C294.865 82.313 294.346 84.545 291.029 87.5743Z" fill="#D8AD8E"/>
</g>
<g filter="url(#filter51_f_20_82)">
<rect x="251.4" y="276" width="30.9886" height="1.55917" transform="rotate(9.18804 251.4 276)" fill="#414945"/>
</g>
<g filter="url(#filter52_f_20_82)">
<path d="M263.666 73.9399C263.868 74.7433 264.326 76.3515 263.791 76.4863C263.255 76.6211 261.44 75.3034 261.238 74.5C261.036 73.6966 260.703 72.6231 261.238 72.4883C261.774 72.3536 263.464 73.1365 263.666 73.9399Z" fill="#FFFAFA"/>
</g>
<g filter="url(#filter53_f_20_82)">
<path d="M231.562 73.5641C232.209 73.0461 233.48 71.9602 233.826 72.3913C234.171 72.8223 233.727 75.021 233.081 75.5389C232.434 76.0568 231.597 76.8063 231.251 76.3753C230.906 75.9442 230.915 74.082 231.562 73.5641Z" fill="#D9D9D9"/>
</g>
<g filter="url(#filter54_f_20_82)">
<path d="M207.5 39C213.501 39.126 216.091 40.2467 219 44.5" stroke="#100F0F" stroke-width="0.5"/>
</g>
<defs>
<filter id="filter0_f_20_82" x="0" y="-17" width="493" height="407" filterUnits="userSpaceOnUse" color-interpolation-filters="sRGB">
<feFlood flood-opacity="0" result="BackgroundImageFix"/>
<feBlend mode="normal" in="SourceGraphic" in2="BackgroundImageFix" result="shape"/>
<feGaussianBlur stdDeviation="32.5" result="effect1_foregroundBlur_20_82"/>
</filter>
<filter id="filter1_f_20_82" x="164.748" y="109.26" width="163.03" height="94.7405" filterUnits="userSpaceOnUse" color-interpolation-filters="sRGB">
<feFlood flood-opacity="0" result="BackgroundImageFix"/>
<feBlend mode="normal" in="SourceGraphic" in2="BackgroundImageFix" result="shape"/>
<feGaussianBlur stdDeviation="2.5" result="effect1_foregroundBlur_20_82"/>
</filter>
<filter id="filter2_i_20_82" x="188.513" y="36.1557" width="110.769" height="96.012" filterUnits="userSpaceOnUse" color-interpolation-filters="sRGB">
<feFlood flood-opacity="0" result="BackgroundImageFix"/>
<feBlend mode="normal" in="SourceGraphic" in2="BackgroundImageFix" result="shape"/>
<feColorMatrix in="SourceAlpha" type="matrix" values="0 0 0 0 0 0 0 0 0 0 0 0 0 0 0 0 0 0 127 0" result="hardAlpha"/>
<feOffset dy="4"/>
<feGaussianBlur stdDeviation="2"/>
<feComposite in2="hardAlpha" operator="arithmetic" k2="-1" k3="1"/>
<feColorMatrix type="matrix" values="0 0 0 0 0.896667 0 0 0 0 0.755525 0 0 0 0 0.523056 0 0 0 1 0"/>
<feBlend mode="normal" in2="shape" result="effect1_innerShadow_20_82"/>
</filter>
<filter id="filter3_f_20_82" x="229.943" y="120.918" width="27.1196" height="9.18224" filterUnits="userSpaceOnUse" color-interpolation-filters="sRGB">
<feFlood flood-opacity="0" result="BackgroundImageFix"/>
<feBlend mode="normal" in="SourceGraphic" in2="BackgroundImageFix" result="shape"/>
<feGaussianBlur stdDeviation="1" result="effect1_foregroundBlur_20_82"/>
</filter>
<filter id="filter4_f_20_82" x="305" y="162.309" width="24.4941" height="53.6912" filterUnits="userSpaceOnUse" color-interpolation-filters="sRGB">
<feFlood flood-opacity="0" result="BackgroundImageFix"/>
<feBlend mode="normal" in="SourceGraphic" in2="BackgroundImageFix" result="shape"/>
<feGaussianBlur stdDeviation="1" result="effect1_foregroundBlur_20_82"/>
</filter>
<filter id="filter5_f_20_82" x="166.25" y="250.5" width="75.7559" height="28.2499" filterUnits="userSpaceOnUse" color-interpolation-filters="sRGB">
<feFlood flood-opacity="0" result="BackgroundImageFix"/>
<feBlend mode="normal" in="SourceGraphic" in2="BackgroundImageFix" result="shape"/>
<feGaussianBlur stdDeviation="2.5" result="effect1_foregroundBlur_20_82"/>
</filter>
<filter id="filter6_f_20_82" x="262.325" y="32.3053" width="27.7485" height="42.0761" filterUnits="userSpaceOnUse" color-interpolation-filters="sRGB">
<feFlood flood-opacity="0" result="BackgroundImageFix"/>
<feBlend mode="normal" in="SourceGraphic" in2="BackgroundImageFix" result="shape"/>
<feGaussianBlur stdDeviation="4" result="effect1_foregroundBlur_20_82"/>
</filter>
<filter id="filter7_f_20_82" x="205.815" y="40.8172" width="19.8027" height="41.3872" filterUnits="userSpaceOnUse" color-interpolation-filters="sRGB">
<feFlood flood-opacity="0" result="BackgroundImageFix"/>
<feBlend mode="normal" in="SourceGraphic" in2="BackgroundImageFix" result="shape"/>
<feGaussianBlur stdDeviation="2.5" result="effect1_foregroundBlur_20_82"/>
</filter>
<filter id="filter8_f_20_82" x="208.524" y="89.6494" width="28.9194" height="25.7527" filterUnits="userSpaceOnUse" color-interpolation-filters="sRGB">
<feFlood flood-opacity="0" result="BackgroundImageFix"/>
<feBlend mode="normal" in="SourceGraphic" in2="BackgroundImageFix" result="shape"/>
<feGaussianBlur stdDeviation="3.5" result="effect1_foregroundBlur_20_82"/>
</filter>
<filter id="filter9_f_20_82" x="250.455" y="84.219" width="35.707" height="29.464" filterUnits="userSpaceOnUse" color-interpolation-filters="sRGB">
<feFlood flood-opacity="0" result="BackgroundImageFix"/>
<feBlend mode="normal" in="SourceGraphic" in2="BackgroundImageFix" result="shape"/>
<feGaussianBlur stdDeviation="3.5" result="effect1_foregroundBlur_20_82"/>
</filter>
<filter id="filter10_f_20_82" x="203.627" y="85.5178" width="36.3896" height="28.369" filterUnits="userSpaceOnUse" color-interpolation-filters="sRGB">
<feFlood flood-opacity="0" result="BackgroundImageFix"/>
<feBlend mode="normal" in="SourceGraphic" in2="BackgroundImageFix" result="shape"/>
<feGaussianBlur stdDeviation="3.5" result="effect1_foregroundBlur_20_82"/>
</filter>
<filter id="filter11_f_20_82" x="230" y="105" width="10" height="23" filterUnits="userSpaceOnUse" color-interpolation-filters="sRGB">
<feFlood flood-opacity="0" result="BackgroundImageFix"/>
<feBlend mode="normal" in="SourceGraphic" in2="BackgroundImageFix" result="shape"/>
<feGaussianBlur stdDeviation="2" result="effect1_foregroundBlur_20_82"/>
</filter>
<filter id="filter12_f_20_82" x="247" y="105" width="10" height="23" filterUnits="userSpaceOnUse" color-interpolation-filters="sRGB">
<feFlood flood-opacity="0" result="BackgroundImageFix"/>
<feBlend mode="normal" in="SourceGraphic" in2="BackgroundImageFix" result="shape"/>
<feGaussianBlur stdDeviation="2" result="effect1_foregroundBlur_20_82"/>
</filter>
<filter id="filter13_f_20_82" x="258.519" y="59.6216" width="13.981" height="4.83134" filterUnits="userSpaceOnUse" color-interpolation-filters="sRGB">
<feFlood flood-opacity="0" result="BackgroundImageFix"/>
<feBlend mode="normal" in="SourceGraphic" in2="BackgroundImageFix" result="shape"/>
<feGaussianBlur stdDeviation="0.75" result="effect1_foregroundBlur_20_82"/>
</filter>
<filter id="filter14_f_20_82" x="258.519" y="59.6216" width="13.981" height="4.83134" filterUnits="userSpaceOnUse" color-interpolation-filters="sRGB">
<feFlood flood-opacity="0" result="BackgroundImageFix"/>
<feBlend mode="normal" in="SourceGraphic" in2="BackgroundImageFix" result="shape"/>
<feGaussianBlur stdDeviation="0.75" result="effect1_foregroundBlur_20_82"/>
</filter>
<filter id="filter15_f_20_82" x="221.538" y="59.1435" width="14.0415" height="4.2267" filterUnits="userSpaceOnUse" color-interpolation-filters="sRGB">
<feFlood flood-opacity="0" result="BackgroundImageFix"/>
<feBlend mode="normal" in="SourceGraphic" in2="BackgroundImageFix" result="shape"/>
<feGaussianBlur stdDeviation="0.75" result="effect1_foregroundBlur_20_82"/>
</filter>
<filter id="filter16_f_20_82" x="239.5" y="91.3029" width="16.812" height="6.00386" filterUnits="userSpaceOnUse" color-interpolation-filters="sRGB">
<feFlood flood-opacity="0" result="BackgroundImageFix"/>
<feBlend mode="normal" in="SourceGraphic" in2="BackgroundImageFix" result="shape"/>
<feGaussianBlur stdDeviation="0.5" result="effect1_foregroundBlur_20_82"/>
</filter>
<filter id="filter17_f_20_82" x="233" y="75" width="3" height="4" filterUnits="userSpaceOnUse" color-interpolation-filters="sRGB">
<feFlood flood-opacity="0" result="BackgroundImageFix"/>
<feBlend mode="normal" in="SourceGraphic" in2="BackgroundImageFix" result="shape"/>
<feGaussianBlur stdDeviation="0.5" result="effect1_foregroundBlur_20_82"/>
</filter>
<filter id="filter18_f_20_82" x="259" y="75" width="3" height="4" filterUnits="userSpaceOnUse" color-interpolation-filters="sRGB">
<feFlood flood-opacity="0" result="BackgroundImageFix"/>
<feBlend mode="normal" in="SourceGraphic" in2="BackgroundImageFix" result="shape"/>
<feGaussianBlur stdDeviation="0.5" result="effect1_foregroundBlur_20_82"/>
</filter>
<filter id="filter19_f_20_82" x="166.147" y="157.277" width="22.7036" height="58.2692" filterUnits="userSpaceOnUse" color-interpolation-filters="sRGB">
<feFlood flood-opacity="0" result="BackgroundImageFix"/>
<feBlend mode="normal" in="SourceGraphic" in2="BackgroundImageFix" result="shape"/>
<feGaussianBlur stdDeviation="1" result="effect1_foregroundBlur_20_82"/>
</filter>
<filter id="filter20_f_20_82" x="167" y="210.009" width="22" height="5.27853" filterUnits="userSpaceOnUse" color-interpolation-filters="sRGB">
<feFlood flood-opacity="0" result="BackgroundImageFix"/>
<feBlend mode="normal" in="SourceGraphic" in2="BackgroundImageFix" result="shape"/>
<feGaussianBlur stdDeviation="1" result="effect1_foregroundBlur_20_82"/>
</filter>
<filter id="filter21_f_20_82" x="203.092" y="122" width="82.2534" height="9.40892" filterUnits="userSpaceOnUse" color-interpolation-filters="sRGB">
<feFlood flood-opacity="0" result="BackgroundImageFix"/>
<feBlend mode="normal" in="SourceGraphic" in2="BackgroundImageFix" result="shape"/>
<feGaussianBlur stdDeviation="1" result="effect1_foregroundBlur_20_82"/>
</filter>
<filter id="filter22_f_20_82" x="185.487" y="71.2336" width="19.249" height="26.2149" filterUnits="userSpaceOnUse" color-interpolation-filters="sRGB">
<feFlood flood-opacity="0" result="BackgroundImageFix"/>
<feBlend mode="normal" in="SourceGraphic" in2="BackgroundImageFix" result="shape"/>
<feGaussianBlur stdDeviation="2" result="effect1_foregroundBlur_20_82"/>
</filter>
<filter id="filter23_f_20_82" x="275" y="67.5" width="29.8608" height="32.0348" filterUnits="userSpaceOnUse" color-interpolation-filters="sRGB">
<feFlood flood-opacity="0" result="BackgroundImageFix"/>
<feBlend mode="normal" in="SourceGraphic" in2="BackgroundImageFix" result="shape"/>
<feGaussianBlur stdDeviation="3.5" result="effect1_foregroundBlur_20_82"/>
</filter>
<filter id="filter24_f_20_82" x="188.5" y="129" width="120" height="76.5" filterUnits="userSpaceOnUse" color-interpolation-filters="sRGB">
<feFlood flood-opacity="0" result="BackgroundImageFix"/>
<feBlend mode="normal" in="SourceGraphic" in2="BackgroundImageFix" result="shape"/>
<feGaussianBlur stdDeviation="1.5" result="effect1_foregroundBlur_20_82"/>
</filter>
<filter id="filter25_f_20_82" x="238" y="159" width="18" height="18" filterUnits="userSpaceOnUse" color-interpolation-filters="sRGB">
<feFlood flood-opacity="0" result="BackgroundImageFix"/>
<feBlend mode="normal" in="SourceGraphic" in2="BackgroundImageFix" result="shape"/>
<feGaussianBlur stdDeviation="2.5" result="effect1_foregroundBlur_20_82"/>
</filter>
<filter id="filter26_f_20_82" x="185" y="207" width="126" height="10" filterUnits="userSpaceOnUse" color-interpolation-filters="sRGB">
<feFlood flood-opacity="0" result="BackgroundImageFix"/>
<feBlend mode="normal" in="SourceGraphic" in2="BackgroundImageFix" result="shape"/>
<feGaussianBlur stdDeviation="2" result="effect1_foregroundBlur_20_82"/>
</filter>
<filter id="filter27_f_20_82" x="183.5" y="246.18" width="148.495" height="47.1585" filterUnits="userSpaceOnUse" color-interpolation-filters="sRGB">
<feFlood flood-opacity="0" result="BackgroundImageFix"/>
<feBlend mode="normal" in="SourceGraphic" in2="BackgroundImageFix" result="shape"/>
<feGaussianBlur stdDeviation="4" result="effect1_foregroundBlur_20_82"/>
</filter>
<filter id="filter28_f_20_82" x="280.185" y="247.435" width="54.2705" height="31.152" filterUnits="userSpaceOnUse" color-interpolation-filters="sRGB">
<feFlood flood-opacity="0" result="BackgroundImageFix"/>
<feBlend mode="normal" in="SourceGraphic" in2="BackgroundImageFix" result="shape"/>
<feGaussianBlur stdDeviation="3" result="effect1_foregroundBlur_20_82"/>
</filter>
<filter id="filter29_f_20_82" x="239.469" y="269.623" width="23.2271" height="127.269" filterUnits="userSpaceOnUse" color-interpolation-filters="sRGB">
<feFlood flood-opacity="0" result="BackgroundImageFix"/>
<feBlend mode="normal" in="SourceGraphic" in2="BackgroundImageFix" result="shape"/>
<feGaussianBlur stdDeviation="4" result="effect1_foregroundBlur_20_82"/>
</filter>
<filter id="filter30_f_20_82" x="255.136" y="273.878" width="29.9238" height="121.528" filterUnits="userSpaceOnUse" color-interpolation-filters="sRGB">
<feFlood flood-opacity="0" result="BackgroundImageFix"/>
<feBlend mode="normal" in="SourceGraphic" in2="BackgroundImageFix" result="shape"/>
<feGaussianBlur stdDeviation="4" result="effect1_foregroundBlur_20_82"/>
</filter>
<filter id="filter31_f_20_82" x="322.912" y="272.769" width="13.6602" height="16.8701" filterUnits="userSpaceOnUse" color-interpolation-filters="sRGB">
<feFlood flood-opacity="0" result="BackgroundImageFix"/>
<feBlend mode="normal" in="SourceGraphic" in2="BackgroundImageFix" result="shape"/>
<feGaussianBlur stdDeviation="1" result="effect1_foregroundBlur_20_82"/>
</filter>
<filter id="filter32_f_20_82" x="295" y="250.75" width="30.75" height="18.75" filterUnits="userSpaceOnUse" color-interpolation-filters="sRGB">
<feFlood flood-opacity="0" result="BackgroundImageFix"/>
<feBlend mode="normal" in="SourceGraphic" in2="BackgroundImageFix" result="shape"/>
<feGaussianBlur stdDeviation="2" result="effect1_foregroundBlur_20_82"/>
</filter>
<filter id="filter33_f_20_82" x="22.5" y="215" width="440" height="13" filterUnits="userSpaceOnUse" color-interpolation-filters="sRGB">
<feFlood flood-opacity="0" result="BackgroundImageFix"/>
<feBlend mode="normal" in="SourceGraphic" in2="BackgroundImageFix" result="shape"/>
<feGaussianBlur stdDeviation="3" result="effect1_foregroundBlur_20_82"/>
</filter>
<filter id="filter34_f_20_82" x="52.5" y="217.5" width="381" height="42" filterUnits="userSpaceOnUse" color-interpolation-filters="sRGB">
<feFlood flood-opacity="0" result="BackgroundImageFix"/>
<feBlend mode="normal" in="SourceGraphic" in2="BackgroundImageFix" result="shape"/>
<feGaussianBlur stdDeviation="5" result="effect1_foregroundBlur_20_82"/>
</filter>
<filter id="filter35_f_20_82" x="332.244" y="288.479" width="10.0396" height="32.9327" filterUnits="userSpaceOnUse" color-interpolation-filters="sRGB">
<feFlood flood-opacity="0" result="BackgroundImageFix"/>
<feBlend mode="normal" in="SourceGraphic" in2="BackgroundImageFix" result="shape"/>
<feGaussianBlur stdDeviation="1" result="effect1_foregroundBlur_20_82"/>
</filter>
<filter id="filter36_f_20_82" x="64.002" y="251.935" width="353.494" height="141.63" filterUnits="userSpaceOnUse" color-interpolation-filters="sRGB">
<feFlood flood-opacity="0" result="BackgroundImageFix"/>
<feBlend mode="normal" in="SourceGraphic" in2="BackgroundImageFix" result="shape"/>
<feGaussianBlur stdDeviation="2" result="effect1_foregroundBlur_20_82"/>
</filter>
<filter id="filter37_f_20_82" x="183.502" y="273.448" width="123.495" height="119.103" filterUnits="userSpaceOnUse" color-interpolation-filters="sRGB">
<feFlood flood-opacity="0" result="BackgroundImageFix"/>
<feBlend mode="normal" in="SourceGraphic" in2="BackgroundImageFix" result="shape"/>
<feGaussianBlur stdDeviation="2" result="effect1_foregroundBlur_20_82"/>
</filter>
<filter id="filter38_f_20_82" x="29.75" y="95.75" width="65.5" height="33.5" filterUnits="userSpaceOnUse" color-interpolation-filters="sRGB">
<feFlood flood-opacity="0" result="BackgroundImageFix"/>
<feBlend mode="normal" in="SourceGraphic" in2="BackgroundImageFix" result="shape"/>
<feGaussianBlur stdDeviation="1.5" result="effect1_foregroundBlur_20_82"/>
</filter>
<filter id="filter39_f_20_82" x="57.75" y="32.75" width="55.5" height="33.5" filterUnits="userSpaceOnUse" color-interpolation-filters="sRGB">
<feFlood flood-opacity="0" result="BackgroundImageFix"/>
<feBlend mode="normal" in="SourceGraphic" in2="BackgroundImageFix" result="shape"/>
<feGaussianBlur stdDeviation="1.5" result="effect1_foregroundBlur_20_82"/>
</filter>
<filter id="filter40_f_20_82" x="323.75" y="15.75" width="64.5" height="31.5" filterUnits="userSpaceOnUse" color-interpolation-filters="sRGB">
<feFlood flood-opacity="0" result="BackgroundImageFix"/>
<feBlend mode="normal" in="SourceGraphic" in2="BackgroundImageFix" result="shape"/>
<feGaussianBlur stdDeviation="1.5" result="effect1_foregroundBlur_20_82"/>
</filter>
<filter id="filter41_f_20_82" x="365.75" y="74.75" width="56.5" height="33.5" filterUnits="userSpaceOnUse" color-interpolation-filters="sRGB">
<feFlood flood-opacity="0" result="BackgroundImageFix"/>
<feBlend mode="normal" in="SourceGraphic" in2="BackgroundImageFix" result="shape"/>
<feGaussianBlur stdDeviation="1.5" result="effect1_foregroundBlur_20_82"/>
</filter>
<filter id="filter42_f_20_82" x="379.75" y="137.75" width="53.5" height="33.5" filterUnits="userSpaceOnUse" color-interpolation-filters="sRGB">
<feFlood flood-opacity="0" result="BackgroundImageFix"/>
<feBlend mode="normal" in="SourceGraphic" in2="BackgroundImageFix" result="shape"/>
<feGaussianBlur stdDeviation="1.5" result="effect1_foregroundBlur_20_82"/>
</filter>
<filter id="filter43_f_20_82" x="113.25" y="182.5" width="8.5" height="34" filterUnits="userSpaceOnUse" color-interpolation-filters="sRGB">
<feFlood flood-opacity="0" result="BackgroundImageFix"/>
<feBlend mode="normal" in="SourceGraphic" in2="BackgroundImageFix" result="shape"/>
<feGaussianBlur stdDeviation="2" result="effect1_foregroundBlur_20_82"/>
</filter>
<filter id="filter44_f_20_82" x="200.435" y="15.9411" width="96.0254" height="39.243" filterUnits="userSpaceOnUse" color-interpolation-filters="sRGB">
<feFlood flood-opacity="0" result="BackgroundImageFix"/>
<feBlend mode="normal" in="SourceGraphic" in2="BackgroundImageFix" result="shape"/>
<feGaussianBlur stdDeviation="5.5" result="effect1_foregroundBlur_20_82"/>
</filter>
<filter id="filter45_f_20_82" x="211.786" y="28.705" width="66.4575" height="22.6443" filterUnits="userSpaceOnUse" color-interpolation-filters="sRGB">
<feFlood flood-opacity="0" result="BackgroundImageFix"/>
<feBlend mode="normal" in="SourceGraphic" in2="BackgroundImageFix" result="shape"/>
<feGaussianBlur stdDeviation="3.5" result="effect1_foregroundBlur_20_82"/>
</filter>
<filter id="filter46_f_20_82" x="196.623" y="37.3593" width="16.4219" height="37.6697" filterUnits="userSpaceOnUse" color-interpolation-filters="sRGB">
<feFlood flood-opacity="0" result="BackgroundImageFix"/>
<feBlend mode="normal" in="SourceGraphic" in2="BackgroundImageFix" result="shape"/>
<feGaussianBlur stdDeviation="1" result="effect1_foregroundBlur_20_82"/>
</filter>
<filter id="filter47_f_20_82" x="112.25" y="224" width="271" height="33.25" filterUnits="userSpaceOnUse" color-interpolation-filters="sRGB">
<feFlood flood-opacity="0" result="BackgroundImageFix"/>
<feBlend mode="normal" in="SourceGraphic" in2="BackgroundImageFix" result="shape"/>
<feGaussianBlur stdDeviation="3" result="effect1_foregroundBlur_20_82"/>
</filter>
<filter id="filter48_f_20_82" x="228" y="105" width="31" height="8" filterUnits="userSpaceOnUse" color-interpolation-filters="sRGB">
<feFlood flood-opacity="0" result="BackgroundImageFix"/>
<feBlend mode="normal" in="SourceGraphic" in2="BackgroundImageFix" result="shape"/>
<feGaussianBlur stdDeviation="1.5" result="effect1_foregroundBlur_20_82"/>
</filter>
<filter id="filter49_f_20_82" x="188" y="72" width="18.6138" height="23" filterUnits="userSpaceOnUse" color-interpolation-filters="sRGB">
<feFlood flood-opacity="0" result="BackgroundImageFix"/>
<feBlend mode="normal" in="SourceGraphic" in2="BackgroundImageFix" result="shape"/>
<feGaussianBlur stdDeviation="3" result="effect1_foregroundBlur_20_82"/>
</filter>
<filter id="filter50_f_20_82" x="280.983" y="71.2951" width="19.0435" height="22.8623" filterUnits="userSpaceOnUse" color-interpolation-filters="sRGB">
<feFlood flood-opacity="0" result="BackgroundImageFix"/>
<feBlend mode="normal" in="SourceGraphic" in2="BackgroundImageFix" result="shape"/>
<feGaussianBlur stdDeviation="3" result="effect1_foregroundBlur_20_82"/>
</filter>
<filter id="filter51_f_20_82" x="247.151" y="272" width="38.8398" height="14.4873" filterUnits="userSpaceOnUse" color-interpolation-filters="sRGB">
<feFlood flood-opacity="0" result="BackgroundImageFix"/>
<feBlend mode="normal" in="SourceGraphic" in2="BackgroundImageFix" result="shape"/>
<feGaussianBlur stdDeviation="2" result="effect1_foregroundBlur_20_82"/>
</filter>
<filter id="filter52_f_20_82" x="254.949" y="66.4731" width="15.0928" height="16.0228" filterUnits="userSpaceOnUse" color-interpolation-filters="sRGB">
<feFlood flood-opacity="0" result="BackgroundImageFix"/>
<feBlend mode="normal" in="SourceGraphic" in2="BackgroundImageFix" result="shape"/>
<feGaussianBlur stdDeviation="3" result="effect1_foregroundBlur_20_82"/>
</filter>
<filter id="filter53_f_20_82" x="226.025" y="67.2923" width="12.9214" height="14.2114" filterUnits="userSpaceOnUse" color-interpolation-filters="sRGB">
<feFlood flood-opacity="0" result="BackgroundImageFix"/>
<feBlend mode="normal" in="SourceGraphic" in2="BackgroundImageFix" result="shape"/>
<feGaussianBlur stdDeviation="2.5" result="effect1_foregroundBlur_20_82"/>
</filter>
<filter id="filter54_f_20_82" x="202.495" y="33.7501" width="21.7119" height="15.8911" filterUnits="userSpaceOnUse" color-interpolation-filters="sRGB">
<feFlood flood-opacity="0" result="BackgroundImageFix"/>
<feBlend mode="normal" in="SourceGraphic" in2="BackgroundImageFix" result="shape"/>
<feGaussianBlur stdDeviation="2.5" result="effect1_foregroundBlur_20_82"/>
</filter>
</defs>
</svg>
