<svg width="547" height="384" viewBox="0 0 547 384" fill="none" xmlns="http://www.w3.org/2000/svg">
<g filter="url(#filter0_f_20_83)">
<ellipse cx="261.5" cy="186.5" rx="181.5" ry="138.5" fill="#7EC5CE"/>
</g>
<path d="M259 388L265 274L297 280.5L282.5 388H259Z" fill="#98B5AC"/>
<rect x="183" y="108" width="157" height="128" rx="31" fill="#39383C"/>
<g filter="url(#filter1_f_20_83)">
<path d="M185 199C184.919 148.295 187.334 123.283 197.827 115.301C198.567 114.738 199.516 114.504 200.446 114.51C259.417 114.922 279.017 114.995 323.848 115.482C324.91 115.494 325.971 115.83 326.773 116.526C340.377 128.33 336.986 154.105 337.5 193.5" stroke="#FFFEFE" stroke-width="0.5"/>
</g>
<g filter="url(#filter2_i_20_83)">
<path d="M287.052 36.1557C275.648 47.1174 260.499 46.0678 231.559 42.6199C229.225 58.2538 226.636 65.7364 218.542 75.5283C195.249 67.8888 200.729 96.6837 223.338 94.3331C230.902 105.107 236.138 107.752 246.631 108.437V123.716C255.996 130.206 261.243 129.07 270.61 123.716V108.437C282.513 108.123 287.371 103.79 295.273 94.3331C319.252 92.5701 319.937 72.59 300.754 72.59C302.922 48.4118 298.087 42.8625 287.052 36.1557Z" fill="#EDC4A6"/>
</g>
<path d="M233.819 44.9074C232.617 62.6549 229.158 69.369 218.399 76.0838L213.259 73.8569C210.797 55.4766 211.328 48.8857 214.544 41.5671C216.266 38.9442 217.929 38.2777 222.254 38.7835C233.819 20.4117 267.23 18.1848 294.858 31.5461C304.902 41.3237 306.956 50.9966 305.78 73.8569C302.502 73.0826 300.808 73.0349 298.07 73.8569C301.106 57.0691 296.916 50.2401 287.79 38.7835C269.913 50.2265 257.539 49.9875 233.819 44.9074Z" fill="#6E5E5A"/>
<path d="M270.104 123.449C260.994 129.515 255.905 129.281 246.802 123.449H225.889C206.307 129.039 198.839 163.312 183.466 206.234C182.009 215.235 183.798 217.87 191.234 218.575H328.66C340.936 220.207 342.987 217.18 343 208.805C325.301 159.974 307.337 127.814 291.615 123.449H270.104Z" fill="#ECE8E3"/>
<g filter="url(#filter3_f_20_83)">
<path d="M247 123C256.909 129.857 261.881 129.473 270 123" stroke="black" stroke-width="0.2"/>
</g>
<g filter="url(#filter4_f_20_83)">
<path d="M323.5 164.5L341.5 208C342.175 210.747 342.143 211.937 341.5 213.5H322" stroke="#FFFBFB"/>
</g>
<rect x="202" y="129" width="121" height="76.3768" rx="4" fill="white"/>
<rect x="202" y="205.377" width="121" height="8.62319" rx="4.31159" fill="#9DA29F"/>
<rect x="40" y="214" width="435" height="11" rx="4" fill="#452323"/>
<rect x="183" y="251" width="157" height="25" rx="4" fill="#39383C"/>
<path d="M73 225H443V246C443 250.418 439.418 254 435 254H81C76.5817 254 73 250.418 73 246V225Z" fill="#745C5C"/>
<path d="M338.5 288L338.998 286.472C339.515 286.57 340 286.5 340 286.5L338.5 288Z" fill="#4B4641"/>
<path d="M207.788 275L217.75 275.876L199.969 455.159L194.324 454.662L207.788 275Z" fill="#848A83"/>
<path d="M88.7881 253L98.7496 253.876L80.969 433.159L75.3242 432.662L88.7881 253Z" fill="#745C5C"/>
<path d="M407.046 254.27L416.983 253.147L435.225 432.383L429.595 433.019L407.046 254.27Z" fill="#745C5C"/>
<path d="M302.205 271.813L312.152 270.787L328.641 450.193L323.005 450.775L302.205 271.813Z" fill="#848A83"/>
<rect x="147.5" y="192.5" width="14" height="16" rx="5.5" stroke="#989998" stroke-width="3"/>
<path d="M124.94 214.064C124.974 214.591 125.41 215 125.938 215H148.607C149.115 215 149.543 214.618 149.6 214.112L152.874 185.112C152.941 184.519 152.477 184 151.881 184H124.067C123.489 184 123.031 184.488 123.069 185.064L124.94 214.064Z" fill="#989998"/>
<rect x="73" y="33" width="56" height="33" rx="10" fill="#5D3DE8"/>
<rect x="45" y="96" width="65" height="33" rx="10" fill="#9949FF"/>
<rect x="338" y="16" width="65" height="33" rx="10" fill="#9949FF"/>
<path d="M56.8807 119V107.364H59.6932V112.034H64.2784V107.364H67.0852V119H64.2784V114.324H59.6932V119H56.8807ZM68.4688 109.648V107.364H78.304V109.648H74.7756V119H72.0028V109.648H68.4688ZM79.6776 107.364H83.1605L86.1151 114.568H86.2514L89.206 107.364H92.6889V119H89.9503V111.852H89.8537L87.0582 118.926H85.3082L82.5128 111.812H82.4162V119H79.6776V107.364ZM94.4432 119V107.364H97.2557V116.716H102.097V119H94.4432Z" fill="white"/>
<path d="M81.2461 52.2915V49.1665L93.7461 43.6623V47.2578L85.1879 50.6935L85.3033 50.5071V50.951L85.1879 50.7646L93.7461 54.2003V57.7958L81.2461 52.2915ZM105.42 38.9659L99.5611 60.7344H96.3029L102.162 38.9659H105.42ZM120.479 52.2915L107.979 57.7958V54.2003L116.538 50.7646L116.422 50.951V50.5071L116.538 50.6935L107.979 47.2578V43.6623L120.479 49.1665V52.2915Z" fill="white"/>
<rect x="394" y="137" width="54" height="34" rx="6" fill="#F45D78"/>
<path d="M415.874 152.652H412.678C412.635 152.324 412.548 152.028 412.415 151.763C412.283 151.499 412.109 151.273 411.891 151.086C411.674 150.898 411.416 150.756 411.118 150.658C410.824 150.555 410.498 150.504 410.14 150.504C409.505 150.504 408.957 150.66 408.497 150.971C408.041 151.282 407.69 151.732 407.442 152.32C407.2 152.908 407.078 153.619 407.078 154.455C407.078 155.324 407.202 156.053 407.449 156.641C407.7 157.224 408.052 157.665 408.504 157.964C408.96 158.258 409.499 158.405 410.121 158.405C410.47 158.405 410.788 158.36 411.073 158.271C411.363 158.181 411.616 158.051 411.834 157.881C412.055 157.706 412.237 157.495 412.377 157.248C412.522 156.996 412.622 156.713 412.678 156.398L415.874 156.417C415.818 156.996 415.65 157.567 415.369 158.13C415.092 158.692 414.71 159.206 414.224 159.67C413.739 160.131 413.146 160.497 412.447 160.77C411.753 161.043 410.956 161.179 410.057 161.179C408.872 161.179 407.811 160.919 406.874 160.399C405.94 159.875 405.203 159.112 404.662 158.111C404.121 157.109 403.85 155.891 403.85 154.455C403.85 153.014 404.125 151.793 404.675 150.792C405.224 149.79 405.968 149.03 406.906 148.51C407.843 147.99 408.893 147.73 410.057 147.73C410.849 147.73 411.582 147.841 412.256 148.062C412.929 148.28 413.521 148.599 414.033 149.021C414.544 149.439 414.96 149.952 415.279 150.562C415.599 151.171 415.797 151.868 415.874 152.652ZM424.76 151.834C424.718 151.365 424.528 151.001 424.191 150.741C423.859 150.477 423.384 150.344 422.766 150.344C422.357 150.344 422.016 150.398 421.743 150.504C421.47 150.611 421.266 150.758 421.129 150.945C420.993 151.129 420.923 151.339 420.919 151.578C420.91 151.774 420.948 151.947 421.034 152.096C421.123 152.245 421.251 152.377 421.417 152.492C421.588 152.603 421.792 152.701 422.031 152.786C422.269 152.871 422.538 152.946 422.836 153.01L423.961 153.266C424.609 153.406 425.18 153.594 425.674 153.828C426.173 154.062 426.59 154.342 426.927 154.665C427.268 154.989 427.526 155.362 427.7 155.784C427.875 156.206 427.965 156.679 427.969 157.203C427.965 158.03 427.756 158.739 427.343 159.332C426.929 159.924 426.335 160.378 425.559 160.693C424.788 161.009 423.857 161.166 422.766 161.166C421.671 161.166 420.716 161.002 419.902 160.674C419.088 160.346 418.455 159.847 418.004 159.178C417.552 158.509 417.32 157.663 417.307 156.641H420.337C420.362 157.062 420.475 157.414 420.676 157.695C420.876 157.977 421.151 158.19 421.5 158.335C421.854 158.479 422.263 158.552 422.727 158.552C423.154 158.552 423.516 158.494 423.814 158.379C424.117 158.264 424.349 158.104 424.511 157.9C424.673 157.695 424.756 157.461 424.76 157.197C424.756 156.95 424.679 156.739 424.53 156.564C424.381 156.385 424.151 156.232 423.84 156.104C423.533 155.972 423.141 155.85 422.664 155.739L421.296 155.42C420.162 155.16 419.269 154.74 418.617 154.161C417.965 153.577 417.642 152.788 417.646 151.795C417.642 150.986 417.859 150.276 418.298 149.667C418.737 149.058 419.344 148.582 420.119 148.241C420.895 147.901 421.779 147.73 422.772 147.73C423.786 147.73 424.666 147.903 425.412 148.248C426.162 148.589 426.744 149.068 427.157 149.686C427.57 150.304 427.781 151.02 427.79 151.834H424.76ZM436.643 151.834C436.6 151.365 436.411 151.001 436.074 150.741C435.742 150.477 435.267 150.344 434.649 150.344C434.24 150.344 433.899 150.398 433.626 150.504C433.353 150.611 433.149 150.758 433.012 150.945C432.876 151.129 432.806 151.339 432.801 151.578C432.793 151.774 432.831 151.947 432.916 152.096C433.006 152.245 433.134 152.377 433.3 152.492C433.47 152.603 433.675 152.701 433.914 152.786C434.152 152.871 434.421 152.946 434.719 153.01L435.844 153.266C436.492 153.406 437.063 153.594 437.557 153.828C438.056 154.062 438.473 154.342 438.81 154.665C439.151 154.989 439.409 155.362 439.583 155.784C439.758 156.206 439.847 156.679 439.852 157.203C439.847 158.03 439.639 158.739 439.225 159.332C438.812 159.924 438.218 160.378 437.442 160.693C436.671 161.009 435.74 161.166 434.649 161.166C433.553 161.166 432.599 161.002 431.785 160.674C430.971 160.346 430.338 159.847 429.887 159.178C429.435 158.509 429.203 157.663 429.19 156.641H432.22C432.245 157.062 432.358 157.414 432.558 157.695C432.759 157.977 433.034 158.19 433.383 158.335C433.737 158.479 434.146 158.552 434.61 158.552C435.036 158.552 435.399 158.494 435.697 158.379C435.999 158.264 436.232 158.104 436.394 157.9C436.556 157.695 436.639 157.461 436.643 157.197C436.639 156.95 436.562 156.739 436.413 156.564C436.264 156.385 436.034 156.232 435.722 156.104C435.416 155.972 435.024 155.85 434.546 155.739L433.178 155.42C432.045 155.16 431.152 154.74 430.5 154.161C429.848 153.577 429.524 152.788 429.529 151.795C429.524 150.986 429.742 150.276 430.181 149.667C430.619 149.058 431.227 148.582 432.002 148.241C432.778 147.901 433.662 147.73 434.655 147.73C435.669 147.73 436.549 147.903 437.295 148.248C438.045 148.589 438.627 149.068 439.04 149.686C439.453 150.304 439.664 151.02 439.673 151.834H436.643Z" fill="white"/>
<rect x="381" y="75" width="56" height="33" rx="6" fill="#5C3DDE"/>
<path d="M405.36 84.7273H409V95.2869C408.995 96.2763 408.759 97.1413 408.291 97.8821C407.824 98.6179 407.178 99.1896 406.352 99.5973C405.532 100.005 404.582 100.209 403.504 100.209C402.549 100.209 401.681 100.042 400.901 99.7092C400.125 99.3761 399.506 98.859 399.044 98.158C398.587 97.457 398.36 96.5597 398.365 95.4659H402.042C402.057 95.8587 402.131 96.1942 402.266 96.4727C402.405 96.7461 402.596 96.9524 402.84 97.0916C403.083 97.2308 403.374 97.3004 403.712 97.3004C404.065 97.3004 404.364 97.2259 404.607 97.0767C404.851 96.9226 405.035 96.6964 405.159 96.3981C405.288 96.0998 405.355 95.7294 405.36 95.2869V84.7273ZM419.572 89.3061C419.523 88.7592 419.301 88.3342 418.909 88.0309C418.521 87.7227 417.967 87.5685 417.246 87.5685C416.768 87.5685 416.371 87.6307 416.052 87.755C415.734 87.8793 415.496 88.0508 415.337 88.2695C415.177 88.4833 415.095 88.7294 415.09 89.0078C415.081 89.2365 415.125 89.4379 415.225 89.6119C415.329 89.7859 415.478 89.94 415.672 90.0742C415.871 90.2035 416.11 90.3178 416.388 90.4173C416.666 90.5167 416.98 90.6037 417.328 90.6783L418.64 90.9766C419.396 91.1406 420.062 91.3594 420.639 91.6328C421.22 91.9062 421.708 92.2319 422.1 92.6097C422.498 92.9876 422.799 93.4226 423.003 93.9148C423.207 94.407 423.311 94.9588 423.316 95.5703C423.311 96.5348 423.067 97.3626 422.585 98.0536C422.103 98.7447 421.409 99.2741 420.505 99.642C419.605 100.01 418.518 100.194 417.246 100.194C415.968 100.194 414.854 100.002 413.905 99.6197C412.955 99.2369 412.217 98.6552 411.69 97.8746C411.163 97.0941 410.892 96.1072 410.877 94.9141H414.412C414.442 95.4062 414.573 95.8164 414.807 96.1445C415.041 96.4727 415.361 96.7212 415.769 96.8903C416.182 97.0593 416.659 97.1438 417.201 97.1438C417.698 97.1438 418.121 97.0767 418.469 96.9425C418.822 96.8082 419.093 96.6218 419.282 96.3832C419.47 96.1445 419.567 95.8711 419.572 95.5629C419.567 95.2745 419.478 95.0284 419.304 94.8246C419.13 94.6158 418.861 94.4368 418.498 94.2876C418.141 94.1335 417.683 93.9918 417.126 93.8626L415.53 93.4897C414.208 93.1864 413.166 92.6967 412.406 92.0206C411.645 91.3395 411.267 90.4197 411.272 89.2614C411.267 88.3168 411.521 87.489 412.033 86.7781C412.545 86.0671 413.253 85.5128 414.158 85.1151C415.063 84.7173 416.095 84.5185 417.253 84.5185C418.436 84.5185 419.463 84.7198 420.333 85.1225C421.208 85.5202 421.887 86.0795 422.369 86.8004C422.851 87.5213 423.097 88.3565 423.107 89.3061H419.572Z" fill="white"/>
<path d="M344.881 39V27.3636H349.688C350.559 27.3636 351.311 27.5208 351.943 27.8352C352.58 28.1458 353.07 28.5928 353.415 29.1761C353.759 29.7557 353.932 30.4432 353.932 31.2386C353.932 32.0455 353.756 32.7311 353.403 33.2955C353.051 33.8561 352.551 34.2841 351.903 34.5795C351.256 34.8712 350.489 35.017 349.602 35.017H346.562V32.8011H349.08C349.504 32.8011 349.858 32.7462 350.142 32.6364C350.43 32.5227 350.648 32.3523 350.795 32.125C350.943 31.8939 351.017 31.5985 351.017 31.2386C351.017 30.8788 350.943 30.5814 350.795 30.3466C350.648 30.108 350.43 29.9299 350.142 29.8125C349.854 29.6913 349.5 29.6307 349.08 29.6307H347.693V39H344.881ZM351.432 33.6818L354.33 39H351.261L348.42 33.6818H351.432ZM355.474 39V27.3636H363.588V29.6477H358.287V32.0341H363.173V34.3239H358.287V36.7159H363.588V39H355.474ZM367.866 39H364.844L368.77 27.3636H372.514L376.44 39H373.418L370.685 30.2955H370.594L367.866 39ZM367.463 34.4205H373.781V36.5568H367.463V34.4205ZM387.709 31.5795H384.868C384.83 31.2879 384.752 31.0246 384.635 30.7898C384.518 30.5549 384.362 30.3542 384.169 30.1875C383.976 30.0208 383.747 29.8939 383.482 29.8068C383.22 29.7159 382.93 29.6705 382.612 29.6705C382.048 29.6705 381.561 29.8087 381.152 30.0852C380.747 30.3617 380.434 30.7614 380.214 31.2841C379.999 31.8068 379.891 32.4394 379.891 33.1818C379.891 33.9545 380 34.6023 380.22 35.125C380.444 35.6439 380.756 36.036 381.158 36.3011C381.563 36.5625 382.042 36.6932 382.595 36.6932C382.906 36.6932 383.188 36.6534 383.442 36.5739C383.699 36.4943 383.925 36.3788 384.118 36.2273C384.315 36.072 384.476 35.8845 384.601 35.6648C384.73 35.4413 384.819 35.1894 384.868 34.9091L387.709 34.9261C387.66 35.4413 387.51 35.9489 387.26 36.4489C387.014 36.9489 386.675 37.4053 386.243 37.8182C385.811 38.2273 385.285 38.553 384.663 38.7955C384.046 39.0379 383.338 39.1591 382.538 39.1591C381.485 39.1591 380.542 38.928 379.709 38.4659C378.879 38 378.224 37.322 377.743 36.4318C377.262 35.5417 377.021 34.4583 377.021 33.1818C377.021 31.9015 377.266 30.8163 377.754 29.9261C378.243 29.036 378.904 28.3598 379.737 27.8977C380.571 27.4356 381.504 27.2045 382.538 27.2045C383.243 27.2045 383.894 27.303 384.493 27.5C385.091 27.6932 385.618 27.9773 386.072 28.3523C386.527 28.7235 386.896 29.1799 387.18 29.7216C387.464 30.2633 387.641 30.8826 387.709 31.5795ZM388.938 29.6477V27.3636H398.773V29.6477H395.244V39H392.472V29.6477H388.938Z" fill="white"/>
<ellipse cx="248" cy="75.5" rx="3" ry="4.5" fill="#111111"/>
<ellipse cx="277" cy="75.5" rx="3" ry="4.5" fill="#111111"/>
<path d="M237.305 62.4139C237.26 61.7984 237.647 61.2318 238.241 61.0635C242.927 59.7352 246.01 59.6219 250.824 60.1705C251.454 60.2423 251.939 60.756 251.985 61.3883V61.3883C252.053 62.333 251.139 63.0418 250.226 62.7897C246.079 61.6444 243.202 61.7679 239.267 63.5391C238.398 63.9305 237.373 63.365 237.305 62.4139V62.4139Z" fill="#111111"/>
<path d="M273.315 61.4333C273.395 60.8215 273.888 60.3443 274.503 60.2988C279.361 59.9394 282.404 60.448 287.009 61.953C287.612 62.1499 287.984 62.7508 287.902 63.3794V63.3794C287.779 64.3185 286.741 64.8291 285.897 64.3986C282.065 62.4431 279.222 61.9859 275.011 62.9301C274.081 63.1387 273.191 62.3789 273.315 61.4333V61.4333Z" fill="#111111"/>
<rect x="268.5" y="65.5" width="26" height="18" rx="4.5" stroke="black"/>
<path d="M257 72C261.233 71.1026 263.629 71.115 268 72V74C263.701 72.7793 261.299 72.6975 257 74V72Z" fill="#0E0D0D"/>
<path d="M255 92.2122C255 91.134 256.62 90.6877 257.326 91.5027C260.866 95.5907 265.206 95.7123 268.737 91.5247C269.411 90.7254 271 91.1518 271 92.1973V92.1973C271 92.4815 270.875 92.7552 270.66 92.9413C264.511 98.27 261.022 98.4328 255.313 92.9484C255.114 92.7569 255 92.4886 255 92.2122V92.2122Z" fill="#CA6E6E"/>
<circle cx="261.5" cy="167.5" r="6.5" fill="#748A69"/>
<path d="M129 49H198C200.209 49 202 50.7909 202 53V118" stroke="#A2A6A2"/>
<path d="M344.999 270.5L344 275.288L343.226 274.956L344.999 270.5Z" fill="#4B4641"/>
<path d="M109.5 112.5H179C183.418 112.5 187 116.082 187 120.5V145C187 149.418 190.582 153 195 153H196" stroke="#A2A6A2"/>
<path d="M394.5 156.5H330.5M381.5 93H362C357.582 93 354 96.5817 354 101V130C354 134.418 350.418 138 346 138H330.5M337.5 30.5H326.5C322.082 30.5 318.5 34.0817 318.5 38.5V116" stroke="#A2A6A2"/>
<path d="M130.5 179.5C132.926 176.47 133.402 174.595 130.5 170.5C127.156 166.037 127.513 163.907 130.5 160.5C133.962 156.976 133.42 154.587 130.5 150" stroke="#918E8E"/>
<path d="M141 182C143.152 180.505 143.935 179.424 141 175C138.666 170.794 138.749 168.958 141 166.5" stroke="#918E8E"/>
<rect x="230.5" y="65.5" width="26" height="18" rx="4.5" stroke="black"/>
<path d="M306.546 254H205.046C203.581 264.044 237.096 271.622 338.546 288L345.046 270.5L306.546 254Z" fill="#96B3AA"/>
<g filter="url(#filter5_f_20_83)">
<path d="M186.5 255.5V271.511C186.5 271.783 186.717 272.005 186.989 272.011L252 273.5" stroke="#FFFCFC" stroke-width="0.5"/>
</g>
<path d="M343.255 275.002L350.165 277.451L346.155 288.762L339 286.5L343.255 275.002Z" fill="#E6C6A4"/>
<path d="M345 289L349.5 276L360 279.5L357 321C348.697 316.274 347.355 308.656 348 290.5L345 289Z" fill="#786A66"/>
<g filter="url(#filter6_f_20_83)">
<path d="M285.564 42.4471C285.13 41.8087 285.303 40.9342 285.954 40.5185V40.5185C286.62 40.0935 287.508 40.3259 287.886 41.0194C293.743 51.7735 294.295 52.9622 297.047 65.082C297.085 65.2514 297.083 65.4336 297.037 65.6011V65.6011C296.726 66.7357 295.02 66.5941 294.864 65.4281C293.623 56.1693 291.547 51.2388 285.564 42.4471Z" fill="#FFFEFE"/>
</g>
<g filter="url(#filter7_f_20_83)">
<path d="M234.168 46.5022C234.192 46.1668 234.442 45.8836 234.774 45.8276V45.8276C235.277 45.7427 235.709 46.1909 235.602 46.69C233.192 57.9743 230.321 63.6414 227.929 76.3244C227.85 76.7432 227.53 77.0817 227.114 77.1764V77.1764C226.23 77.3777 225.518 76.4553 225.94 75.6524C229.578 68.7171 233.048 62.0282 234.168 46.5022Z" fill="#FFFEFE"/>
</g>
<g filter="url(#filter8_f_20_83)">
<path d="M244.121 105.374C245.21 105.54 245.797 106.761 245.214 107.696V107.696C244.838 108.297 244.093 108.557 243.43 108.308C237.482 106.078 234.329 103.91 230.784 98.918C230.356 98.3159 230.469 97.4898 231.028 97.0066V97.0066C231.81 96.3296 233.028 96.6602 233.425 97.6156C235.729 103.155 238.406 104.504 244.121 105.374Z" fill="#AC926C"/>
</g>
<g filter="url(#filter9_f_20_83)">
<path d="M291.201 91.905C291.823 91.0402 293.095 90.981 293.781 91.7957V91.7957C294.322 92.4371 294.283 93.3879 293.688 93.979C287.241 100.383 282.722 103.538 274.58 106.583C273.717 106.906 272.767 106.415 272.516 105.528V105.528C272.252 104.596 272.876 103.647 273.832 103.485C282.805 101.966 286.04 99.0767 291.201 91.905Z" fill="white"/>
</g>
<g filter="url(#filter10_f_20_83)">
<path d="M246.639 103.651C247.69 103.826 248.306 104.94 247.88 105.917V105.917C247.544 106.685 246.675 107.072 245.881 106.8C237.285 103.854 232.455 101.2 226.119 95.2477C225.447 94.6168 225.468 93.5475 226.151 92.9297V92.9297C226.87 92.2796 227.998 92.4195 228.566 93.2049C233.9 100.578 237.924 102.199 246.639 103.651Z" fill="white"/>
</g>
<g filter="url(#filter11_f_20_83)">
<rect x="249" y="109" width="2" height="15" rx="1" fill="#FFFBFB"/>
</g>
<g filter="url(#filter12_f_20_83)">
<rect x="266" y="109" width="2" height="15" rx="1" fill="#FFFBFB"/>
</g>
<g filter="url(#filter13_f_20_83)">
<path d="M275.02 61.3356C275.029 61.2146 275.131 61.1211 275.253 61.1216C279.306 61.1393 281.579 61.7783 285.792 62.4663C285.911 62.4857 286 62.5885 286 62.7087V62.7087C286 62.8608 285.861 62.9757 285.711 62.9491C281.5 62.1994 279.352 61.5703 275.255 61.5872C275.119 61.5877 275.009 61.4718 275.02 61.3356V61.3356Z" fill="#D9D9D9"/>
</g>
<g filter="url(#filter14_f_20_83)">
<path d="M275.02 61.3356C275.029 61.2146 275.131 61.1211 275.253 61.1216C279.306 61.1393 281.579 61.7783 285.792 62.4663C285.911 62.4857 286 62.5885 286 62.7087V62.7087C286 62.8608 285.861 62.9757 285.711 62.9491C281.5 62.1994 279.352 61.5703 275.255 61.5872C275.119 61.5877 275.009 61.4718 275.02 61.3356V61.3356Z" fill="#D9D9D9"/>
</g>
<g filter="url(#filter15_f_20_83)">
<path d="M238.04 61.6654C238.025 61.5449 238.107 61.4329 238.226 61.4095C242.203 60.6253 244.557 60.8024 248.823 60.6436C248.943 60.6392 249.051 60.7223 249.074 60.8402V60.8402C249.104 60.9893 248.991 61.1294 248.839 61.1329C244.563 61.2308 242.333 61.0388 238.32 61.8653C238.187 61.8928 238.056 61.801 238.04 61.6654V61.6654Z" fill="#D9D9D9"/>
</g>
<g filter="url(#filter16_f_20_83)">
<path d="M255.5 92.4511C255.5 92.3097 255.685 92.2496 255.773 92.3602C259.529 97.0804 266.922 97.1677 270.271 92.8132C270.371 92.6836 270.277 92.5 270.113 92.5V92.5C270.043 92.5 269.977 92.5371 269.939 92.5963C266.856 97.4223 259.461 97.6829 255.53 92.5393C255.511 92.5141 255.5 92.4828 255.5 92.4511V92.4511Z" fill="white"/>
</g>
<g filter="url(#filter17_f_20_83)">
<ellipse cx="249.5" cy="77" rx="0.5" ry="1" fill="#FEFDFD"/>
</g>
<g filter="url(#filter18_f_20_83)">
<ellipse cx="275.5" cy="77" rx="0.5" ry="1" fill="#FEFDFD"/>
</g>
<g filter="url(#filter19_f_20_83)">
<path d="M201.113 159.277L201.851 159.819C195.71 179.969 182.697 210.771 184.14 213.546L183.36 213.462C181.378 210.834 193.695 180.424 201.113 159.277Z" fill="white"/>
</g>
<g filter="url(#filter20_f_20_83)">
<path d="M184 212.961C184 212.831 184.741 212.296 184.87 212.312C187.383 212.624 194.877 212.143 201.491 212.01C201.771 212.004 202 212.23 202 212.51V212.51C202 212.782 201.781 213.005 201.509 213.011C192.241 213.216 184.673 213.509 184.026 213.024C184.006 213.009 184 212.986 184 212.961V212.961Z" fill="white"/>
</g>
<g filter="url(#filter21_f_20_83)">
<path d="M220.5 128.5C221.32 127.345 222.119 126.601 223.496 125.983C225.414 125.121 227.561 124.973 229.662 124.919L238.297 124.698C243.339 124.568 248.201 126.115 252.959 127.788C256.558 129.053 259.634 129.256 262.85 128.352C268.245 126.834 273.496 124.5 279.1 124.5H286.353C289.756 124.5 293.338 124.8 296.065 126.836C296.668 127.286 297.294 127.824 298 128.5" stroke="#FFF9F9"/>
</g>
<g filter="url(#filter22_f_20_83)">
<path d="M214.907 76.4091C214.965 76.4336 215.034 76.4417 215.096 76.4292V76.4292C215.461 76.3562 215.411 75.8878 215.039 75.896C202.058 76.1803 203.116 85.9529 215.406 92.2457C215.965 92.5316 215.771 93.4484 215.144 93.4484V93.4484C215.05 93.4484 214.954 93.4239 214.871 93.3791C200.048 85.3844 202.028 71.0337 214.907 76.4091Z" fill="white"/>
</g>
<g filter="url(#filter23_f_20_83)">
<path d="M297.635 91.7697C297.248 91.6181 297 91.2333 297 90.8172V90.8172C297 90.1395 297.632 89.6373 298.3 89.7491C312.608 92.1427 313.254 80.2884 306.701 75.2902C306.393 75.0553 306.55 74.5 306.937 74.5V74.5C306.979 74.5 307.023 74.5078 307.062 74.5217C319.737 78.9772 309.362 96.3606 297.635 91.7697Z" fill="white"/>
</g>
<g filter="url(#filter24_f_20_83)">
<path d="M207.5 198.5V136C207.5 134.343 208.843 133 210.5 133H316.5C318.157 133 319.5 134.343 319.5 136V198.5C319.5 200.157 318.157 201.5 316.5 201.5H210.5C208.843 201.5 207.5 200.157 207.5 198.5Z" stroke="white" stroke-width="2"/>
</g>
<g filter="url(#filter25_f_20_83)">
<circle cx="262" cy="168" r="3.5" stroke="#FFFBFB"/>
</g>
<g filter="url(#filter26_f_20_83)">
<rect x="204" y="211" width="118" height="2" rx="1" fill="#FBFAFA"/>
</g>
<g filter="url(#filter27_f_20_83)">
<path d="M207.071 255.63C206.737 255.554 206.5 255.257 206.5 254.914V254.914C206.5 254.445 206.934 254.096 207.393 254.198L338.146 283.2C338.833 283.352 339.194 284.11 338.88 284.74V284.74C338.657 285.186 338.158 285.422 337.672 285.312L207.071 255.63Z" fill="white"/>
</g>
<g filter="url(#filter28_f_20_83)">
<path d="M301.457 254.311C301.296 254.24 301.19 254.082 301.185 253.906V253.906C301.175 253.57 301.518 253.339 301.826 253.474L343.157 271.631C343.402 271.739 343.519 272.021 343.42 272.271V272.271C343.316 272.535 343.014 272.659 342.754 272.544L301.457 254.311Z" fill="white"/>
</g>
<g filter="url(#filter29_f_20_83)">
<rect x="267.745" y="277.576" width="2" height="111.394" rx="1" transform="rotate(2.7386 267.745 277.576)" fill="#FFFBFB"/>
</g>
<g filter="url(#filter30_f_20_83)">
<path d="M290.346 282.637C290.394 282.23 290.723 281.914 291.132 281.881V281.881C291.671 281.838 292.115 282.299 292.054 282.836L280.129 386.521C280.074 386.996 279.691 387.366 279.215 387.404V387.404C278.586 387.453 278.069 386.916 278.143 386.29L290.346 282.637Z" fill="#FFFCFC"/>
</g>
<g filter="url(#filter31_f_20_83)">
<path d="M343.945 275L348.705 276.978C349.195 277.182 349.441 277.733 349.265 278.234L346.279 286.721C346.093 287.25 345.508 287.523 344.983 287.324L340 285.442" stroke="#FFFBFB" stroke-width="0.5"/>
</g>
<g filter="url(#filter32_f_20_83)">
<path d="M314 255H333.5C335.157 255 336.5 256.343 336.5 258V265.5" stroke="#FFFCFC" stroke-width="0.5"/>
</g>
<g filter="url(#filter33_f_20_83)">
<path d="M43.5 221.5H471.5" stroke="#FFFCFC"/>
</g>
<g filter="url(#filter34_f_20_83)">
<path d="M78 227.5V244C78 246.761 80.2386 249 83 249H433C435.761 249 438 246.761 438 244V229.5" stroke="#FFFEFE"/>
</g>
<g filter="url(#filter35_f_20_83)">
<path d="M350 290.5C349.239 308.391 349.973 315.53 355 319" stroke="#FFFEFE"/>
</g>
<g filter="url(#filter36_f_20_83)">
<path d="M95.5 256L83.5 389.5M410.5 256L428 389.5" stroke="#FFFEFE"/>
</g>
<g filter="url(#filter37_f_20_83)">
<path d="M214.5 277.5L203 388.5M307 284L317.5 388.5" stroke="#FFFEFE"/>
</g>
<g filter="url(#filter38_f_20_83)">
<path d="M48 111V121C48 123.761 50.2386 126 53 126H75.5333M85.6476 99H102C104.761 99 107 101.239 107 104V112.846" stroke="#FFFEFE" stroke-width="0.5"/>
</g>
<g filter="url(#filter39_f_20_83)">
<path d="M76 48V58C76 60.7614 78.2386 63 81 63H98.8667M107.267 36H120C122.761 36 125 38.2386 125 41V49.8462" stroke="#FFFEFE" stroke-width="0.5"/>
</g>
<g filter="url(#filter40_f_20_83)">
<path d="M342 30.1111V39C342 41.7614 344.239 44 347 44H369.067M379.01 19H395C397.761 19 400 21.2386 400 24V31.8205" stroke="#FFFEFE" stroke-width="0.5"/>
</g>
<g filter="url(#filter41_f_20_83)">
<path d="M384 90V100C384 102.761 386.239 105 389 105H407.333M415.905 78H429C431.761 78 434 80.2386 434 83V91.8462" stroke="#FFFEFE" stroke-width="0.5"/>
</g>
<g filter="url(#filter42_f_20_83)">
<path d="M398 153V163C398 165.761 400.239 168 403 168H419.933M427.99 141H440C442.761 141 445 143.239 445 146V154.846" stroke="#FFFEFE" stroke-width="0.5"/>
</g>
<g filter="url(#filter43_f_20_83)">
<path d="M132.5 186.5V212.5" stroke="#FFFEFE" stroke-width="0.5"/>
</g>
<g filter="url(#filter44_f_20_83)">
<path d="M230.249 40.4241C229.714 41.295 228.648 41.7272 227.691 41.3683V41.3683C226.5 40.9218 226.025 39.4866 226.843 38.5125C241.353 21.2167 287.635 23.9115 300.289 42.583C300.625 43.0792 300.447 43.7447 299.926 44.0421V44.0421C299.466 44.305 298.887 44.1931 298.547 43.7868C283.516 25.8479 242.044 21.2275 230.249 40.4241Z" fill="#4E3E3E"/>
</g>
<g filter="url(#filter45_f_20_83)">
<path d="M233.91 41.9103C233.621 41.6207 233.877 41.1298 234.282 41.1889C256.663 44.4495 268.286 44.1215 284.896 35.8046C285.254 35.6256 285.691 35.6913 285.974 35.9739V35.9739C286.452 36.4517 286.269 37.2652 285.633 37.4943C268.772 43.5719 257.416 46.8579 234.126 42.0262C234.045 42.0094 233.969 41.9688 233.91 41.9103V41.9103Z" fill="#554544"/>
</g>
<g filter="url(#filter46_f_20_83)">
<path d="M226 40C223.885 39.6201 222.489 39.5105 220.828 39.7007C219.64 39.8366 218.58 40.5085 217.906 41.4952C213.815 47.4817 212.816 54.284 215 73" stroke="#4E3F3F" stroke-width="0.5"/>
</g>
<g filter="url(#filter47_f_20_83)">
<path d="M133.5 230V240C133.5 246.075 138.425 251 144.5 251H381C387.075 251 392 246.075 392 240V231" stroke="#C6BFBF" stroke-width="0.5"/>
</g>
<g filter="url(#filter48_f_20_83)">
<path d="M246 108C255.589 109.749 261.024 110.131 271 108V109.034C261.458 110.469 255.934 110.166 246 109.034V108Z" fill="#C3836E"/>
</g>
<g filter="url(#filter49_f_20_83)">
<path d="M211.026 78.915C211.46 78.3279 212.157 78 212.887 78V78C215.072 78 215.921 80.7636 215.516 82.9109C215.445 83.2871 215.433 83.6579 215.478 84.0286C215.743 86.181 214.952 89 212.783 89V89C212.115 89 211.471 88.7203 211.048 88.2027C208.282 84.8198 208.36 82.5295 211.026 78.915Z" fill="#D8AD8E"/>
</g>
<g filter="url(#filter50_f_20_83)">
<path d="M306.029 87.5743C305.49 88.0663 304.742 88.2528 304.027 88.1115V88.1115C301.883 87.6881 301.586 84.8125 302.399 82.7842C302.541 82.4289 302.625 82.0674 302.652 81.6949C302.81 79.5321 304.132 76.9198 306.26 77.34V77.34C306.916 77.4695 307.493 77.8687 307.808 78.4584C309.865 82.313 309.346 84.545 306.029 87.5743Z" fill="#D8AD8E"/>
</g>
<g filter="url(#filter51_f_20_83)">
<rect x="266.4" y="276" width="30.9886" height="1.55917" transform="rotate(9.18804 266.4 276)" fill="#414945"/>
</g>
<g filter="url(#filter52_f_20_83)">
<path d="M278.666 73.9399C278.868 74.7433 279.326 76.3515 278.791 76.4863C278.255 76.6211 276.44 75.3034 276.238 74.5C276.036 73.6966 275.703 72.6231 276.238 72.4883C276.774 72.3536 278.464 73.1365 278.666 73.9399Z" fill="#FFFAFA"/>
</g>
<g filter="url(#filter53_f_20_83)">
<path d="M246.562 73.5641C247.209 73.0461 248.48 71.9602 248.826 72.3913C249.171 72.8223 248.727 75.021 248.081 75.5389C247.434 76.0568 246.597 76.8063 246.251 76.3753C245.906 75.9442 245.915 74.082 246.562 73.5641Z" fill="#D9D9D9"/>
</g>
<g filter="url(#filter54_f_20_83)">
<path d="M222.5 39C228.501 39.126 231.091 40.2467 234 44.5" stroke="#100F0F" stroke-width="0.5"/>
</g>
<defs>
<filter id="filter0_f_20_83" x="-55" y="-87" width="633" height="547" filterUnits="userSpaceOnUse" color-interpolation-filters="sRGB">
<feFlood flood-opacity="0" result="BackgroundImageFix"/>
<feBlend mode="normal" in="SourceGraphic" in2="BackgroundImageFix" result="shape"/>
<feGaussianBlur stdDeviation="67.5" result="effect1_foregroundBlur_20_83"/>
</filter>
<filter id="filter1_f_20_83" x="179.748" y="109.26" width="163.03" height="94.7405" filterUnits="userSpaceOnUse" color-interpolation-filters="sRGB">
<feFlood flood-opacity="0" result="BackgroundImageFix"/>
<feBlend mode="normal" in="SourceGraphic" in2="BackgroundImageFix" result="shape"/>
<feGaussianBlur stdDeviation="2.5" result="effect1_foregroundBlur_20_83"/>
</filter>
<filter id="filter2_i_20_83" x="203.513" y="36.1557" width="110.769" height="96.012" filterUnits="userSpaceOnUse" color-interpolation-filters="sRGB">
<feFlood flood-opacity="0" result="BackgroundImageFix"/>
<feBlend mode="normal" in="SourceGraphic" in2="BackgroundImageFix" result="shape"/>
<feColorMatrix in="SourceAlpha" type="matrix" values="0 0 0 0 0 0 0 0 0 0 0 0 0 0 0 0 0 0 127 0" result="hardAlpha"/>
<feOffset dy="4"/>
<feGaussianBlur stdDeviation="2"/>
<feComposite in2="hardAlpha" operator="arithmetic" k2="-1" k3="1"/>
<feColorMatrix type="matrix" values="0 0 0 0 0.896667 0 0 0 0 0.755525 0 0 0 0 0.523056 0 0 0 1 0"/>
<feBlend mode="normal" in2="shape" result="effect1_innerShadow_20_83"/>
</filter>
<filter id="filter3_f_20_83" x="244.943" y="120.918" width="27.1196" height="9.18224" filterUnits="userSpaceOnUse" color-interpolation-filters="sRGB">
<feFlood flood-opacity="0" result="BackgroundImageFix"/>
<feBlend mode="normal" in="SourceGraphic" in2="BackgroundImageFix" result="shape"/>
<feGaussianBlur stdDeviation="1" result="effect1_foregroundBlur_20_83"/>
</filter>
<filter id="filter4_f_20_83" x="320" y="162.309" width="24.4941" height="53.6912" filterUnits="userSpaceOnUse" color-interpolation-filters="sRGB">
<feFlood flood-opacity="0" result="BackgroundImageFix"/>
<feBlend mode="normal" in="SourceGraphic" in2="BackgroundImageFix" result="shape"/>
<feGaussianBlur stdDeviation="1" result="effect1_foregroundBlur_20_83"/>
</filter>
<filter id="filter5_f_20_83" x="181.25" y="250.5" width="75.7559" height="28.2499" filterUnits="userSpaceOnUse" color-interpolation-filters="sRGB">
<feFlood flood-opacity="0" result="BackgroundImageFix"/>
<feBlend mode="normal" in="SourceGraphic" in2="BackgroundImageFix" result="shape"/>
<feGaussianBlur stdDeviation="2.5" result="effect1_foregroundBlur_20_83"/>
</filter>
<filter id="filter6_f_20_83" x="277.325" y="32.3053" width="27.7485" height="42.0761" filterUnits="userSpaceOnUse" color-interpolation-filters="sRGB">
<feFlood flood-opacity="0" result="BackgroundImageFix"/>
<feBlend mode="normal" in="SourceGraphic" in2="BackgroundImageFix" result="shape"/>
<feGaussianBlur stdDeviation="4" result="effect1_foregroundBlur_20_83"/>
</filter>
<filter id="filter7_f_20_83" x="220.815" y="40.8172" width="19.8027" height="41.3872" filterUnits="userSpaceOnUse" color-interpolation-filters="sRGB">
<feFlood flood-opacity="0" result="BackgroundImageFix"/>
<feBlend mode="normal" in="SourceGraphic" in2="BackgroundImageFix" result="shape"/>
<feGaussianBlur stdDeviation="2.5" result="effect1_foregroundBlur_20_83"/>
</filter>
<filter id="filter8_f_20_83" x="223.524" y="89.6494" width="28.9194" height="25.7527" filterUnits="userSpaceOnUse" color-interpolation-filters="sRGB">
<feFlood flood-opacity="0" result="BackgroundImageFix"/>
<feBlend mode="normal" in="SourceGraphic" in2="BackgroundImageFix" result="shape"/>
<feGaussianBlur stdDeviation="3.5" result="effect1_foregroundBlur_20_83"/>
</filter>
<filter id="filter9_f_20_83" x="265.455" y="84.219" width="35.707" height="29.464" filterUnits="userSpaceOnUse" color-interpolation-filters="sRGB">
<feFlood flood-opacity="0" result="BackgroundImageFix"/>
<feBlend mode="normal" in="SourceGraphic" in2="BackgroundImageFix" result="shape"/>
<feGaussianBlur stdDeviation="3.5" result="effect1_foregroundBlur_20_83"/>
</filter>
<filter id="filter10_f_20_83" x="218.627" y="85.5178" width="36.3896" height="28.369" filterUnits="userSpaceOnUse" color-interpolation-filters="sRGB">
<feFlood flood-opacity="0" result="BackgroundImageFix"/>
<feBlend mode="normal" in="SourceGraphic" in2="BackgroundImageFix" result="shape"/>
<feGaussianBlur stdDeviation="3.5" result="effect1_foregroundBlur_20_83"/>
</filter>
<filter id="filter11_f_20_83" x="245" y="105" width="10" height="23" filterUnits="userSpaceOnUse" color-interpolation-filters="sRGB">
<feFlood flood-opacity="0" result="BackgroundImageFix"/>
<feBlend mode="normal" in="SourceGraphic" in2="BackgroundImageFix" result="shape"/>
<feGaussianBlur stdDeviation="2" result="effect1_foregroundBlur_20_83"/>
</filter>
<filter id="filter12_f_20_83" x="262" y="105" width="10" height="23" filterUnits="userSpaceOnUse" color-interpolation-filters="sRGB">
<feFlood flood-opacity="0" result="BackgroundImageFix"/>
<feBlend mode="normal" in="SourceGraphic" in2="BackgroundImageFix" result="shape"/>
<feGaussianBlur stdDeviation="2" result="effect1_foregroundBlur_20_83"/>
</filter>
<filter id="filter13_f_20_83" x="273.519" y="59.6216" width="13.981" height="4.83134" filterUnits="userSpaceOnUse" color-interpolation-filters="sRGB">
<feFlood flood-opacity="0" result="BackgroundImageFix"/>
<feBlend mode="normal" in="SourceGraphic" in2="BackgroundImageFix" result="shape"/>
<feGaussianBlur stdDeviation="0.75" result="effect1_foregroundBlur_20_83"/>
</filter>
<filter id="filter14_f_20_83" x="273.519" y="59.6216" width="13.981" height="4.83134" filterUnits="userSpaceOnUse" color-interpolation-filters="sRGB">
<feFlood flood-opacity="0" result="BackgroundImageFix"/>
<feBlend mode="normal" in="SourceGraphic" in2="BackgroundImageFix" result="shape"/>
<feGaussianBlur stdDeviation="0.75" result="effect1_foregroundBlur_20_83"/>
</filter>
<filter id="filter15_f_20_83" x="236.538" y="59.1435" width="14.0415" height="4.2267" filterUnits="userSpaceOnUse" color-interpolation-filters="sRGB">
<feFlood flood-opacity="0" result="BackgroundImageFix"/>
<feBlend mode="normal" in="SourceGraphic" in2="BackgroundImageFix" result="shape"/>
<feGaussianBlur stdDeviation="0.75" result="effect1_foregroundBlur_20_83"/>
</filter>
<filter id="filter16_f_20_83" x="254.5" y="91.3029" width="16.812" height="6.00386" filterUnits="userSpaceOnUse" color-interpolation-filters="sRGB">
<feFlood flood-opacity="0" result="BackgroundImageFix"/>
<feBlend mode="normal" in="SourceGraphic" in2="BackgroundImageFix" result="shape"/>
<feGaussianBlur stdDeviation="0.5" result="effect1_foregroundBlur_20_83"/>
</filter>
<filter id="filter17_f_20_83" x="248" y="75" width="3" height="4" filterUnits="userSpaceOnUse" color-interpolation-filters="sRGB">
<feFlood flood-opacity="0" result="BackgroundImageFix"/>
<feBlend mode="normal" in="SourceGraphic" in2="BackgroundImageFix" result="shape"/>
<feGaussianBlur stdDeviation="0.5" result="effect1_foregroundBlur_20_83"/>
</filter>
<filter id="filter18_f_20_83" x="274" y="75" width="3" height="4" filterUnits="userSpaceOnUse" color-interpolation-filters="sRGB">
<feFlood flood-opacity="0" result="BackgroundImageFix"/>
<feBlend mode="normal" in="SourceGraphic" in2="BackgroundImageFix" result="shape"/>
<feGaussianBlur stdDeviation="0.5" result="effect1_foregroundBlur_20_83"/>
</filter>
<filter id="filter19_f_20_83" x="181.147" y="157.277" width="22.7036" height="58.2692" filterUnits="userSpaceOnUse" color-interpolation-filters="sRGB">
<feFlood flood-opacity="0" result="BackgroundImageFix"/>
<feBlend mode="normal" in="SourceGraphic" in2="BackgroundImageFix" result="shape"/>
<feGaussianBlur stdDeviation="1" result="effect1_foregroundBlur_20_83"/>
</filter>
<filter id="filter20_f_20_83" x="182" y="210.009" width="22" height="5.27853" filterUnits="userSpaceOnUse" color-interpolation-filters="sRGB">
<feFlood flood-opacity="0" result="BackgroundImageFix"/>
<feBlend mode="normal" in="SourceGraphic" in2="BackgroundImageFix" result="shape"/>
<feGaussianBlur stdDeviation="1" result="effect1_foregroundBlur_20_83"/>
</filter>
<filter id="filter21_f_20_83" x="218.092" y="122" width="82.2534" height="9.40892" filterUnits="userSpaceOnUse" color-interpolation-filters="sRGB">
<feFlood flood-opacity="0" result="BackgroundImageFix"/>
<feBlend mode="normal" in="SourceGraphic" in2="BackgroundImageFix" result="shape"/>
<feGaussianBlur stdDeviation="1" result="effect1_foregroundBlur_20_83"/>
</filter>
<filter id="filter22_f_20_83" x="200.487" y="71.2336" width="19.249" height="26.2149" filterUnits="userSpaceOnUse" color-interpolation-filters="sRGB">
<feFlood flood-opacity="0" result="BackgroundImageFix"/>
<feBlend mode="normal" in="SourceGraphic" in2="BackgroundImageFix" result="shape"/>
<feGaussianBlur stdDeviation="2" result="effect1_foregroundBlur_20_83"/>
</filter>
<filter id="filter23_f_20_83" x="290" y="67.5" width="29.8608" height="32.0348" filterUnits="userSpaceOnUse" color-interpolation-filters="sRGB">
<feFlood flood-opacity="0" result="BackgroundImageFix"/>
<feBlend mode="normal" in="SourceGraphic" in2="BackgroundImageFix" result="shape"/>
<feGaussianBlur stdDeviation="3.5" result="effect1_foregroundBlur_20_83"/>
</filter>
<filter id="filter24_f_20_83" x="203.5" y="129" width="120" height="76.5" filterUnits="userSpaceOnUse" color-interpolation-filters="sRGB">
<feFlood flood-opacity="0" result="BackgroundImageFix"/>
<feBlend mode="normal" in="SourceGraphic" in2="BackgroundImageFix" result="shape"/>
<feGaussianBlur stdDeviation="1.5" result="effect1_foregroundBlur_20_83"/>
</filter>
<filter id="filter25_f_20_83" x="253" y="159" width="18" height="18" filterUnits="userSpaceOnUse" color-interpolation-filters="sRGB">
<feFlood flood-opacity="0" result="BackgroundImageFix"/>
<feBlend mode="normal" in="SourceGraphic" in2="BackgroundImageFix" result="shape"/>
<feGaussianBlur stdDeviation="2.5" result="effect1_foregroundBlur_20_83"/>
</filter>
<filter id="filter26_f_20_83" x="200" y="207" width="126" height="10" filterUnits="userSpaceOnUse" color-interpolation-filters="sRGB">
<feFlood flood-opacity="0" result="BackgroundImageFix"/>
<feBlend mode="normal" in="SourceGraphic" in2="BackgroundImageFix" result="shape"/>
<feGaussianBlur stdDeviation="2" result="effect1_foregroundBlur_20_83"/>
</filter>
<filter id="filter27_f_20_83" x="198.5" y="246.18" width="148.495" height="47.1585" filterUnits="userSpaceOnUse" color-interpolation-filters="sRGB">
<feFlood flood-opacity="0" result="BackgroundImageFix"/>
<feBlend mode="normal" in="SourceGraphic" in2="BackgroundImageFix" result="shape"/>
<feGaussianBlur stdDeviation="4" result="effect1_foregroundBlur_20_83"/>
</filter>
<filter id="filter28_f_20_83" x="295.185" y="247.435" width="54.2705" height="31.152" filterUnits="userSpaceOnUse" color-interpolation-filters="sRGB">
<feFlood flood-opacity="0" result="BackgroundImageFix"/>
<feBlend mode="normal" in="SourceGraphic" in2="BackgroundImageFix" result="shape"/>
<feGaussianBlur stdDeviation="3" result="effect1_foregroundBlur_20_83"/>
</filter>
<filter id="filter29_f_20_83" x="254.469" y="269.623" width="23.2271" height="127.269" filterUnits="userSpaceOnUse" color-interpolation-filters="sRGB">
<feFlood flood-opacity="0" result="BackgroundImageFix"/>
<feBlend mode="normal" in="SourceGraphic" in2="BackgroundImageFix" result="shape"/>
<feGaussianBlur stdDeviation="4" result="effect1_foregroundBlur_20_83"/>
</filter>
<filter id="filter30_f_20_83" x="270.136" y="273.878" width="29.9238" height="121.528" filterUnits="userSpaceOnUse" color-interpolation-filters="sRGB">
<feFlood flood-opacity="0" result="BackgroundImageFix"/>
<feBlend mode="normal" in="SourceGraphic" in2="BackgroundImageFix" result="shape"/>
<feGaussianBlur stdDeviation="4" result="effect1_foregroundBlur_20_83"/>
</filter>
<filter id="filter31_f_20_83" x="337.912" y="272.769" width="13.6602" height="16.8701" filterUnits="userSpaceOnUse" color-interpolation-filters="sRGB">
<feFlood flood-opacity="0" result="BackgroundImageFix"/>
<feBlend mode="normal" in="SourceGraphic" in2="BackgroundImageFix" result="shape"/>
<feGaussianBlur stdDeviation="1" result="effect1_foregroundBlur_20_83"/>
</filter>
<filter id="filter32_f_20_83" x="310" y="250.75" width="30.75" height="18.75" filterUnits="userSpaceOnUse" color-interpolation-filters="sRGB">
<feFlood flood-opacity="0" result="BackgroundImageFix"/>
<feBlend mode="normal" in="SourceGraphic" in2="BackgroundImageFix" result="shape"/>
<feGaussianBlur stdDeviation="2" result="effect1_foregroundBlur_20_83"/>
</filter>
<filter id="filter33_f_20_83" x="37.5" y="215" width="440" height="13" filterUnits="userSpaceOnUse" color-interpolation-filters="sRGB">
<feFlood flood-opacity="0" result="BackgroundImageFix"/>
<feBlend mode="normal" in="SourceGraphic" in2="BackgroundImageFix" result="shape"/>
<feGaussianBlur stdDeviation="3" result="effect1_foregroundBlur_20_83"/>
</filter>
<filter id="filter34_f_20_83" x="67.5" y="217.5" width="381" height="42" filterUnits="userSpaceOnUse" color-interpolation-filters="sRGB">
<feFlood flood-opacity="0" result="BackgroundImageFix"/>
<feBlend mode="normal" in="SourceGraphic" in2="BackgroundImageFix" result="shape"/>
<feGaussianBlur stdDeviation="5" result="effect1_foregroundBlur_20_83"/>
</filter>
<filter id="filter35_f_20_83" x="347.244" y="288.479" width="10.0396" height="32.9327" filterUnits="userSpaceOnUse" color-interpolation-filters="sRGB">
<feFlood flood-opacity="0" result="BackgroundImageFix"/>
<feBlend mode="normal" in="SourceGraphic" in2="BackgroundImageFix" result="shape"/>
<feGaussianBlur stdDeviation="1" result="effect1_foregroundBlur_20_83"/>
</filter>
<filter id="filter36_f_20_83" x="79.002" y="251.935" width="353.494" height="141.63" filterUnits="userSpaceOnUse" color-interpolation-filters="sRGB">
<feFlood flood-opacity="0" result="BackgroundImageFix"/>
<feBlend mode="normal" in="SourceGraphic" in2="BackgroundImageFix" result="shape"/>
<feGaussianBlur stdDeviation="2" result="effect1_foregroundBlur_20_83"/>
</filter>
<filter id="filter37_f_20_83" x="198.502" y="273.448" width="123.495" height="119.103" filterUnits="userSpaceOnUse" color-interpolation-filters="sRGB">
<feFlood flood-opacity="0" result="BackgroundImageFix"/>
<feBlend mode="normal" in="SourceGraphic" in2="BackgroundImageFix" result="shape"/>
<feGaussianBlur stdDeviation="2" result="effect1_foregroundBlur_20_83"/>
</filter>
<filter id="filter38_f_20_83" x="44.75" y="95.75" width="65.5" height="33.5" filterUnits="userSpaceOnUse" color-interpolation-filters="sRGB">
<feFlood flood-opacity="0" result="BackgroundImageFix"/>
<feBlend mode="normal" in="SourceGraphic" in2="BackgroundImageFix" result="shape"/>
<feGaussianBlur stdDeviation="1.5" result="effect1_foregroundBlur_20_83"/>
</filter>
<filter id="filter39_f_20_83" x="72.75" y="32.75" width="55.5" height="33.5" filterUnits="userSpaceOnUse" color-interpolation-filters="sRGB">
<feFlood flood-opacity="0" result="BackgroundImageFix"/>
<feBlend mode="normal" in="SourceGraphic" in2="BackgroundImageFix" result="shape"/>
<feGaussianBlur stdDeviation="1.5" result="effect1_foregroundBlur_20_83"/>
</filter>
<filter id="filter40_f_20_83" x="338.75" y="15.75" width="64.5" height="31.5" filterUnits="userSpaceOnUse" color-interpolation-filters="sRGB">
<feFlood flood-opacity="0" result="BackgroundImageFix"/>
<feBlend mode="normal" in="SourceGraphic" in2="BackgroundImageFix" result="shape"/>
<feGaussianBlur stdDeviation="1.5" result="effect1_foregroundBlur_20_83"/>
</filter>
<filter id="filter41_f_20_83" x="380.75" y="74.75" width="56.5" height="33.5" filterUnits="userSpaceOnUse" color-interpolation-filters="sRGB">
<feFlood flood-opacity="0" result="BackgroundImageFix"/>
<feBlend mode="normal" in="SourceGraphic" in2="BackgroundImageFix" result="shape"/>
<feGaussianBlur stdDeviation="1.5" result="effect1_foregroundBlur_20_83"/>
</filter>
<filter id="filter42_f_20_83" x="394.75" y="137.75" width="53.5" height="33.5" filterUnits="userSpaceOnUse" color-interpolation-filters="sRGB">
<feFlood flood-opacity="0" result="BackgroundImageFix"/>
<feBlend mode="normal" in="SourceGraphic" in2="BackgroundImageFix" result="shape"/>
<feGaussianBlur stdDeviation="1.5" result="effect1_foregroundBlur_20_83"/>
</filter>
<filter id="filter43_f_20_83" x="128.25" y="182.5" width="8.5" height="34" filterUnits="userSpaceOnUse" color-interpolation-filters="sRGB">
<feFlood flood-opacity="0" result="BackgroundImageFix"/>
<feBlend mode="normal" in="SourceGraphic" in2="BackgroundImageFix" result="shape"/>
<feGaussianBlur stdDeviation="2" result="effect1_foregroundBlur_20_83"/>
</filter>
<filter id="filter44_f_20_83" x="215.435" y="15.9411" width="96.0254" height="39.243" filterUnits="userSpaceOnUse" color-interpolation-filters="sRGB">
<feFlood flood-opacity="0" result="BackgroundImageFix"/>
<feBlend mode="normal" in="SourceGraphic" in2="BackgroundImageFix" result="shape"/>
<feGaussianBlur stdDeviation="5.5" result="effect1_foregroundBlur_20_83"/>
</filter>
<filter id="filter45_f_20_83" x="226.786" y="28.705" width="66.4575" height="22.6443" filterUnits="userSpaceOnUse" color-interpolation-filters="sRGB">
<feFlood flood-opacity="0" result="BackgroundImageFix"/>
<feBlend mode="normal" in="SourceGraphic" in2="BackgroundImageFix" result="shape"/>
<feGaussianBlur stdDeviation="3.5" result="effect1_foregroundBlur_20_83"/>
</filter>
<filter id="filter46_f_20_83" x="211.623" y="37.3593" width="16.4219" height="37.6697" filterUnits="userSpaceOnUse" color-interpolation-filters="sRGB">
<feFlood flood-opacity="0" result="BackgroundImageFix"/>
<feBlend mode="normal" in="SourceGraphic" in2="BackgroundImageFix" result="shape"/>
<feGaussianBlur stdDeviation="1" result="effect1_foregroundBlur_20_83"/>
</filter>
<filter id="filter47_f_20_83" x="127.25" y="224" width="271" height="33.25" filterUnits="userSpaceOnUse" color-interpolation-filters="sRGB">
<feFlood flood-opacity="0" result="BackgroundImageFix"/>
<feBlend mode="normal" in="SourceGraphic" in2="BackgroundImageFix" result="shape"/>
<feGaussianBlur stdDeviation="3" result="effect1_foregroundBlur_20_83"/>
</filter>
<filter id="filter48_f_20_83" x="243" y="105" width="31" height="8" filterUnits="userSpaceOnUse" color-interpolation-filters="sRGB">
<feFlood flood-opacity="0" result="BackgroundImageFix"/>
<feBlend mode="normal" in="SourceGraphic" in2="BackgroundImageFix" result="shape"/>
<feGaussianBlur stdDeviation="1.5" result="effect1_foregroundBlur_20_83"/>
</filter>
<filter id="filter49_f_20_83" x="203" y="72" width="18.6138" height="23" filterUnits="userSpaceOnUse" color-interpolation-filters="sRGB">
<feFlood flood-opacity="0" result="BackgroundImageFix"/>
<feBlend mode="normal" in="SourceGraphic" in2="BackgroundImageFix" result="shape"/>
<feGaussianBlur stdDeviation="3" result="effect1_foregroundBlur_20_83"/>
</filter>
<filter id="filter50_f_20_83" x="295.983" y="71.2951" width="19.0435" height="22.8623" filterUnits="userSpaceOnUse" color-interpolation-filters="sRGB">
<feFlood flood-opacity="0" result="BackgroundImageFix"/>
<feBlend mode="normal" in="SourceGraphic" in2="BackgroundImageFix" result="shape"/>
<feGaussianBlur stdDeviation="3" result="effect1_foregroundBlur_20_83"/>
</filter>
<filter id="filter51_f_20_83" x="262.151" y="272" width="38.8398" height="14.4873" filterUnits="userSpaceOnUse" color-interpolation-filters="sRGB">
<feFlood flood-opacity="0" result="BackgroundImageFix"/>
<feBlend mode="normal" in="SourceGraphic" in2="BackgroundImageFix" result="shape"/>
<feGaussianBlur stdDeviation="2" result="effect1_foregroundBlur_20_83"/>
</filter>
<filter id="filter52_f_20_83" x="269.949" y="66.4731" width="15.0928" height="16.0228" filterUnits="userSpaceOnUse" color-interpolation-filters="sRGB">
<feFlood flood-opacity="0" result="BackgroundImageFix"/>
<feBlend mode="normal" in="SourceGraphic" in2="BackgroundImageFix" result="shape"/>
<feGaussianBlur stdDeviation="3" result="effect1_foregroundBlur_20_83"/>
</filter>
<filter id="filter53_f_20_83" x="241.025" y="67.2923" width="12.9214" height="14.2114" filterUnits="userSpaceOnUse" color-interpolation-filters="sRGB">
<feFlood flood-opacity="0" result="BackgroundImageFix"/>
<feBlend mode="normal" in="SourceGraphic" in2="BackgroundImageFix" result="shape"/>
<feGaussianBlur stdDeviation="2.5" result="effect1_foregroundBlur_20_83"/>
</filter>
<filter id="filter54_f_20_83" x="217.495" y="33.7501" width="21.7119" height="15.8911" filterUnits="userSpaceOnUse" color-interpolation-filters="sRGB">
<feFlood flood-opacity="0" result="BackgroundImageFix"/>
<feBlend mode="normal" in="SourceGraphic" in2="BackgroundImageFix" result="shape"/>
<feGaussianBlur stdDeviation="2.5" result="effect1_foregroundBlur_20_83"/>
</filter>
</defs>
</svg>
