<svg width="435" height="384" viewBox="0 0 435 384" fill="none" xmlns="http://www.w3.org/2000/svg">
<path d="M219 382L225 268L257 274.5L242.5 382H219Z" fill="#2B2925"/>
<rect x="143" y="102" width="157" height="128" rx="31" fill="#678C63"/>
<path d="M247.052 30.1557C235.648 41.1174 220.499 40.0678 191.559 36.6199C189.225 52.2538 186.636 59.7364 178.542 69.5283C155.249 61.8888 160.729 90.6837 183.338 88.3331C190.902 99.1072 196.138 101.752 206.631 102.437V117.716C215.996 124.206 221.243 123.07 230.61 117.716V102.437C242.513 102.123 247.371 97.7896 255.273 88.3331C279.252 86.5701 279.937 66.59 260.754 66.59C262.922 42.4118 258.087 36.8625 247.052 30.1557Z" fill="#E07F77"/>
<path d="M193.819 37.9074C192.617 55.6549 189.158 62.369 178.399 69.0838L173.259 66.8569C170.797 48.4766 171.328 41.8857 174.544 34.5671C176.266 31.9442 177.929 31.2777 182.254 31.7835C193.819 13.4117 227.23 11.1848 254.858 24.5461C264.902 34.3237 266.956 43.9966 265.78 66.8569C262.502 66.0826 260.808 66.0349 258.07 66.8569C261.106 50.0691 256.916 43.2401 247.79 31.7835C229.913 43.2265 217.539 42.9875 193.819 37.9074Z" fill="#181616" stroke="black"/>
<path d="M230.104 117.449C220.994 123.515 215.905 123.281 206.802 117.449H185.889C166.307 123.039 158.839 157.312 143.466 200.234C142.009 209.235 143.798 211.87 151.234 212.575H288.66C300.936 214.207 302.987 211.18 303 202.805C285.301 153.974 267.337 121.814 251.615 117.449H230.104Z" fill="#EAD61F"/>
<rect x="162" y="123" width="121" height="76.3768" rx="4" fill="white"/>
<rect x="162" y="199.377" width="121" height="8.62319" rx="4.31159" fill="#B8D9C4"/>
<rect y="208" width="435" height="11" rx="5.5" fill="#0D5D1F"/>
<rect x="143" y="245" width="157" height="25" rx="4" fill="#678C63"/>
<path d="M33 219H403V240C403 244.418 399.418 248 395 248H41C36.5817 248 33 244.418 33 240V219Z" fill="#096218"/>
<path d="M167.788 269L177.75 269.876L159.969 449.159L154.324 448.662L167.788 269Z" fill="#678C63"/>
<path d="M48.7881 247L58.7496 247.876L40.969 427.159L35.3242 426.662L48.7881 247Z" fill="#0D5D1F"/>
<path d="M367.046 248.27L376.983 247.147L395.225 426.383L389.595 427.019L367.046 248.27Z" fill="#0D5D1F"/>
<path d="M262.205 265.813L272.152 264.787L288.641 444.193L283.005 444.775L262.205 265.813Z" fill="#678C63"/>
<path d="M266.546 248H165.046C163.581 258.044 197.096 265.622 298.546 282L305.046 264.5L266.546 248Z" fill="#2B2925"/>
<path d="M305 284L309.5 271L320 274.5L317 316C308.697 311.274 307.355 303.656 308 285.5L305 284Z" fill="#FFFBFB"/>
<rect x="303.567" y="269.112" width="7" height="12" transform="rotate(19.5217 303.567 269.112)" fill="#E07F77"/>
<rect x="107.5" y="186.5" width="14" height="16" rx="5.5" stroke="#388B23" stroke-width="3"/>
<path d="M84.9396 208.064C84.9736 208.591 85.4103 209 85.9376 209H108.607C109.115 209 109.543 208.618 109.6 208.112L112.874 179.112C112.941 178.519 112.477 178 111.881 178H84.0666C83.489 178 83.0315 178.488 83.0687 179.064L84.9396 208.064Z" fill="#388B23"/>
<path d="M52 -12L385.5 4.5L280.907 200.5H160.511L52 -12Z" fill="url(#paint0_linear_4_86)"/>
<rect x="33" y="27" width="56" height="33" rx="10" fill="#5D3DE8"/>
<rect x="5" y="90" width="65" height="33" rx="10" fill="#9949FF"/>
<rect x="298" y="10" width="65" height="33" rx="10" fill="#9949FF"/>
<path d="M16.8807 113V101.364H19.6932V106.034H24.2784V101.364H27.0852V113H24.2784V108.324H19.6932V113H16.8807ZM28.4688 103.648V101.364H38.304V103.648H34.7756V113H32.0028V103.648H28.4688ZM39.6776 101.364H43.1605L46.1151 108.568H46.2514L49.206 101.364H52.6889V113H49.9503V105.852H49.8537L47.0582 112.926H45.3082L42.5128 105.812H42.4162V113H39.6776V101.364ZM54.4432 113V101.364H57.2557V110.716H62.0966V113H54.4432Z" fill="white"/>
<path d="M41.2461 46.2915V43.1665L53.7461 37.6623V41.2578L45.1879 44.6935L45.3033 44.5071V44.951L45.1879 44.7646L53.7461 48.2003V51.7958L41.2461 46.2915ZM65.4205 32.9659L59.5611 54.7344H56.3029L62.1623 32.9659H65.4205ZM80.4795 46.2915L67.9795 51.7958V48.2003L76.5377 44.7646L76.4223 44.951V44.5071L76.5377 44.6935L67.9795 41.2578V37.6623L80.4795 43.1665V46.2915Z" fill="white"/>
<rect x="354" y="131" width="54" height="34" rx="6" fill="#F45D78"/>
<path d="M375.874 146.652H372.678C372.635 146.324 372.548 146.028 372.415 145.763C372.283 145.499 372.109 145.273 371.891 145.086C371.674 144.898 371.416 144.756 371.118 144.658C370.824 144.555 370.498 144.504 370.14 144.504C369.505 144.504 368.957 144.66 368.497 144.971C368.041 145.282 367.69 145.732 367.442 146.32C367.2 146.908 367.078 147.619 367.078 148.455C367.078 149.324 367.202 150.053 367.449 150.641C367.7 151.224 368.052 151.665 368.504 151.964C368.96 152.258 369.499 152.405 370.121 152.405C370.47 152.405 370.788 152.36 371.073 152.271C371.363 152.181 371.616 152.051 371.834 151.881C372.055 151.706 372.237 151.495 372.377 151.248C372.522 150.996 372.622 150.713 372.678 150.398L375.874 150.417C375.818 150.996 375.65 151.567 375.369 152.13C375.092 152.692 374.71 153.206 374.224 153.67C373.739 154.131 373.146 154.497 372.447 154.77C371.753 155.043 370.956 155.179 370.057 155.179C368.872 155.179 367.811 154.919 366.874 154.399C365.94 153.875 365.203 153.112 364.662 152.111C364.121 151.109 363.85 149.891 363.85 148.455C363.85 147.014 364.125 145.793 364.675 144.792C365.224 143.79 365.968 143.03 366.906 142.51C367.843 141.99 368.893 141.73 370.057 141.73C370.849 141.73 371.582 141.841 372.256 142.062C372.929 142.28 373.521 142.599 374.033 143.021C374.544 143.439 374.96 143.952 375.279 144.562C375.599 145.171 375.797 145.868 375.874 146.652ZM384.76 145.834C384.718 145.365 384.528 145.001 384.191 144.741C383.859 144.477 383.384 144.344 382.766 144.344C382.357 144.344 382.016 144.398 381.743 144.504C381.47 144.611 381.266 144.758 381.129 144.945C380.993 145.129 380.923 145.339 380.919 145.578C380.91 145.774 380.948 145.947 381.034 146.096C381.123 146.245 381.251 146.377 381.417 146.492C381.588 146.603 381.792 146.701 382.031 146.786C382.269 146.871 382.538 146.946 382.836 147.01L383.961 147.266C384.609 147.406 385.18 147.594 385.674 147.828C386.173 148.062 386.59 148.342 386.927 148.665C387.268 148.989 387.526 149.362 387.7 149.784C387.875 150.206 387.965 150.679 387.969 151.203C387.965 152.03 387.756 152.739 387.343 153.332C386.929 153.924 386.335 154.378 385.559 154.693C384.788 155.009 383.857 155.166 382.766 155.166C381.671 155.166 380.716 155.002 379.902 154.674C379.088 154.346 378.455 153.847 378.004 153.178C377.552 152.509 377.32 151.663 377.307 150.641H380.337C380.362 151.062 380.475 151.414 380.676 151.695C380.876 151.977 381.151 152.19 381.5 152.335C381.854 152.479 382.263 152.552 382.727 152.552C383.154 152.552 383.516 152.494 383.814 152.379C384.117 152.264 384.349 152.104 384.511 151.9C384.673 151.695 384.756 151.461 384.76 151.197C384.756 150.95 384.679 150.739 384.53 150.564C384.381 150.385 384.151 150.232 383.84 150.104C383.533 149.972 383.141 149.85 382.664 149.739L381.296 149.42C380.162 149.16 379.269 148.74 378.617 148.161C377.965 147.577 377.642 146.788 377.646 145.795C377.642 144.986 377.859 144.276 378.298 143.667C378.737 143.058 379.344 142.582 380.119 142.241C380.895 141.901 381.779 141.73 382.772 141.73C383.786 141.73 384.666 141.903 385.412 142.248C386.162 142.589 386.744 143.068 387.157 143.686C387.57 144.304 387.781 145.02 387.79 145.834H384.76ZM396.643 145.834C396.6 145.365 396.411 145.001 396.074 144.741C395.742 144.477 395.267 144.344 394.649 144.344C394.24 144.344 393.899 144.398 393.626 144.504C393.353 144.611 393.149 144.758 393.012 144.945C392.876 145.129 392.806 145.339 392.801 145.578C392.793 145.774 392.831 145.947 392.916 146.096C393.006 146.245 393.134 146.377 393.3 146.492C393.47 146.603 393.675 146.701 393.914 146.786C394.152 146.871 394.421 146.946 394.719 147.01L395.844 147.266C396.492 147.406 397.063 147.594 397.557 147.828C398.056 148.062 398.473 148.342 398.81 148.665C399.151 148.989 399.409 149.362 399.583 149.784C399.758 150.206 399.847 150.679 399.852 151.203C399.847 152.03 399.639 152.739 399.225 153.332C398.812 153.924 398.218 154.378 397.442 154.693C396.671 155.009 395.74 155.166 394.649 155.166C393.553 155.166 392.599 155.002 391.785 154.674C390.971 154.346 390.338 153.847 389.887 153.178C389.435 152.509 389.203 151.663 389.19 150.641H392.22C392.245 151.062 392.358 151.414 392.558 151.695C392.759 151.977 393.034 152.19 393.383 152.335C393.737 152.479 394.146 152.552 394.61 152.552C395.036 152.552 395.399 152.494 395.697 152.379C395.999 152.264 396.232 152.104 396.394 151.9C396.556 151.695 396.639 151.461 396.643 151.197C396.639 150.95 396.562 150.739 396.413 150.564C396.264 150.385 396.034 150.232 395.722 150.104C395.416 149.972 395.024 149.85 394.546 149.739L393.178 149.42C392.045 149.16 391.152 148.74 390.5 148.161C389.848 147.577 389.524 146.788 389.529 145.795C389.524 144.986 389.742 144.276 390.181 143.667C390.619 143.058 391.227 142.582 392.002 142.241C392.778 141.901 393.662 141.73 394.655 141.73C395.669 141.73 396.549 141.903 397.295 142.248C398.045 142.589 398.627 143.068 399.04 143.686C399.453 144.304 399.664 145.02 399.673 145.834H396.643Z" fill="white"/>
<rect x="341" y="69" width="56" height="33" rx="6" fill="#5C3DDE"/>
<path d="M365.36 78.7273H369V89.2869C368.995 90.2763 368.759 91.1413 368.291 91.8821C367.824 92.6179 367.178 93.1896 366.352 93.5973C365.532 94.005 364.582 94.2088 363.504 94.2088C362.549 94.2088 361.681 94.0423 360.901 93.7092C360.125 93.3761 359.506 92.859 359.044 92.158C358.587 91.457 358.36 90.5597 358.365 89.4659H362.042C362.057 89.8587 362.131 90.1942 362.266 90.4727C362.405 90.7461 362.596 90.9524 362.84 91.0916C363.083 91.2308 363.374 91.3004 363.712 91.3004C364.065 91.3004 364.364 91.2259 364.607 91.0767C364.851 90.9226 365.035 90.6964 365.159 90.3981C365.288 90.0998 365.355 89.7294 365.36 89.2869V78.7273ZM379.572 83.3061C379.523 82.7592 379.301 82.3342 378.909 82.0309C378.521 81.7227 377.967 81.5685 377.246 81.5685C376.768 81.5685 376.371 81.6307 376.052 81.755C375.734 81.8793 375.496 82.0508 375.337 82.2695C375.177 82.4833 375.095 82.7294 375.09 83.0078C375.081 83.2365 375.125 83.4379 375.225 83.6119C375.329 83.7859 375.478 83.94 375.672 84.0742C375.871 84.2035 376.11 84.3178 376.388 84.4173C376.666 84.5167 376.98 84.6037 377.328 84.6783L378.64 84.9766C379.396 85.1406 380.062 85.3594 380.639 85.6328C381.22 85.9062 381.708 86.2319 382.1 86.6097C382.498 86.9876 382.799 87.4226 383.003 87.9148C383.207 88.407 383.311 88.9588 383.316 89.5703C383.311 90.5348 383.067 91.3626 382.585 92.0536C382.103 92.7447 381.409 93.2741 380.505 93.642C379.605 94.0099 378.518 94.1939 377.246 94.1939C375.968 94.1939 374.854 94.0025 373.905 93.6197C372.955 93.2369 372.217 92.6552 371.69 91.8746C371.163 91.0941 370.892 90.1072 370.877 88.9141H374.412C374.442 89.4062 374.573 89.8164 374.807 90.1445C375.041 90.4727 375.361 90.7212 375.769 90.8903C376.182 91.0593 376.659 91.1438 377.201 91.1438C377.698 91.1438 378.121 91.0767 378.469 90.9425C378.822 90.8082 379.093 90.6218 379.282 90.3832C379.47 90.1445 379.567 89.8711 379.572 89.5629C379.567 89.2745 379.478 89.0284 379.304 88.8246C379.13 88.6158 378.861 88.4368 378.498 88.2876C378.141 88.1335 377.683 87.9918 377.126 87.8626L375.53 87.4897C374.208 87.1864 373.166 86.6967 372.406 86.0206C371.645 85.3395 371.267 84.4197 371.272 83.2614C371.267 82.3168 371.521 81.489 372.033 80.7781C372.545 80.0671 373.253 79.5128 374.158 79.1151C375.063 78.7173 376.095 78.5185 377.253 78.5185C378.436 78.5185 379.463 78.7198 380.333 79.1225C381.208 79.5202 381.887 80.0795 382.369 80.8004C382.851 81.5213 383.097 82.3565 383.107 83.3061H379.572Z" fill="white"/>
<path d="M304.881 33V21.3636H309.688C310.559 21.3636 311.311 21.5208 311.943 21.8352C312.58 22.1458 313.07 22.5928 313.415 23.1761C313.759 23.7557 313.932 24.4432 313.932 25.2386C313.932 26.0455 313.756 26.7311 313.403 27.2955C313.051 27.8561 312.551 28.2841 311.903 28.5795C311.256 28.8712 310.489 29.017 309.602 29.017H306.562V26.8011H309.08C309.504 26.8011 309.858 26.7462 310.142 26.6364C310.43 26.5227 310.648 26.3523 310.795 26.125C310.943 25.8939 311.017 25.5985 311.017 25.2386C311.017 24.8788 310.943 24.5814 310.795 24.3466C310.648 24.108 310.43 23.9299 310.142 23.8125C309.854 23.6913 309.5 23.6307 309.08 23.6307H307.693V33H304.881ZM311.432 27.6818L314.33 33H311.261L308.42 27.6818H311.432ZM315.474 33V21.3636H323.588V23.6477H318.287V26.0341H323.173V28.3239H318.287V30.7159H323.588V33H315.474ZM327.866 33H324.844L328.77 21.3636H332.514L336.44 33H333.418L330.685 24.2955H330.594L327.866 33ZM327.463 28.4205H333.781V30.5568H327.463V28.4205ZM347.709 25.5795H344.868C344.83 25.2879 344.752 25.0246 344.635 24.7898C344.518 24.5549 344.362 24.3542 344.169 24.1875C343.976 24.0208 343.747 23.8939 343.482 23.8068C343.22 23.7159 342.93 23.6705 342.612 23.6705C342.048 23.6705 341.561 23.8087 341.152 24.0852C340.747 24.3617 340.434 24.7614 340.214 25.2841C339.999 25.8068 339.891 26.4394 339.891 27.1818C339.891 27.9545 340 28.6023 340.22 29.125C340.444 29.6439 340.756 30.036 341.158 30.3011C341.563 30.5625 342.042 30.6932 342.595 30.6932C342.906 30.6932 343.188 30.6534 343.442 30.5739C343.699 30.4943 343.925 30.3788 344.118 30.2273C344.315 30.072 344.476 29.8845 344.601 29.6648C344.73 29.4413 344.819 29.1894 344.868 28.9091L347.709 28.9261C347.66 29.4413 347.51 29.9489 347.26 30.4489C347.014 30.9489 346.675 31.4053 346.243 31.8182C345.811 32.2273 345.285 32.553 344.663 32.7955C344.046 33.0379 343.338 33.1591 342.538 33.1591C341.485 33.1591 340.542 32.928 339.709 32.4659C338.879 32 338.224 31.322 337.743 30.4318C337.262 29.5417 337.021 28.4583 337.021 27.1818C337.021 25.9015 337.266 24.8163 337.754 23.9261C338.243 23.036 338.904 22.3598 339.737 21.8977C340.571 21.4356 341.504 21.2045 342.538 21.2045C343.243 21.2045 343.894 21.303 344.493 21.5C345.091 21.6932 345.618 21.9773 346.072 22.3523C346.527 22.7235 346.896 23.1799 347.18 23.7216C347.464 24.2633 347.641 24.8826 347.709 25.5795ZM348.938 23.6477V21.3636H358.773V23.6477H355.244V33H352.472V23.6477H348.938Z" fill="white"/>
<ellipse cx="208" cy="69.5" rx="3" ry="4.5" fill="#111111"/>
<ellipse cx="237" cy="69.5" rx="3" ry="4.5" fill="#111111"/>
<path d="M197.305 56.4139C197.26 55.7984 197.647 55.2318 198.241 55.0635C202.927 53.7352 206.01 53.6219 210.824 54.1705C211.454 54.2423 211.939 54.756 211.985 55.3883V55.3883C212.053 56.333 211.139 57.0418 210.226 56.7897C206.079 55.6444 203.202 55.7679 199.267 57.5391C198.398 57.9305 197.373 57.365 197.305 56.4139V56.4139Z" fill="#111111"/>
<path d="M233.315 55.4333C233.395 54.8215 233.888 54.3443 234.503 54.2988C239.361 53.9394 242.404 54.448 247.009 55.953C247.612 56.1499 247.984 56.7508 247.902 57.3794V57.3794C247.779 58.3185 246.741 58.8291 245.897 58.3986C242.065 56.4431 239.222 55.9859 235.011 56.9301C234.081 57.1387 233.191 56.3789 233.315 55.4333V55.4333Z" fill="#111111"/>
<rect x="190.5" y="59.5" width="26" height="18" rx="4.5" stroke="black"/>
<rect x="228.5" y="59.5" width="26" height="18" rx="4.5" stroke="black"/>
<path d="M217 66C221.233 65.1026 223.629 65.115 228 66V68C223.701 66.7793 221.299 66.6975 217 68V66Z" fill="#0E0D0D"/>
<path d="M215 86.2122C215 85.134 216.62 84.6877 217.326 85.5027C220.866 89.5907 225.206 89.7123 228.737 85.5247C229.411 84.7254 231 85.1518 231 86.1973V86.1973C231 86.4815 230.875 86.7552 230.66 86.9413C224.511 92.27 221.022 92.4328 215.313 86.9484C215.114 86.7569 215 86.4886 215 86.2122V86.2122Z" fill="#CA6E6E"/>
<circle cx="221.5" cy="161.5" r="6.5" fill="#748A69"/>
<path d="M89 43H158C160.209 43 162 44.7909 162 47V112" stroke="#A2A6A2"/>
<path d="M69.5 106.5H139C143.418 106.5 147 110.082 147 114.5V139C147 143.418 150.582 147 155 147H156" stroke="#A2A6A2"/>
<path d="M354.5 150.5H290.5M341.5 87H322C317.582 87 314 90.5817 314 95V124C314 128.418 310.418 132 306 132H290.5M297.5 24.5H286.5C282.082 24.5 278.5 28.0817 278.5 32.5V110" stroke="#A2A6A2"/>
<path d="M90.4998 173.5C92.9264 170.47 93.4023 168.595 90.4998 164.5C87.1558 160.037 87.5135 157.907 90.4998 154.5C93.9625 150.976 93.4202 148.587 90.4998 144" stroke="#918E8E"/>
<path d="M101 176C103.152 174.505 103.935 173.424 101 169C98.6661 164.794 98.7494 162.958 101 160.5" stroke="#918E8E"/>
<defs>
<linearGradient id="paint0_linear_4_86" x1="214.5" y1="-6.5" x2="214.5" y2="200.5" gradientUnits="userSpaceOnUse">
<stop offset="0.0001" stop-color="#EEEEEE" stop-opacity="0"/>
<stop offset="0.833333" stop-color="#2BE53E" stop-opacity="0.124998"/>
<stop offset="1" stop-color="#46A850" stop-opacity="0.15"/>
</linearGradient>
</defs>
</svg>
