<svg width="441" height="375" viewBox="0 0 441 375" fill="none" xmlns="http://www.w3.org/2000/svg">
<path d="M222 373L228 259L260 265.5L245.5 373H222Z" fill="#98B5AC"/>
<rect x="146" y="93" width="157" height="128" rx="31" fill="#39383C"/>
<g filter="url(#filter0_f_18_79)">
<path d="M148 184C147.919 133.295 150.334 108.283 160.827 100.301C161.567 99.7384 162.516 99.5036 163.446 99.5101C222.417 99.9223 242.017 99.9954 286.848 100.482C287.91 100.494 288.971 100.83 289.773 101.526C303.377 113.33 299.986 139.105 300.5 178.5" stroke="#FFFEFE" stroke-width="0.5"/>
</g>
<g filter="url(#filter1_i_18_79)">
<path d="M250.052 21.1557C238.648 32.1174 223.499 31.0678 194.559 27.6199C192.225 43.2538 189.636 50.7364 181.542 60.5283C158.249 52.8888 163.729 81.6837 186.338 79.3331C193.902 90.1072 199.138 92.7525 209.631 93.4367V108.716C218.996 115.206 224.243 114.07 233.61 108.716V93.4367C245.513 93.123 250.371 88.7896 258.273 79.3331C282.252 77.5701 282.937 57.59 263.754 57.59C265.922 33.4118 261.087 27.8625 250.052 21.1557Z" fill="#EDC4A6"/>
</g>
<path d="M196.819 29.9074C195.617 47.6549 192.158 54.369 181.399 61.0838L176.259 58.8569C173.797 40.4766 174.328 33.8857 177.544 26.5671C179.266 23.9442 180.929 23.2777 185.254 23.7835C196.819 5.41165 230.23 3.18476 257.858 16.5461C267.902 26.3237 269.956 35.9966 268.78 58.8569C265.502 58.0826 263.808 58.0349 261.07 58.8569C264.106 42.0691 259.916 35.2401 250.79 23.7835C232.913 35.2265 220.539 34.9875 196.819 29.9074Z" fill="#6E5E5A"/>
<path d="M233.104 108.449C223.994 114.515 218.905 114.281 209.802 108.449H188.889C169.307 114.039 161.839 148.312 146.466 191.234C145.009 200.235 146.798 202.87 154.234 203.575H291.66C303.936 205.207 305.987 202.18 306 193.805C288.301 144.974 270.337 112.814 254.615 108.449H233.104Z" fill="#ECE8E3"/>
<g filter="url(#filter2_f_18_79)">
<path d="M210 108C219.909 114.857 224.881 114.473 233 108" stroke="black" stroke-width="0.2"/>
</g>
<g filter="url(#filter3_f_18_79)">
<path d="M286.5 149.5L304.5 193C305.175 195.747 305.143 196.937 304.5 198.5H285" stroke="#FFFBFB"/>
</g>
<rect x="165" y="114" width="121" height="76.3768" rx="4" fill="white"/>
<rect x="165" y="190.377" width="121" height="8.62319" rx="4.31159" fill="#9DA29F"/>
<rect x="3" y="199" width="435" height="11" rx="4" fill="#452323"/>
<rect x="146" y="236" width="157" height="25" rx="4" fill="#39383C"/>
<path d="M36 210H406V231C406 235.418 402.418 239 398 239H44C39.5817 239 36 235.418 36 231V210Z" fill="#745C5C"/>
<path d="M301.5 273L301.998 271.472C302.515 271.57 303 271.5 303 271.5L301.5 273Z" fill="#4B4641"/>
<path d="M170.788 260L180.75 260.876L162.969 440.159L157.324 439.662L170.788 260Z" fill="#848A83"/>
<path d="M51.7881 238L61.7496 238.876L43.969 418.159L38.3242 417.662L51.7881 238Z" fill="#745C5C"/>
<path d="M370.046 239.27L379.983 238.147L398.225 417.383L392.595 418.019L370.046 239.27Z" fill="#745C5C"/>
<path d="M265.205 256.813L275.152 255.787L291.641 435.193L286.005 435.775L265.205 256.813Z" fill="#848A83"/>
<rect x="110.5" y="177.5" width="14" height="16" rx="5.5" stroke="#989998" stroke-width="3"/>
<path d="M87.9396 199.064C87.9736 199.591 88.4103 200 88.9376 200H111.607C112.115 200 112.543 199.618 112.6 199.112L115.874 170.112C115.941 169.519 115.477 169 114.881 169H87.0666C86.489 169 86.0315 169.488 86.0687 170.064L87.9396 199.064Z" fill="#989998"/>
<rect x="36" y="18" width="56" height="33" rx="10" fill="#5D3DE8"/>
<rect x="8" y="81" width="65" height="33" rx="10" fill="#9949FF"/>
<rect x="301" y="1" width="65" height="33" rx="10" fill="#9949FF"/>
<path d="M19.8807 104V92.3636H22.6932V97.0341H27.2784V92.3636H30.0852V104H27.2784V99.3239H22.6932V104H19.8807ZM31.4688 94.6477V92.3636H41.304V94.6477H37.7756V104H35.0028V94.6477H31.4688ZM42.6776 92.3636H46.1605L49.1151 99.5682H49.2514L52.206 92.3636H55.6889V104H52.9503V96.8523H52.8537L50.0582 103.926H48.3082L45.5128 96.8125H45.4162V104H42.6776V92.3636ZM57.4432 104V92.3636H60.2557V101.716H65.0966V104H57.4432Z" fill="white"/>
<path d="M44.2461 37.2915V34.1665L56.7461 28.6623V32.2578L48.1879 35.6935L48.3033 35.5071V35.951L48.1879 35.7646L56.7461 39.2003V42.7958L44.2461 37.2915ZM68.4205 23.9659L62.5611 45.7344H59.3029L65.1623 23.9659H68.4205ZM83.4795 37.2915L70.9795 42.7958V39.2003L79.5377 35.7646L79.4223 35.951V35.5071L79.5377 35.6935L70.9795 32.2578V28.6623L83.4795 34.1665V37.2915Z" fill="white"/>
<rect x="357" y="122" width="54" height="34" rx="6" fill="#F45D78"/>
<path d="M378.874 137.652H375.678C375.635 137.324 375.548 137.028 375.415 136.763C375.283 136.499 375.109 136.273 374.891 136.086C374.674 135.898 374.416 135.756 374.118 135.658C373.824 135.555 373.498 135.504 373.14 135.504C372.505 135.504 371.957 135.66 371.497 135.971C371.041 136.282 370.69 136.732 370.442 137.32C370.2 137.908 370.078 138.619 370.078 139.455C370.078 140.324 370.202 141.053 370.449 141.641C370.7 142.224 371.052 142.665 371.504 142.964C371.96 143.258 372.499 143.405 373.121 143.405C373.47 143.405 373.788 143.36 374.073 143.271C374.363 143.181 374.616 143.051 374.834 142.881C375.055 142.706 375.237 142.495 375.377 142.248C375.522 141.996 375.622 141.713 375.678 141.398L378.874 141.417C378.818 141.996 378.65 142.567 378.369 143.13C378.092 143.692 377.71 144.206 377.224 144.67C376.739 145.131 376.146 145.497 375.447 145.77C374.753 146.043 373.956 146.179 373.057 146.179C371.872 146.179 370.811 145.919 369.874 145.399C368.94 144.875 368.203 144.112 367.662 143.111C367.121 142.109 366.85 140.891 366.85 139.455C366.85 138.014 367.125 136.793 367.675 135.792C368.224 134.79 368.968 134.03 369.906 133.51C370.843 132.99 371.893 132.73 373.057 132.73C373.849 132.73 374.582 132.841 375.256 133.062C375.929 133.28 376.521 133.599 377.033 134.021C377.544 134.439 377.96 134.952 378.279 135.562C378.599 136.171 378.797 136.868 378.874 137.652ZM387.76 136.834C387.718 136.365 387.528 136.001 387.191 135.741C386.859 135.477 386.384 135.344 385.766 135.344C385.357 135.344 385.016 135.398 384.743 135.504C384.47 135.611 384.266 135.758 384.129 135.945C383.993 136.129 383.923 136.339 383.919 136.578C383.91 136.774 383.948 136.947 384.034 137.096C384.123 137.245 384.251 137.377 384.417 137.492C384.588 137.603 384.792 137.701 385.031 137.786C385.269 137.871 385.538 137.946 385.836 138.01L386.961 138.266C387.609 138.406 388.18 138.594 388.674 138.828C389.173 139.062 389.59 139.342 389.927 139.665C390.268 139.989 390.526 140.362 390.7 140.784C390.875 141.206 390.965 141.679 390.969 142.203C390.965 143.03 390.756 143.739 390.343 144.332C389.929 144.924 389.335 145.378 388.559 145.693C387.788 146.009 386.857 146.166 385.766 146.166C384.671 146.166 383.716 146.002 382.902 145.674C382.088 145.346 381.455 144.847 381.004 144.178C380.552 143.509 380.32 142.663 380.307 141.641H383.337C383.362 142.062 383.475 142.414 383.676 142.695C383.876 142.977 384.151 143.19 384.5 143.335C384.854 143.479 385.263 143.552 385.727 143.552C386.154 143.552 386.516 143.494 386.814 143.379C387.117 143.264 387.349 143.104 387.511 142.9C387.673 142.695 387.756 142.461 387.76 142.197C387.756 141.95 387.679 141.739 387.53 141.564C387.381 141.385 387.151 141.232 386.84 141.104C386.533 140.972 386.141 140.85 385.664 140.739L384.296 140.42C383.162 140.16 382.269 139.74 381.617 139.161C380.965 138.577 380.642 137.788 380.646 136.795C380.642 135.986 380.859 135.276 381.298 134.667C381.737 134.058 382.344 133.582 383.119 133.241C383.895 132.901 384.779 132.73 385.772 132.73C386.786 132.73 387.666 132.903 388.412 133.248C389.162 133.589 389.744 134.068 390.157 134.686C390.57 135.304 390.781 136.02 390.79 136.834H387.76ZM399.643 136.834C399.6 136.365 399.411 136.001 399.074 135.741C398.742 135.477 398.267 135.344 397.649 135.344C397.24 135.344 396.899 135.398 396.626 135.504C396.353 135.611 396.149 135.758 396.012 135.945C395.876 136.129 395.806 136.339 395.801 136.578C395.793 136.774 395.831 136.947 395.916 137.096C396.006 137.245 396.134 137.377 396.3 137.492C396.47 137.603 396.675 137.701 396.914 137.786C397.152 137.871 397.421 137.946 397.719 138.01L398.844 138.266C399.492 138.406 400.063 138.594 400.557 138.828C401.056 139.062 401.473 139.342 401.81 139.665C402.151 139.989 402.409 140.362 402.583 140.784C402.758 141.206 402.847 141.679 402.852 142.203C402.847 143.03 402.639 143.739 402.225 144.332C401.812 144.924 401.218 145.378 400.442 145.693C399.671 146.009 398.74 146.166 397.649 146.166C396.553 146.166 395.599 146.002 394.785 145.674C393.971 145.346 393.338 144.847 392.887 144.178C392.435 143.509 392.203 142.663 392.19 141.641H395.22C395.245 142.062 395.358 142.414 395.558 142.695C395.759 142.977 396.034 143.19 396.383 143.335C396.737 143.479 397.146 143.552 397.61 143.552C398.036 143.552 398.399 143.494 398.697 143.379C398.999 143.264 399.232 143.104 399.394 142.9C399.556 142.695 399.639 142.461 399.643 142.197C399.639 141.95 399.562 141.739 399.413 141.564C399.264 141.385 399.034 141.232 398.722 141.104C398.416 140.972 398.024 140.85 397.546 140.739L396.178 140.42C395.045 140.16 394.152 139.74 393.5 139.161C392.848 138.577 392.524 137.788 392.529 136.795C392.524 135.986 392.742 135.276 393.181 134.667C393.619 134.058 394.227 133.582 395.002 133.241C395.778 132.901 396.662 132.73 397.655 132.73C398.669 132.73 399.549 132.903 400.295 133.248C401.045 133.589 401.627 134.068 402.04 134.686C402.453 135.304 402.664 136.02 402.673 136.834H399.643Z" fill="white"/>
<rect x="344" y="60" width="56" height="33" rx="6" fill="#5C3DDE"/>
<path d="M368.36 69.7273H372V80.2869C371.995 81.2763 371.759 82.1413 371.291 82.8821C370.824 83.6179 370.178 84.1896 369.352 84.5973C368.532 85.005 367.582 85.2088 366.504 85.2088C365.549 85.2088 364.681 85.0423 363.901 84.7092C363.125 84.3761 362.506 83.859 362.044 83.158C361.587 82.457 361.36 81.5597 361.365 80.4659H365.042C365.057 80.8587 365.131 81.1942 365.266 81.4727C365.405 81.7461 365.596 81.9524 365.84 82.0916C366.083 82.2308 366.374 82.3004 366.712 82.3004C367.065 82.3004 367.364 82.2259 367.607 82.0767C367.851 81.9226 368.035 81.6964 368.159 81.3981C368.288 81.0998 368.355 80.7294 368.36 80.2869V69.7273ZM382.572 74.3061C382.523 73.7592 382.301 73.3342 381.909 73.0309C381.521 72.7227 380.967 72.5685 380.246 72.5685C379.768 72.5685 379.371 72.6307 379.052 72.755C378.734 72.8793 378.496 73.0508 378.337 73.2695C378.177 73.4833 378.095 73.7294 378.09 74.0078C378.081 74.2365 378.125 74.4379 378.225 74.6119C378.329 74.7859 378.478 74.94 378.672 75.0742C378.871 75.2035 379.11 75.3178 379.388 75.4173C379.666 75.5167 379.98 75.6037 380.328 75.6783L381.64 75.9766C382.396 76.1406 383.062 76.3594 383.639 76.6328C384.22 76.9062 384.708 77.2319 385.1 77.6097C385.498 77.9876 385.799 78.4226 386.003 78.9148C386.207 79.407 386.311 79.9588 386.316 80.5703C386.311 81.5348 386.067 82.3626 385.585 83.0536C385.103 83.7447 384.409 84.2741 383.505 84.642C382.605 85.0099 381.518 85.1939 380.246 85.1939C378.968 85.1939 377.854 85.0025 376.905 84.6197C375.955 84.2369 375.217 83.6552 374.69 82.8746C374.163 82.0941 373.892 81.1072 373.877 79.9141H377.412C377.442 80.4062 377.573 80.8164 377.807 81.1445C378.041 81.4727 378.361 81.7212 378.769 81.8903C379.182 82.0593 379.659 82.1438 380.201 82.1438C380.698 82.1438 381.121 82.0767 381.469 81.9425C381.822 81.8082 382.093 81.6218 382.282 81.3832C382.47 81.1445 382.567 80.8711 382.572 80.5629C382.567 80.2745 382.478 80.0284 382.304 79.8246C382.13 79.6158 381.861 79.4368 381.498 79.2876C381.141 79.1335 380.683 78.9918 380.126 78.8626L378.53 78.4897C377.208 78.1864 376.166 77.6967 375.406 77.0206C374.645 76.3395 374.267 75.4197 374.272 74.2614C374.267 73.3168 374.521 72.489 375.033 71.7781C375.545 71.0671 376.253 70.5128 377.158 70.1151C378.063 69.7173 379.095 69.5185 380.253 69.5185C381.436 69.5185 382.463 69.7198 383.333 70.1225C384.208 70.5202 384.887 71.0795 385.369 71.8004C385.851 72.5213 386.097 73.3565 386.107 74.3061H382.572Z" fill="white"/>
<path d="M307.881 24V12.3636H312.688C313.559 12.3636 314.311 12.5208 314.943 12.8352C315.58 13.1458 316.07 13.5928 316.415 14.1761C316.759 14.7557 316.932 15.4432 316.932 16.2386C316.932 17.0455 316.756 17.7311 316.403 18.2955C316.051 18.8561 315.551 19.2841 314.903 19.5795C314.256 19.8712 313.489 20.017 312.602 20.017H309.562V17.8011H312.08C312.504 17.8011 312.858 17.7462 313.142 17.6364C313.43 17.5227 313.648 17.3523 313.795 17.125C313.943 16.8939 314.017 16.5985 314.017 16.2386C314.017 15.8788 313.943 15.5814 313.795 15.3466C313.648 15.108 313.43 14.9299 313.142 14.8125C312.854 14.6913 312.5 14.6307 312.08 14.6307H310.693V24H307.881ZM314.432 18.6818L317.33 24H314.261L311.42 18.6818H314.432ZM318.474 24V12.3636H326.588V14.6477H321.287V17.0341H326.173V19.3239H321.287V21.7159H326.588V24H318.474ZM330.866 24H327.844L331.77 12.3636H335.514L339.44 24H336.418L333.685 15.2955H333.594L330.866 24ZM330.463 19.4205H336.781V21.5568H330.463V19.4205ZM350.709 16.5795H347.868C347.83 16.2879 347.752 16.0246 347.635 15.7898C347.518 15.5549 347.362 15.3542 347.169 15.1875C346.976 15.0208 346.747 14.8939 346.482 14.8068C346.22 14.7159 345.93 14.6705 345.612 14.6705C345.048 14.6705 344.561 14.8087 344.152 15.0852C343.747 15.3617 343.434 15.7614 343.214 16.2841C342.999 16.8068 342.891 17.4394 342.891 18.1818C342.891 18.9545 343 19.6023 343.22 20.125C343.444 20.6439 343.756 21.036 344.158 21.3011C344.563 21.5625 345.042 21.6932 345.595 21.6932C345.906 21.6932 346.188 21.6534 346.442 21.5739C346.699 21.4943 346.925 21.3788 347.118 21.2273C347.315 21.072 347.476 20.8845 347.601 20.6648C347.73 20.4413 347.819 20.1894 347.868 19.9091L350.709 19.9261C350.66 20.4413 350.51 20.9489 350.26 21.4489C350.014 21.9489 349.675 22.4053 349.243 22.8182C348.811 23.2273 348.285 23.553 347.663 23.7955C347.046 24.0379 346.338 24.1591 345.538 24.1591C344.485 24.1591 343.542 23.928 342.709 23.4659C341.879 23 341.224 22.322 340.743 21.4318C340.262 20.5417 340.021 19.4583 340.021 18.1818C340.021 16.9015 340.266 15.8163 340.754 14.9261C341.243 14.036 341.904 13.3598 342.737 12.8977C343.571 12.4356 344.504 12.2045 345.538 12.2045C346.243 12.2045 346.894 12.303 347.493 12.5C348.091 12.6932 348.618 12.9773 349.072 13.3523C349.527 13.7235 349.896 14.1799 350.18 14.7216C350.464 15.2633 350.641 15.8826 350.709 16.5795ZM351.938 14.6477V12.3636H361.773V14.6477H358.244V24H355.472V14.6477H351.938Z" fill="white"/>
<ellipse cx="211" cy="60.5" rx="3" ry="4.5" fill="#111111"/>
<ellipse cx="240" cy="60.5" rx="3" ry="4.5" fill="#111111"/>
<path d="M200.305 47.4139C200.26 46.7984 200.647 46.2318 201.241 46.0635C205.927 44.7352 209.01 44.6219 213.824 45.1705C214.454 45.2423 214.939 45.756 214.985 46.3883C215.053 47.333 214.139 48.0418 213.226 47.7897C209.079 46.6444 206.202 46.7679 202.267 48.5391C201.398 48.9305 200.373 48.365 200.305 47.4139Z" fill="#111111"/>
<path d="M236.315 46.4333C236.395 45.8215 236.888 45.3443 237.503 45.2988C242.361 44.9394 245.404 45.448 250.009 46.953C250.612 47.1499 250.984 47.7508 250.902 48.3794C250.779 49.3185 249.741 49.8291 248.897 49.3986C245.065 47.4431 242.222 46.9859 238.011 47.9301C237.081 48.1387 236.191 47.3789 236.315 46.4333Z" fill="#111111"/>
<rect x="231.5" y="50.5" width="26" height="18" rx="4.5" stroke="black"/>
<path d="M220 57C224.233 56.1026 226.629 56.115 231 57V59C226.701 57.7793 224.299 57.6975 220 59V57Z" fill="#0E0D0D"/>
<path d="M218 77.2122C218 76.134 219.62 75.6877 220.326 76.5027C223.866 80.5907 228.206 80.7123 231.737 76.5247C232.411 75.7254 234 76.1518 234 77.1973C234 77.4815 233.875 77.7552 233.66 77.9413C227.511 83.27 224.022 83.4328 218.313 77.9484C218.114 77.7569 218 77.4886 218 77.2122Z" fill="#CA6E6E"/>
<circle cx="224.5" cy="152.5" r="6.5" fill="#748A69"/>
<path d="M92 34H161C163.209 34 165 35.7909 165 38V103" stroke="#A2A6A2"/>
<path d="M307.999 255.5L307 260.288L306.226 259.956L307.999 255.5Z" fill="#4B4641"/>
<path d="M72.5 97.5H142C146.418 97.5 150 101.082 150 105.5V130C150 134.418 153.582 138 158 138H159" stroke="#A2A6A2"/>
<path d="M357.5 141.5H293.5M344.5 78H325C320.582 78 317 81.5817 317 86V115C317 119.418 313.418 123 309 123H293.5M300.5 15.5H289.5C285.082 15.5 281.5 19.0817 281.5 23.5V101" stroke="#A2A6A2"/>
<path d="M93.4998 164.5C95.9264 161.47 96.4023 159.595 93.4998 155.5C90.1558 151.037 90.5135 148.907 93.4998 145.5C96.9625 141.976 96.4202 139.587 93.4998 135" stroke="#918E8E"/>
<path d="M104 167C106.152 165.505 106.935 164.424 104 160C101.666 155.794 101.749 153.958 104 151.5" stroke="#918E8E"/>
<rect x="193.5" y="50.5" width="26" height="18" rx="4.5" stroke="black"/>
<path d="M269.546 239H168.046C166.581 249.044 200.096 256.622 301.546 273L308.046 255.5L269.546 239Z" fill="#96B3AA"/>
<g filter="url(#filter4_f_18_79)">
<path d="M149.5 240.5V256.511C149.5 256.783 149.717 257.005 149.989 257.011L215 258.5" stroke="#FFFCFC" stroke-width="0.5"/>
</g>
<path d="M306.255 260.002L313.165 262.451L309.155 273.762L302 271.5L306.255 260.002Z" fill="#E6C6A4"/>
<path d="M308 274L312.5 261L323 264.5L320 306C311.697 301.274 310.355 293.656 311 275.5L308 274Z" fill="#786A66"/>
<g filter="url(#filter5_f_18_79)">
<path d="M248.564 27.4471C248.13 26.8087 248.303 25.9342 248.954 25.5185V25.5185C249.62 25.0935 250.508 25.3259 250.886 26.0194C256.743 36.7735 257.295 37.9622 260.047 50.082C260.085 50.2514 260.083 50.4336 260.037 50.6011V50.6011C259.726 51.7357 258.02 51.5941 257.864 50.4281C256.623 41.1693 254.547 36.2388 248.564 27.4471Z" fill="#FFFEFE"/>
</g>
<g filter="url(#filter6_f_18_79)">
<path d="M197.168 31.5022C197.192 31.1668 197.442 30.8836 197.774 30.8276V30.8276C198.277 30.7427 198.709 31.1909 198.602 31.69C196.192 42.9743 193.321 48.6414 190.929 61.3244C190.85 61.7432 190.53 62.0817 190.114 62.1764V62.1764C189.23 62.3777 188.518 61.4553 188.94 60.6524C192.578 53.7171 196.048 47.0282 197.168 31.5022Z" fill="#FFFEFE"/>
</g>
<g filter="url(#filter7_f_18_79)">
<path d="M207.121 90.3739C208.21 90.5397 208.797 91.7614 208.214 92.6962C207.838 93.297 207.093 93.5569 206.43 93.3082C200.482 91.0778 197.329 88.9097 193.784 83.918C193.356 83.3159 193.469 82.4898 194.028 82.0066C194.81 81.3296 196.028 81.6602 196.425 82.6156C198.729 88.1551 201.406 89.5043 207.121 90.3739Z" fill="#AC926C"/>
</g>
<g filter="url(#filter8_f_18_79)">
<path d="M254.201 76.905C254.823 76.0402 256.095 75.981 256.781 76.7957C257.322 77.4371 257.283 78.3879 256.688 78.979C250.241 85.3827 245.722 88.5381 237.58 91.5835C236.717 91.9063 235.767 91.4148 235.516 90.5282C235.252 89.5956 235.876 88.6467 236.832 88.4849C245.805 86.9662 249.04 84.0767 254.201 76.905Z" fill="white"/>
</g>
<g filter="url(#filter9_f_18_79)">
<path d="M209.639 88.6513C210.69 88.8263 211.306 89.9405 210.88 90.9168C210.544 91.6855 209.675 92.0719 208.881 91.8C200.285 88.8544 195.455 86.1998 189.119 80.2477C188.447 79.6168 188.468 78.5475 189.151 77.9297C189.87 77.2796 190.998 77.4195 191.566 78.2049C196.9 85.5777 200.924 87.1993 209.639 88.6513Z" fill="white"/>
</g>
<g filter="url(#filter10_f_18_79)">
<rect x="212" y="94" width="2" height="15" rx="1" fill="#FFFBFB"/>
</g>
<g filter="url(#filter11_f_18_79)">
<rect x="229" y="94" width="2" height="15" rx="1" fill="#FFFBFB"/>
</g>
<g filter="url(#filter12_f_18_79)">
<path d="M238.02 46.3356C238.029 46.2146 238.131 46.1211 238.253 46.1216C242.306 46.1393 244.579 46.7783 248.792 47.4663C248.911 47.4857 249 47.5885 249 47.7087C249 47.8608 248.861 47.9757 248.711 47.9491C244.5 47.1994 242.352 46.5703 238.255 46.5872C238.119 46.5877 238.009 46.4718 238.02 46.3356Z" fill="#D9D9D9"/>
</g>
<g filter="url(#filter13_f_18_79)">
<path d="M238.02 46.3356C238.029 46.2146 238.131 46.1211 238.253 46.1216C242.306 46.1393 244.579 46.7783 248.792 47.4663C248.911 47.4857 249 47.5885 249 47.7087C249 47.8608 248.861 47.9757 248.711 47.9491C244.5 47.1994 242.352 46.5703 238.255 46.5872C238.119 46.5877 238.009 46.4718 238.02 46.3356Z" fill="#D9D9D9"/>
</g>
<g filter="url(#filter14_f_18_79)">
<path d="M201.04 46.6654C201.025 46.5449 201.107 46.4329 201.226 46.4095C205.203 45.6253 207.557 45.8024 211.823 45.6436C211.943 45.6392 212.051 45.7223 212.074 45.8402C212.104 45.9893 211.991 46.1294 211.839 46.1329C207.563 46.2308 205.333 46.0388 201.32 46.8653C201.187 46.8928 201.056 46.801 201.04 46.6654Z" fill="#D9D9D9"/>
</g>
<g filter="url(#filter15_f_18_79)">
<path d="M218.5 77.4511C218.5 77.3097 218.685 77.2496 218.773 77.3602C222.529 82.0804 229.922 82.1677 233.271 77.8132C233.371 77.6836 233.277 77.5 233.113 77.5C233.043 77.5 232.977 77.5371 232.939 77.5963C229.856 82.4223 222.461 82.6829 218.53 77.5393C218.511 77.5141 218.5 77.4828 218.5 77.4511Z" fill="white"/>
</g>
<g filter="url(#filter16_f_18_79)">
<ellipse cx="212.5" cy="62" rx="0.5" ry="1" fill="#FEFDFD"/>
</g>
<g filter="url(#filter17_f_18_79)">
<ellipse cx="238.5" cy="62" rx="0.5" ry="1" fill="#FEFDFD"/>
</g>
<g filter="url(#filter18_f_18_79)">
<path d="M164.113 144.277L164.851 144.819C158.71 164.969 145.697 195.771 147.14 198.546L146.36 198.462C144.378 195.834 156.695 165.424 164.113 144.277Z" fill="white"/>
</g>
<g filter="url(#filter19_f_18_79)">
<path d="M147 197.961C147 197.831 147.741 197.296 147.87 197.312C150.383 197.624 157.877 197.143 164.491 197.01C164.771 197.004 165 197.23 165 197.51C165 197.782 164.781 198.005 164.509 198.011C155.241 198.216 147.673 198.509 147.026 198.024C147.006 198.009 147 197.986 147 197.961Z" fill="white"/>
</g>
<g filter="url(#filter20_f_18_79)">
<path d="M183.5 113.5C184.32 112.345 185.119 111.601 186.496 110.983C188.414 110.121 190.561 109.973 192.662 109.919L201.297 109.698C206.339 109.568 211.201 111.115 215.959 112.788C219.558 114.053 222.634 114.256 225.85 113.352C231.245 111.834 236.496 109.5 242.1 109.5H249.353C252.756 109.5 256.338 109.8 259.065 111.836C259.668 112.286 260.294 112.824 261 113.5" stroke="#FFF9F9"/>
</g>
<g filter="url(#filter21_f_18_79)">
<path d="M177.907 61.4091C177.965 61.4336 178.034 61.4417 178.096 61.4292V61.4292C178.461 61.3562 178.411 60.8878 178.039 60.896C165.058 61.1803 166.116 70.9529 178.406 77.2457C178.965 77.5316 178.771 78.4484 178.144 78.4484V78.4484C178.05 78.4484 177.954 78.4239 177.871 78.3791C163.048 70.3844 165.028 56.0337 177.907 61.4091Z" fill="white"/>
</g>
<g filter="url(#filter22_f_18_79)">
<path d="M260.635 76.7697C260.248 76.6181 260 76.2333 260 75.8172V75.8172C260 75.1395 260.632 74.6373 261.3 74.7491C275.608 77.1427 276.254 65.2884 269.701 60.2902C269.393 60.0553 269.55 59.5 269.937 59.5V59.5C269.979 59.5 270.023 59.5078 270.062 59.5217C282.737 63.9772 272.362 81.3606 260.635 76.7697Z" fill="white"/>
</g>
<g filter="url(#filter23_f_18_79)">
<path d="M170.5 183.5V121C170.5 119.343 171.843 118 173.5 118H279.5C281.157 118 282.5 119.343 282.5 121V183.5C282.5 185.157 281.157 186.5 279.5 186.5H173.5C171.843 186.5 170.5 185.157 170.5 183.5Z" stroke="white" stroke-width="2"/>
</g>
<g filter="url(#filter24_f_18_79)">
<circle cx="225" cy="153" r="3.5" stroke="#FFFBFB"/>
</g>
<g filter="url(#filter25_f_18_79)">
<rect x="167" y="196" width="118" height="2" rx="1" fill="#FBFAFA"/>
</g>
<g filter="url(#filter26_f_18_79)">
<path d="M170.071 240.63C169.737 240.554 169.5 240.257 169.5 239.914V239.914C169.5 239.445 169.934 239.096 170.393 239.198L301.146 268.2C301.833 268.352 302.194 269.11 301.88 269.74V269.74C301.657 270.186 301.158 270.422 300.672 270.312L170.071 240.63Z" fill="white"/>
</g>
<g filter="url(#filter27_f_18_79)">
<path d="M264.457 239.311C264.296 239.24 264.19 239.082 264.185 238.906V238.906C264.175 238.57 264.518 238.339 264.826 238.474L306.157 256.631C306.402 256.739 306.519 257.021 306.42 257.271V257.271C306.316 257.535 306.014 257.659 305.754 257.544L264.457 239.311Z" fill="white"/>
</g>
<g filter="url(#filter28_f_18_79)">
<rect x="230.745" y="262.576" width="2" height="111.394" rx="1" transform="rotate(2.7386 230.745 262.576)" fill="#FFFBFB"/>
</g>
<g filter="url(#filter29_f_18_79)">
<path d="M253.346 267.637C253.394 267.23 253.723 266.914 254.132 266.881V266.881C254.671 266.838 255.115 267.299 255.054 267.836L243.129 371.521C243.074 371.996 242.691 372.366 242.215 372.404V372.404C241.586 372.453 241.069 371.916 241.143 371.29L253.346 267.637Z" fill="#FFFCFC"/>
</g>
<g filter="url(#filter30_f_18_79)">
<path d="M306.945 260L311.705 261.978C312.195 262.182 312.441 262.733 312.265 263.234L309.279 271.721C309.093 272.25 308.508 272.523 307.983 272.324L303 270.442" stroke="#FFFBFB" stroke-width="0.5"/>
</g>
<g filter="url(#filter31_f_18_79)">
<path d="M277 240H296.5C298.157 240 299.5 241.343 299.5 243V250.5" stroke="#FFFCFC" stroke-width="0.5"/>
</g>
<g filter="url(#filter32_f_18_79)">
<path d="M6.5 206.5H434.5" stroke="#FFFCFC"/>
</g>
<g filter="url(#filter33_f_18_79)">
<path d="M41 212.5V229C41 231.761 43.2386 234 46 234H396C398.761 234 401 231.761 401 229V214.5" stroke="#FFFEFE"/>
</g>
<g filter="url(#filter34_f_18_79)">
<path d="M313 275.5C312.239 293.391 312.973 300.53 318 304" stroke="#FFFEFE"/>
</g>
<g filter="url(#filter35_f_18_79)">
<path d="M58.5 241L46.5 374.5M373.5 241L391 374.5" stroke="#FFFEFE"/>
</g>
<g filter="url(#filter36_f_18_79)">
<path d="M177.5 262.5L166 373.5M270 269L280.5 373.5" stroke="#FFFEFE"/>
</g>
<g filter="url(#filter37_f_18_79)">
<path d="M11 96V106C11 108.761 13.2386 111 16 111H38.5333M48.6476 84H65C67.7614 84 70 86.2386 70 89V97.8462" stroke="#FFFEFE" stroke-width="0.5"/>
</g>
<g filter="url(#filter38_f_18_79)">
<path d="M39 33V43C39 45.7614 41.2386 48 44 48H61.8667M70.2667 21H83C85.7614 21 88 23.2386 88 26V34.8462" stroke="#FFFEFE" stroke-width="0.5"/>
</g>
<g filter="url(#filter39_f_18_79)">
<path d="M305 15.1111V24C305 26.7614 307.239 29 310 29H332.067M342.01 4H358C360.761 4 363 6.23858 363 9V16.8205" stroke="#FFFEFE" stroke-width="0.5"/>
</g>
<g filter="url(#filter40_f_18_79)">
<path d="M347 75V85C347 87.7614 349.239 90 352 90H370.333M378.905 63H392C394.761 63 397 65.2386 397 68V76.8462" stroke="#FFFEFE" stroke-width="0.5"/>
</g>
<g filter="url(#filter41_f_18_79)">
<path d="M361 138V148C361 150.761 363.239 153 366 153H382.933M390.99 126H403C405.761 126 408 128.239 408 131V139.846" stroke="#FFFEFE" stroke-width="0.5"/>
</g>
<g filter="url(#filter42_f_18_79)">
<path d="M95.5 171.5V197.5" stroke="#FFFEFE" stroke-width="0.5"/>
</g>
<g filter="url(#filter43_f_18_79)">
<path d="M193.249 25.4241C192.714 26.295 191.648 26.7272 190.691 26.3683V26.3683C189.5 25.9218 189.025 24.4866 189.843 23.5125C204.353 6.2167 250.635 8.91146 263.289 27.583C263.625 28.0792 263.447 28.7447 262.926 29.0421V29.0421C262.466 29.305 261.887 29.1931 261.547 28.7868C246.516 10.8479 205.044 6.22751 193.249 25.4241Z" fill="#4E3E3E"/>
</g>
<g filter="url(#filter44_f_18_79)">
<path d="M196.91 26.9103C196.621 26.6207 196.877 26.1298 197.282 26.1889C219.663 29.4495 231.286 29.1215 247.896 20.8046C248.254 20.6256 248.691 20.6913 248.974 20.9739V20.9739C249.452 21.4517 249.269 22.2652 248.633 22.4943C231.772 28.5719 220.416 31.8579 197.126 27.0262C197.045 27.0094 196.969 26.9688 196.91 26.9103V26.9103Z" fill="#554544"/>
</g>
<g filter="url(#filter45_f_18_79)">
<path d="M189 25C186.885 24.6201 185.489 24.5105 183.828 24.7007C182.64 24.8366 181.58 25.5085 180.906 26.4952C176.815 32.4817 175.816 39.284 178 58" stroke="#4E3F3F" stroke-width="0.5"/>
</g>
<rect x="114" y="210" width="223" height="29" rx="8" fill="#3D3B3B"/>
<g filter="url(#filter46_d_18_79)">
<path d="M125.002 236C124.941 236 124.872 235.977 124.795 235.931C124.734 235.87 124.703 235.801 124.703 235.724V223.028C124.703 222.951 124.695 222.905 124.68 222.89C124.665 222.875 124.619 222.867 124.542 222.867H121.759C121.59 222.867 121.483 222.852 121.437 222.821C121.406 222.775 121.391 222.698 121.391 222.591V220.797C121.391 220.69 121.406 220.621 121.437 220.59C121.483 220.544 121.575 220.521 121.713 220.521H130.729C130.882 220.521 130.982 220.544 131.028 220.59C131.074 220.621 131.097 220.69 131.097 220.797V222.568C131.097 222.691 131.074 222.775 131.028 222.821C130.982 222.852 130.875 222.867 130.706 222.867H127.923C127.831 222.867 127.777 222.875 127.762 222.89C127.747 222.905 127.739 222.951 127.739 223.028V235.724C127.739 235.908 127.647 236 127.463 236H125.002ZM133.283 236C133.084 236 132.984 235.908 132.984 235.724V220.82C132.984 220.621 133.084 220.521 133.283 220.521H140.965C141.149 220.521 141.257 220.536 141.287 220.567C141.318 220.598 141.333 220.697 141.333 220.866V222.476C141.333 222.66 141.31 222.775 141.264 222.821C141.218 222.852 141.119 222.867 140.965 222.867H136.227C136.12 222.867 136.059 222.875 136.043 222.89C136.028 222.905 136.02 222.959 136.02 223.051V226.846C136.02 226.938 136.028 226.999 136.043 227.03C136.074 227.045 136.128 227.053 136.204 227.053H139.93C140.13 227.053 140.245 227.076 140.275 227.122C140.306 227.153 140.321 227.275 140.321 227.49V228.939C140.321 229.138 140.298 229.261 140.252 229.307C140.222 229.338 140.114 229.353 139.93 229.353H136.204C136.128 229.353 136.074 229.361 136.043 229.376C136.028 229.391 136.02 229.437 136.02 229.514V233.447C136.02 233.539 136.028 233.6 136.043 233.631C136.059 233.646 136.112 233.654 136.204 233.654H140.919C141.134 233.654 141.257 233.677 141.287 233.723C141.318 233.769 141.333 233.892 141.333 234.091V235.563C141.333 235.778 141.31 235.908 141.264 235.954C141.218 235.985 141.096 236 140.896 236H133.283ZM152.03 235.195C152.03 235.563 151.815 235.801 151.386 235.908C151.171 235.985 150.903 236.038 150.581 236.069C150.274 236.115 149.975 236.146 149.684 236.161C149.408 236.176 149.193 236.184 149.04 236.184C147.185 236.184 145.697 235.517 144.578 234.183C143.459 232.849 142.899 230.886 142.899 228.295C142.899 225.688 143.436 223.718 144.509 222.384C145.598 221.035 147.108 220.36 149.04 220.36C149.193 220.36 149.408 220.375 149.684 220.406C149.975 220.421 150.274 220.452 150.581 220.498C150.903 220.529 151.171 220.582 151.386 220.659C151.601 220.705 151.762 220.766 151.869 220.843C151.976 220.92 152.03 221.027 152.03 221.165V223.166C152.03 223.58 151.808 223.634 151.363 223.327C151.056 223.128 150.719 222.982 150.351 222.89C149.983 222.783 149.623 222.729 149.27 222.729C148.641 222.729 148.112 222.867 147.683 223.143C147.269 223.404 146.939 223.779 146.694 224.27C146.449 224.745 146.272 225.297 146.165 225.926C146.058 226.555 146.004 227.245 146.004 227.996C146.004 228.502 146.027 229.023 146.073 229.56C146.134 230.097 146.226 230.626 146.349 231.147C146.487 231.653 146.671 232.113 146.901 232.527C147.146 232.941 147.461 233.271 147.844 233.516C148.243 233.746 148.718 233.861 149.27 233.861C149.669 233.861 150.052 233.815 150.42 233.723C150.788 233.616 151.079 233.501 151.294 233.378C151.585 233.194 151.777 233.11 151.869 233.125C151.976 233.14 152.03 233.263 152.03 233.493V235.195ZM154.945 236C154.853 236 154.753 235.985 154.646 235.954C154.554 235.923 154.508 235.847 154.508 235.724C154.446 235.172 154.385 234.49 154.324 233.677C154.278 232.849 154.239 231.952 154.209 230.986C154.178 230.005 154.155 229.008 154.14 227.996C154.14 227.061 154.147 226.148 154.163 225.259C154.193 224.354 154.239 223.526 154.301 222.775C154.377 222.008 154.462 221.357 154.554 220.82C154.569 220.728 154.623 220.659 154.715 220.613C154.807 220.552 154.891 220.521 154.968 220.521C155.382 220.521 155.788 220.521 156.187 220.521C156.601 220.521 157.007 220.521 157.406 220.521C157.544 220.521 157.605 220.621 157.59 220.82C157.528 221.311 157.475 221.893 157.429 222.568C157.383 223.227 157.337 223.917 157.291 224.638C157.26 225.359 157.229 226.049 157.199 226.708C157.199 226.846 157.214 226.938 157.245 226.984C157.275 227.03 157.367 227.053 157.521 227.053C158.272 227.053 159.031 227.053 159.798 227.053C160.564 227.053 161.323 227.053 162.075 227.053C162.182 227.053 162.259 227.038 162.305 227.007C162.351 226.961 162.374 226.861 162.374 226.708C162.358 226.064 162.328 225.382 162.282 224.661C162.236 223.94 162.19 223.25 162.144 222.591C162.098 221.916 162.044 221.326 161.983 220.82C161.983 220.621 162.044 220.521 162.167 220.521C162.565 220.521 162.964 220.521 163.363 220.521C163.777 220.521 164.183 220.521 164.582 220.521C164.674 220.521 164.766 220.552 164.858 220.613C164.95 220.659 165.003 220.728 165.019 220.82C165.126 221.357 165.21 222.016 165.272 222.798C165.333 223.565 165.379 224.4 165.41 225.305C165.44 226.194 165.448 227.107 165.433 228.042C165.433 229.039 165.41 230.028 165.364 231.009C165.333 231.975 165.287 232.864 165.226 233.677C165.18 234.49 165.126 235.172 165.065 235.724C165.049 235.847 164.996 235.923 164.904 235.954C164.812 235.985 164.712 236 164.605 236C164.206 236 163.8 236 163.386 236C162.987 236 162.588 236 162.19 236C162.082 236 162.036 235.908 162.052 235.724C162.098 235.295 162.136 234.835 162.167 234.344C162.213 233.838 162.251 233.317 162.282 232.78C162.328 232.243 162.358 231.707 162.374 231.17C162.389 230.618 162.397 230.097 162.397 229.606C162.397 229.499 162.374 229.43 162.328 229.399C162.297 229.368 162.22 229.353 162.098 229.353C161.331 229.353 160.557 229.353 159.775 229.353C159.008 229.353 158.241 229.353 157.475 229.353C157.352 229.353 157.268 229.368 157.222 229.399C157.191 229.43 157.176 229.499 157.176 229.606C157.176 230.112 157.183 230.633 157.199 231.17C157.229 231.707 157.252 232.243 157.268 232.78C157.298 233.317 157.337 233.838 157.383 234.344C157.429 234.835 157.475 235.295 157.521 235.724C157.536 235.908 157.49 236 157.383 236C156.984 236 156.578 236 156.164 236C155.765 236 155.359 236 154.945 236ZM178.826 235.287C178.826 235.486 178.688 235.655 178.412 235.793C178.152 235.916 177.799 236 177.354 236.046C176.91 236.107 176.411 236.138 175.859 236.138C173.099 236.138 171.022 235.494 169.626 234.206C168.231 232.903 167.533 231.001 167.533 228.502C167.533 226.831 167.848 225.389 168.476 224.178C169.12 222.967 170.002 222.039 171.121 221.395C172.241 220.736 173.513 220.406 174.939 220.406C175.553 220.406 176.151 220.429 176.733 220.475C177.331 220.521 177.799 220.605 178.136 220.728C178.351 220.789 178.497 220.843 178.573 220.889C178.665 220.935 178.711 221.058 178.711 221.257V222.867C178.711 223.158 178.65 223.342 178.527 223.419C178.405 223.48 178.267 223.465 178.113 223.373C177.73 223.158 177.339 223.005 176.94 222.913C176.542 222.806 176.089 222.752 175.583 222.752C175.139 222.752 174.633 222.829 174.065 222.982C173.513 223.135 172.984 223.419 172.478 223.833C171.988 224.232 171.574 224.799 171.236 225.535C170.914 226.256 170.753 227.199 170.753 228.364C170.753 229.56 170.907 230.518 171.213 231.239C171.535 231.96 171.926 232.504 172.386 232.872C172.862 233.24 173.345 233.485 173.835 233.608C174.341 233.731 174.778 233.792 175.146 233.792C175.545 233.792 175.76 233.692 175.79 233.493V229.514C175.79 229.422 175.775 229.368 175.744 229.353C175.729 229.338 175.683 229.33 175.606 229.33H173.007C172.854 229.33 172.754 229.315 172.708 229.284C172.662 229.253 172.639 229.161 172.639 229.008V227.352C172.639 227.199 172.655 227.099 172.685 227.053C172.731 227.007 172.839 226.984 173.007 226.984H178.366C178.596 226.984 178.727 227.015 178.757 227.076C178.803 227.122 178.826 227.26 178.826 227.49V235.287ZM184.581 235.724C184.581 235.908 184.473 236 184.259 236H181.867C181.652 236 181.545 235.908 181.545 235.724V220.82C181.545 220.621 181.652 220.521 181.867 220.521H184.259C184.473 220.521 184.581 220.621 184.581 220.82V235.724ZM196.143 235.195C196.143 235.563 195.929 235.801 195.499 235.908C195.285 235.985 195.016 236.038 194.694 236.069C194.388 236.115 194.089 236.146 193.797 236.161C193.521 236.176 193.307 236.184 193.153 236.184C191.298 236.184 189.811 235.517 188.691 234.183C187.572 232.849 187.012 230.886 187.012 228.295C187.012 225.688 187.549 223.718 188.622 222.384C189.711 221.035 191.221 220.36 193.153 220.36C193.307 220.36 193.521 220.375 193.797 220.406C194.089 220.421 194.388 220.452 194.694 220.498C195.016 220.529 195.285 220.582 195.499 220.659C195.714 220.705 195.875 220.766 195.982 220.843C196.09 220.92 196.143 221.027 196.143 221.165V223.166C196.143 223.58 195.921 223.634 195.476 223.327C195.17 223.128 194.832 222.982 194.464 222.89C194.096 222.783 193.736 222.729 193.383 222.729C192.755 222.729 192.226 222.867 191.796 223.143C191.382 223.404 191.053 223.779 190.807 224.27C190.562 224.745 190.386 225.297 190.278 225.926C190.171 226.555 190.117 227.245 190.117 227.996C190.117 228.502 190.14 229.023 190.186 229.56C190.248 230.097 190.34 230.626 190.462 231.147C190.6 231.653 190.784 232.113 191.014 232.527C191.26 232.941 191.574 233.271 191.957 233.516C192.356 233.746 192.831 233.861 193.383 233.861C193.782 233.861 194.165 233.815 194.533 233.723C194.901 233.616 195.193 233.501 195.407 233.378C195.699 233.194 195.89 233.11 195.982 233.125C196.09 233.14 196.143 233.263 196.143 233.493V235.195ZM204.164 236.184C202.845 236.184 201.803 236.038 201.036 235.747C200.285 235.44 199.717 235.057 199.334 234.597C198.951 234.122 198.698 233.646 198.575 233.171C198.452 232.696 198.368 232.274 198.322 231.906C198.261 231.308 198.215 230.672 198.184 229.997C198.153 229.322 198.138 228.709 198.138 228.157C198.138 227.436 198.153 226.647 198.184 225.788C198.215 224.929 198.261 224.063 198.322 223.189C198.399 222.315 198.498 221.51 198.621 220.774C198.636 220.667 198.682 220.598 198.759 220.567C198.836 220.536 198.928 220.521 199.035 220.521C199.403 220.521 199.771 220.521 200.139 220.521C200.507 220.521 200.883 220.521 201.266 220.521C201.404 220.521 201.481 220.544 201.496 220.59C201.511 220.636 201.511 220.797 201.496 221.073C201.435 221.686 201.381 222.315 201.335 222.959C201.289 223.603 201.251 224.255 201.22 224.914C201.159 226.064 201.128 227.183 201.128 228.272C201.128 229.345 201.174 230.403 201.266 231.446C201.297 231.891 201.373 232.266 201.496 232.573C201.634 232.88 201.818 233.133 202.048 233.332C202.293 233.516 202.585 233.654 202.922 233.746C203.275 233.823 203.666 233.861 204.095 233.861C204.555 233.861 204.954 233.823 205.291 233.746C205.628 233.654 205.912 233.516 206.142 233.332C206.387 233.133 206.579 232.88 206.717 232.573C206.855 232.266 206.947 231.891 206.993 231.446C207.07 230.419 207.1 229.368 207.085 228.295C207.085 227.206 207.062 226.087 207.016 224.937C207.001 224.278 206.962 223.626 206.901 222.982C206.855 222.323 206.801 221.686 206.74 221.073C206.725 220.797 206.725 220.636 206.74 220.59C206.755 220.544 206.84 220.521 206.993 220.521C207.376 220.521 207.76 220.521 208.143 220.521C208.542 220.521 208.933 220.521 209.316 220.521C209.439 220.521 209.531 220.536 209.592 220.567C209.669 220.598 209.707 220.667 209.707 220.774C209.845 221.51 209.945 222.315 210.006 223.189C210.083 224.048 210.136 224.914 210.167 225.788C210.198 226.647 210.213 227.429 210.213 228.134C210.213 228.701 210.205 229.322 210.19 229.997C210.175 230.672 210.129 231.308 210.052 231.906C210.021 232.197 209.96 232.535 209.868 232.918C209.776 233.286 209.623 233.662 209.408 234.045C209.193 234.428 208.871 234.789 208.442 235.126C208.028 235.448 207.476 235.709 206.786 235.908C206.096 236.092 205.222 236.184 204.164 236.184ZM212.577 235.149V233.263C212.577 233.156 212.607 233.102 212.669 233.102C212.745 233.102 212.868 233.133 213.037 233.194C213.343 233.286 213.704 233.378 214.118 233.47C214.532 233.547 214.938 233.608 215.337 233.654C215.735 233.7 216.057 233.723 216.303 233.723C217.1 233.723 217.706 233.501 218.12 233.056C218.549 232.611 218.764 232.098 218.764 231.515C218.764 230.917 218.549 230.434 218.12 230.066C217.706 229.698 217.146 229.414 216.441 229.215C216.057 229.123 215.62 228.993 215.13 228.824C214.654 228.655 214.187 228.418 213.727 228.111C213.282 227.804 212.914 227.383 212.623 226.846C212.331 226.294 212.186 225.596 212.186 224.753C212.186 223.71 212.423 222.875 212.899 222.246C213.389 221.617 214.018 221.157 214.785 220.866C215.567 220.559 216.395 220.406 217.269 220.406C217.606 220.406 217.974 220.444 218.373 220.521C218.787 220.582 219.193 220.667 219.592 220.774C219.99 220.881 220.343 221.004 220.65 221.142C220.772 221.173 220.849 221.219 220.88 221.28C220.91 221.326 220.926 221.395 220.926 221.487V223.212C220.926 223.626 220.673 223.695 220.167 223.419C219.845 223.235 219.454 223.074 218.994 222.936C218.549 222.783 218.051 222.706 217.499 222.706C216.824 222.706 216.28 222.882 215.866 223.235C215.452 223.588 215.245 224.009 215.245 224.5C215.245 224.975 215.375 225.359 215.636 225.65C215.896 225.941 216.234 226.171 216.648 226.34C217.062 226.509 217.491 226.647 217.936 226.754C218.38 226.861 218.787 226.984 219.155 227.122C219.768 227.321 220.274 227.59 220.673 227.927C221.087 228.249 221.401 228.678 221.616 229.215C221.83 229.752 221.938 230.434 221.938 231.262C221.938 232.381 221.692 233.309 221.202 234.045C220.726 234.766 220.067 235.302 219.224 235.655C218.38 236.008 217.422 236.184 216.349 236.184C215.873 236.184 215.337 236.138 214.739 236.046C214.141 235.954 213.596 235.824 213.106 235.655C212.906 235.594 212.768 235.532 212.692 235.471C212.615 235.394 212.577 235.287 212.577 235.149ZM234.987 236C234.772 236 234.665 235.908 234.665 235.724V220.82C234.665 220.621 234.772 220.521 234.987 220.521H237.31C237.463 220.521 237.563 220.552 237.609 220.613C237.67 220.659 237.701 220.759 237.701 220.912V233.447C237.701 233.539 237.709 233.6 237.724 233.631C237.739 233.646 237.793 233.654 237.885 233.654H242.577C242.792 233.654 242.914 233.677 242.945 233.723C242.991 233.769 243.014 233.892 243.014 234.091V235.563C243.014 235.778 242.991 235.908 242.945 235.954C242.899 235.985 242.776 236 242.577 236H234.987ZM245.049 236C244.85 236 244.75 235.908 244.75 235.724V220.82C244.75 220.621 244.85 220.521 245.049 220.521H252.731C252.915 220.521 253.022 220.536 253.053 220.567C253.084 220.598 253.099 220.697 253.099 220.866V222.476C253.099 222.66 253.076 222.775 253.03 222.821C252.984 222.852 252.884 222.867 252.731 222.867H247.993C247.886 222.867 247.824 222.875 247.809 222.89C247.794 222.905 247.786 222.959 247.786 223.051V226.846C247.786 226.938 247.794 226.999 247.809 227.03C247.84 227.045 247.893 227.053 247.97 227.053H251.696C251.895 227.053 252.01 227.076 252.041 227.122C252.072 227.153 252.087 227.275 252.087 227.49V228.939C252.087 229.138 252.064 229.261 252.018 229.307C251.987 229.338 251.88 229.353 251.696 229.353H247.97C247.893 229.353 247.84 229.361 247.809 229.376C247.794 229.391 247.786 229.437 247.786 229.514V233.447C247.786 233.539 247.794 233.6 247.809 233.631C247.824 233.646 247.878 233.654 247.97 233.654H252.685C252.9 233.654 253.022 233.677 253.053 233.723C253.084 233.769 253.099 233.892 253.099 234.091V235.563C253.099 235.778 253.076 235.908 253.03 235.954C252.984 235.985 252.861 236 252.662 236H245.049ZM254.435 236C254.312 236 254.235 235.946 254.205 235.839C254.174 235.732 254.182 235.525 254.228 235.218C254.335 234.528 254.496 233.7 254.711 232.734C254.925 231.753 255.178 230.718 255.47 229.629C255.761 228.54 256.068 227.452 256.39 226.363C256.727 225.274 257.072 224.262 257.425 223.327C257.777 222.376 258.115 221.587 258.437 220.958C258.529 220.82 258.605 220.713 258.667 220.636C258.743 220.559 258.835 220.521 258.943 220.521H261.128C261.25 220.567 261.35 220.621 261.427 220.682C261.503 220.728 261.58 220.82 261.657 220.958C261.979 221.587 262.316 222.376 262.669 223.327C263.021 224.262 263.366 225.274 263.704 226.363C264.041 227.452 264.355 228.548 264.647 229.652C264.938 230.741 265.191 231.776 265.406 232.757C265.62 233.723 265.774 234.543 265.866 235.218C265.927 235.525 265.942 235.732 265.912 235.839C265.881 235.946 265.797 236 265.659 236H263.29C263.167 236 263.083 235.969 263.037 235.908C262.991 235.831 262.937 235.647 262.876 235.356C262.814 235.003 262.73 234.589 262.623 234.114C262.531 233.623 262.446 233.194 262.37 232.826C262.354 232.719 262.331 232.657 262.301 232.642C262.27 232.611 262.201 232.596 262.094 232.596H258C257.892 232.611 257.831 232.627 257.816 232.642C257.8 232.657 257.777 232.726 257.747 232.849C257.67 233.202 257.578 233.623 257.471 234.114C257.379 234.589 257.294 235.011 257.218 235.379C257.172 235.655 257.126 235.831 257.08 235.908C257.034 235.969 256.949 236 256.827 236H254.435ZM258.644 230.273H261.45C261.557 230.273 261.618 230.258 261.634 230.227C261.664 230.181 261.664 230.104 261.634 229.997C261.434 229.215 261.22 228.402 260.99 227.559C260.76 226.7 260.522 225.926 260.277 225.236C260.246 225.098 260.192 225.029 260.116 225.029H259.955C259.893 225.029 259.84 225.098 259.794 225.236C259.671 225.635 259.525 226.102 259.357 226.639C259.203 227.176 259.05 227.735 258.897 228.318C258.743 228.901 258.598 229.468 258.46 230.02C258.444 230.112 258.444 230.181 258.46 230.227C258.475 230.258 258.536 230.273 258.644 230.273ZM268.161 236C267.962 236 267.862 235.908 267.862 235.724V220.82C267.862 220.621 267.962 220.521 268.161 220.521H272.048C273.244 220.521 274.21 220.682 274.946 221.004C275.698 221.311 276.25 221.809 276.602 222.499C276.955 223.189 277.131 224.124 277.131 225.305C277.131 226.133 276.986 226.907 276.694 227.628C276.403 228.349 275.943 228.947 275.314 229.422C275.1 229.621 274.939 229.805 274.831 229.974C274.739 230.143 274.778 230.365 274.946 230.641C275.069 230.917 275.207 231.193 275.36 231.469C275.514 231.73 275.682 231.967 275.866 232.182C276.05 232.397 276.257 232.581 276.487 232.734C276.733 232.903 277.009 233.033 277.315 233.125C277.622 233.217 277.982 233.263 278.396 233.263C278.534 233.263 278.619 233.278 278.649 233.309C278.695 233.34 278.718 233.439 278.718 233.608V235.724C278.718 235.816 278.703 235.877 278.672 235.908C278.642 235.939 278.55 235.962 278.396 235.977C278.243 235.992 277.982 236 277.614 236C276.986 236 276.403 235.908 275.866 235.724C275.345 235.54 274.87 235.287 274.44 234.965C274.057 234.674 273.697 234.329 273.359 233.93C273.037 233.516 272.754 233.071 272.508 232.596C272.263 232.121 272.048 231.622 271.864 231.101C271.849 231.07 271.818 230.986 271.772 230.848C271.726 230.71 271.657 230.641 271.565 230.641H271.036C270.944 230.641 270.898 230.756 270.898 230.986V235.724C270.898 235.908 270.791 236 270.576 236H268.161ZM270.898 228.042C270.898 228.103 270.914 228.149 270.944 228.18C270.975 228.211 271.021 228.226 271.082 228.226H272.002C272.677 228.226 273.206 227.973 273.589 227.467C273.973 226.946 274.164 226.233 274.164 225.328C274.164 224.577 274.072 224.009 273.888 223.626C273.72 223.243 273.467 222.982 273.129 222.844C272.807 222.706 272.409 222.637 271.933 222.637H271.082C271.006 222.637 270.952 222.645 270.921 222.66C270.906 222.675 270.898 222.737 270.898 222.844V228.042ZM289.063 229.652C289.109 229.713 289.17 229.744 289.247 229.744C289.323 229.744 289.362 229.698 289.362 229.606C289.377 229.131 289.377 228.625 289.362 228.088C289.362 227.551 289.354 226.992 289.339 226.409C289.339 225.811 289.323 225.198 289.293 224.569C289.277 223.94 289.239 223.319 289.178 222.706C289.132 222.077 289.07 221.456 288.994 220.843C288.978 220.628 289.032 220.521 289.155 220.521H291.616C291.708 220.521 291.792 220.552 291.869 220.613C291.961 220.659 292.014 220.728 292.03 220.82C292.137 221.387 292.221 222.077 292.283 222.89C292.359 223.687 292.405 224.561 292.421 225.512C292.451 226.447 292.459 227.406 292.444 228.387C292.428 229.353 292.398 230.304 292.352 231.239C292.321 232.159 292.275 233.01 292.214 233.792C292.168 234.559 292.114 235.203 292.053 235.724C292.037 235.847 291.984 235.923 291.892 235.954C291.815 235.985 291.723 236 291.616 236H290.052C289.944 236 289.814 235.877 289.661 235.632L283.727 226.754C283.711 226.693 283.673 226.662 283.612 226.662C283.55 226.662 283.52 226.7 283.52 226.777C283.52 227.605 283.52 228.387 283.52 229.123C283.52 229.844 283.52 230.526 283.52 231.17C283.535 231.799 283.558 232.389 283.589 232.941C283.619 233.478 283.65 233.984 283.681 234.459C283.711 234.919 283.757 235.333 283.819 235.701C283.834 235.9 283.78 236 283.658 236H281.243C281.151 236 281.051 235.985 280.944 235.954C280.852 235.923 280.798 235.847 280.783 235.724C280.721 235.203 280.668 234.559 280.622 233.792C280.576 233.01 280.537 232.159 280.507 231.239C280.476 230.304 280.453 229.345 280.438 228.364C280.438 227.383 280.445 226.424 280.461 225.489C280.491 224.538 280.537 223.664 280.599 222.867C280.66 222.054 280.744 221.372 280.852 220.82C280.882 220.728 280.936 220.659 281.013 220.613C281.105 220.552 281.189 220.521 281.266 220.521H282.761C282.899 220.521 282.998 220.59 283.06 220.728L289.063 229.652ZM298.345 235.724C298.345 235.908 298.238 236 298.023 236H295.631C295.417 236 295.309 235.908 295.309 235.724V220.82C295.309 220.621 295.417 220.521 295.631 220.521H298.023C298.238 220.521 298.345 220.621 298.345 220.82V235.724ZM309.839 229.652C309.885 229.713 309.946 229.744 310.023 229.744C310.1 229.744 310.138 229.698 310.138 229.606C310.153 229.131 310.153 228.625 310.138 228.088C310.138 227.551 310.13 226.992 310.115 226.409C310.115 225.811 310.1 225.198 310.069 224.569C310.054 223.94 310.015 223.319 309.954 222.706C309.908 222.077 309.847 221.456 309.77 220.843C309.755 220.628 309.808 220.521 309.931 220.521H312.392C312.484 220.521 312.568 220.552 312.645 220.613C312.737 220.659 312.791 220.728 312.806 220.82C312.913 221.387 312.998 222.077 313.059 222.89C313.136 223.687 313.182 224.561 313.197 225.512C313.228 226.447 313.235 227.406 313.22 228.387C313.205 229.353 313.174 230.304 313.128 231.239C313.097 232.159 313.051 233.01 312.99 233.792C312.944 234.559 312.89 235.203 312.829 235.724C312.814 235.847 312.76 235.923 312.668 235.954C312.591 235.985 312.499 236 312.392 236H310.828C310.721 236 310.59 235.877 310.437 235.632L304.503 226.754C304.488 226.693 304.449 226.662 304.388 226.662C304.327 226.662 304.296 226.7 304.296 226.777C304.296 227.605 304.296 228.387 304.296 229.123C304.296 229.844 304.296 230.526 304.296 231.17C304.311 231.799 304.334 232.389 304.365 232.941C304.396 233.478 304.426 233.984 304.457 234.459C304.488 234.919 304.534 235.333 304.595 235.701C304.61 235.9 304.557 236 304.434 236H302.019C301.927 236 301.827 235.985 301.72 235.954C301.628 235.923 301.574 235.847 301.559 235.724C301.498 235.203 301.444 234.559 301.398 233.792C301.352 233.01 301.314 232.159 301.283 231.239C301.252 230.304 301.229 229.345 301.214 228.364C301.214 227.383 301.222 226.424 301.237 225.489C301.268 224.538 301.314 223.664 301.375 222.867C301.436 222.054 301.521 221.372 301.628 220.82C301.659 220.728 301.712 220.659 301.789 220.613C301.881 220.552 301.965 220.521 302.042 220.521H303.537C303.675 220.521 303.775 220.59 303.836 220.728L309.839 229.652ZM326.597 235.287C326.597 235.486 326.459 235.655 326.183 235.793C325.922 235.916 325.569 236 325.125 236.046C324.68 236.107 324.182 236.138 323.63 236.138C320.87 236.138 318.792 235.494 317.397 234.206C316.001 232.903 315.304 231.001 315.304 228.502C315.304 226.831 315.618 225.389 316.247 224.178C316.891 222.967 317.772 222.039 318.892 221.395C320.011 220.736 321.284 220.406 322.71 220.406C323.323 220.406 323.921 220.429 324.504 220.475C325.102 220.521 325.569 220.605 325.907 220.728C326.121 220.789 326.267 220.843 326.344 220.889C326.436 220.935 326.482 221.058 326.482 221.257V222.867C326.482 223.158 326.42 223.342 326.298 223.419C326.175 223.48 326.037 223.465 325.884 223.373C325.5 223.158 325.109 223.005 324.711 222.913C324.312 222.806 323.86 222.752 323.354 222.752C322.909 222.752 322.403 222.829 321.836 222.982C321.284 223.135 320.755 223.419 320.249 223.833C319.758 224.232 319.344 224.799 319.007 225.535C318.685 226.256 318.524 227.199 318.524 228.364C318.524 229.56 318.677 230.518 318.984 231.239C319.306 231.96 319.697 232.504 320.157 232.872C320.632 233.24 321.115 233.485 321.606 233.608C322.112 233.731 322.549 233.792 322.917 233.792C323.315 233.792 323.53 233.692 323.561 233.493V229.514C323.561 229.422 323.545 229.368 323.515 229.353C323.499 229.338 323.453 229.33 323.377 229.33H320.778C320.624 229.33 320.525 229.315 320.479 229.284C320.433 229.253 320.41 229.161 320.41 229.008V227.352C320.41 227.199 320.425 227.099 320.456 227.053C320.502 227.007 320.609 226.984 320.778 226.984H326.137C326.367 226.984 326.497 227.015 326.528 227.076C326.574 227.122 326.597 227.26 326.597 227.49V235.287Z" fill="white"/>
</g>
<g filter="url(#filter47_f_18_79)">
<path d="M96.5 215V225C96.5 231.075 101.425 236 107.5 236H344C350.075 236 355 231.075 355 225V216" stroke="#C6BFBF" stroke-width="0.5"/>
</g>
<g filter="url(#filter48_f_18_79)">
<path d="M209 93C218.589 94.7489 224.024 95.1311 234 93V94.0341C224.458 95.4693 218.934 95.1658 209 94.0341V93Z" fill="#C3836E"/>
</g>
<g filter="url(#filter49_f_18_79)">
<path d="M174.026 63.915C174.46 63.3279 175.157 63 175.887 63V63C178.072 63 178.921 65.7636 178.516 67.9109C178.445 68.2871 178.433 68.6579 178.478 69.0286C178.743 71.181 177.952 74 175.783 74V74C175.115 74 174.471 73.7203 174.048 73.2027C171.282 69.8198 171.36 67.5295 174.026 63.915Z" fill="#D8AD8E"/>
</g>
<g filter="url(#filter50_f_18_79)">
<path d="M269.029 72.5743C268.49 73.0663 267.742 73.2528 267.027 73.1115V73.1115C264.883 72.6881 264.586 69.8125 265.399 67.7842C265.541 67.4289 265.625 67.0674 265.652 66.6949C265.81 64.5321 267.132 61.9198 269.26 62.34V62.34C269.916 62.4695 270.493 62.8687 270.808 63.4584C272.865 67.313 272.346 69.545 269.029 72.5743Z" fill="#D8AD8E"/>
</g>
<g filter="url(#filter51_f_18_79)">
<rect x="229.4" y="261" width="30.9886" height="1.55917" transform="rotate(9.18804 229.4 261)" fill="#414945"/>
</g>
<g filter="url(#filter52_f_18_79)">
<path d="M241.666 58.9399C241.868 59.7433 242.326 61.3515 241.791 61.4863C241.255 61.6211 239.44 60.3034 239.238 59.5C239.036 58.6966 238.703 57.6231 239.238 57.4883C239.774 57.3536 241.464 58.1365 241.666 58.9399Z" fill="#FFFAFA"/>
</g>
<g filter="url(#filter53_f_18_79)">
<path d="M209.562 58.5641C210.209 58.0461 211.48 56.9602 211.826 57.3913C212.171 57.8223 211.727 60.021 211.081 60.5389C210.434 61.0568 209.597 61.8063 209.251 61.3753C208.906 60.9442 208.915 59.082 209.562 58.5641Z" fill="#D9D9D9"/>
</g>
<g filter="url(#filter54_f_18_79)">
<path d="M185.5 24C191.501 24.126 194.091 25.2467 197 29.5" stroke="#100F0F" stroke-width="0.5"/>
</g>
<defs>
<filter id="filter0_f_18_79" x="142.748" y="94.2599" width="163.03" height="94.7405" filterUnits="userSpaceOnUse" color-interpolation-filters="sRGB">
<feFlood flood-opacity="0" result="BackgroundImageFix"/>
<feBlend mode="normal" in="SourceGraphic" in2="BackgroundImageFix" result="shape"/>
<feGaussianBlur stdDeviation="2.5" result="effect1_foregroundBlur_18_79"/>
</filter>
<filter id="filter1_i_18_79" x="166.513" y="21.1557" width="110.769" height="96.012" filterUnits="userSpaceOnUse" color-interpolation-filters="sRGB">
<feFlood flood-opacity="0" result="BackgroundImageFix"/>
<feBlend mode="normal" in="SourceGraphic" in2="BackgroundImageFix" result="shape"/>
<feColorMatrix in="SourceAlpha" type="matrix" values="0 0 0 0 0 0 0 0 0 0 0 0 0 0 0 0 0 0 127 0" result="hardAlpha"/>
<feOffset dy="4"/>
<feGaussianBlur stdDeviation="2"/>
<feComposite in2="hardAlpha" operator="arithmetic" k2="-1" k3="1"/>
<feColorMatrix type="matrix" values="0 0 0 0 0.896667 0 0 0 0 0.755525 0 0 0 0 0.523056 0 0 0 1 0"/>
<feBlend mode="normal" in2="shape" result="effect1_innerShadow_18_79"/>
</filter>
<filter id="filter2_f_18_79" x="207.943" y="105.918" width="27.1196" height="9.18224" filterUnits="userSpaceOnUse" color-interpolation-filters="sRGB">
<feFlood flood-opacity="0" result="BackgroundImageFix"/>
<feBlend mode="normal" in="SourceGraphic" in2="BackgroundImageFix" result="shape"/>
<feGaussianBlur stdDeviation="1" result="effect1_foregroundBlur_18_79"/>
</filter>
<filter id="filter3_f_18_79" x="283" y="147.309" width="24.4941" height="53.6912" filterUnits="userSpaceOnUse" color-interpolation-filters="sRGB">
<feFlood flood-opacity="0" result="BackgroundImageFix"/>
<feBlend mode="normal" in="SourceGraphic" in2="BackgroundImageFix" result="shape"/>
<feGaussianBlur stdDeviation="1" result="effect1_foregroundBlur_18_79"/>
</filter>
<filter id="filter4_f_18_79" x="144.25" y="235.5" width="75.7559" height="28.2499" filterUnits="userSpaceOnUse" color-interpolation-filters="sRGB">
<feFlood flood-opacity="0" result="BackgroundImageFix"/>
<feBlend mode="normal" in="SourceGraphic" in2="BackgroundImageFix" result="shape"/>
<feGaussianBlur stdDeviation="2.5" result="effect1_foregroundBlur_18_79"/>
</filter>
<filter id="filter5_f_18_79" x="240.325" y="17.3053" width="27.7485" height="42.0761" filterUnits="userSpaceOnUse" color-interpolation-filters="sRGB">
<feFlood flood-opacity="0" result="BackgroundImageFix"/>
<feBlend mode="normal" in="SourceGraphic" in2="BackgroundImageFix" result="shape"/>
<feGaussianBlur stdDeviation="4" result="effect1_foregroundBlur_18_79"/>
</filter>
<filter id="filter6_f_18_79" x="183.815" y="25.8172" width="19.8027" height="41.3872" filterUnits="userSpaceOnUse" color-interpolation-filters="sRGB">
<feFlood flood-opacity="0" result="BackgroundImageFix"/>
<feBlend mode="normal" in="SourceGraphic" in2="BackgroundImageFix" result="shape"/>
<feGaussianBlur stdDeviation="2.5" result="effect1_foregroundBlur_18_79"/>
</filter>
<filter id="filter7_f_18_79" x="186.524" y="74.6494" width="28.9194" height="25.7527" filterUnits="userSpaceOnUse" color-interpolation-filters="sRGB">
<feFlood flood-opacity="0" result="BackgroundImageFix"/>
<feBlend mode="normal" in="SourceGraphic" in2="BackgroundImageFix" result="shape"/>
<feGaussianBlur stdDeviation="3.5" result="effect1_foregroundBlur_18_79"/>
</filter>
<filter id="filter8_f_18_79" x="228.455" y="69.219" width="35.707" height="29.464" filterUnits="userSpaceOnUse" color-interpolation-filters="sRGB">
<feFlood flood-opacity="0" result="BackgroundImageFix"/>
<feBlend mode="normal" in="SourceGraphic" in2="BackgroundImageFix" result="shape"/>
<feGaussianBlur stdDeviation="3.5" result="effect1_foregroundBlur_18_79"/>
</filter>
<filter id="filter9_f_18_79" x="181.627" y="70.5178" width="36.3896" height="28.369" filterUnits="userSpaceOnUse" color-interpolation-filters="sRGB">
<feFlood flood-opacity="0" result="BackgroundImageFix"/>
<feBlend mode="normal" in="SourceGraphic" in2="BackgroundImageFix" result="shape"/>
<feGaussianBlur stdDeviation="3.5" result="effect1_foregroundBlur_18_79"/>
</filter>
<filter id="filter10_f_18_79" x="208" y="90" width="10" height="23" filterUnits="userSpaceOnUse" color-interpolation-filters="sRGB">
<feFlood flood-opacity="0" result="BackgroundImageFix"/>
<feBlend mode="normal" in="SourceGraphic" in2="BackgroundImageFix" result="shape"/>
<feGaussianBlur stdDeviation="2" result="effect1_foregroundBlur_18_79"/>
</filter>
<filter id="filter11_f_18_79" x="225" y="90" width="10" height="23" filterUnits="userSpaceOnUse" color-interpolation-filters="sRGB">
<feFlood flood-opacity="0" result="BackgroundImageFix"/>
<feBlend mode="normal" in="SourceGraphic" in2="BackgroundImageFix" result="shape"/>
<feGaussianBlur stdDeviation="2" result="effect1_foregroundBlur_18_79"/>
</filter>
<filter id="filter12_f_18_79" x="236.519" y="44.6216" width="13.981" height="4.83133" filterUnits="userSpaceOnUse" color-interpolation-filters="sRGB">
<feFlood flood-opacity="0" result="BackgroundImageFix"/>
<feBlend mode="normal" in="SourceGraphic" in2="BackgroundImageFix" result="shape"/>
<feGaussianBlur stdDeviation="0.75" result="effect1_foregroundBlur_18_79"/>
</filter>
<filter id="filter13_f_18_79" x="236.519" y="44.6216" width="13.981" height="4.83133" filterUnits="userSpaceOnUse" color-interpolation-filters="sRGB">
<feFlood flood-opacity="0" result="BackgroundImageFix"/>
<feBlend mode="normal" in="SourceGraphic" in2="BackgroundImageFix" result="shape"/>
<feGaussianBlur stdDeviation="0.75" result="effect1_foregroundBlur_18_79"/>
</filter>
<filter id="filter14_f_18_79" x="199.538" y="44.1435" width="14.0415" height="4.2267" filterUnits="userSpaceOnUse" color-interpolation-filters="sRGB">
<feFlood flood-opacity="0" result="BackgroundImageFix"/>
<feBlend mode="normal" in="SourceGraphic" in2="BackgroundImageFix" result="shape"/>
<feGaussianBlur stdDeviation="0.75" result="effect1_foregroundBlur_18_79"/>
</filter>
<filter id="filter15_f_18_79" x="217.5" y="76.3029" width="16.812" height="6.00386" filterUnits="userSpaceOnUse" color-interpolation-filters="sRGB">
<feFlood flood-opacity="0" result="BackgroundImageFix"/>
<feBlend mode="normal" in="SourceGraphic" in2="BackgroundImageFix" result="shape"/>
<feGaussianBlur stdDeviation="0.5" result="effect1_foregroundBlur_18_79"/>
</filter>
<filter id="filter16_f_18_79" x="211" y="60" width="3" height="4" filterUnits="userSpaceOnUse" color-interpolation-filters="sRGB">
<feFlood flood-opacity="0" result="BackgroundImageFix"/>
<feBlend mode="normal" in="SourceGraphic" in2="BackgroundImageFix" result="shape"/>
<feGaussianBlur stdDeviation="0.5" result="effect1_foregroundBlur_18_79"/>
</filter>
<filter id="filter17_f_18_79" x="237" y="60" width="3" height="4" filterUnits="userSpaceOnUse" color-interpolation-filters="sRGB">
<feFlood flood-opacity="0" result="BackgroundImageFix"/>
<feBlend mode="normal" in="SourceGraphic" in2="BackgroundImageFix" result="shape"/>
<feGaussianBlur stdDeviation="0.5" result="effect1_foregroundBlur_18_79"/>
</filter>
<filter id="filter18_f_18_79" x="144.147" y="142.277" width="22.7036" height="58.2692" filterUnits="userSpaceOnUse" color-interpolation-filters="sRGB">
<feFlood flood-opacity="0" result="BackgroundImageFix"/>
<feBlend mode="normal" in="SourceGraphic" in2="BackgroundImageFix" result="shape"/>
<feGaussianBlur stdDeviation="1" result="effect1_foregroundBlur_18_79"/>
</filter>
<filter id="filter19_f_18_79" x="145" y="195.009" width="22" height="5.27853" filterUnits="userSpaceOnUse" color-interpolation-filters="sRGB">
<feFlood flood-opacity="0" result="BackgroundImageFix"/>
<feBlend mode="normal" in="SourceGraphic" in2="BackgroundImageFix" result="shape"/>
<feGaussianBlur stdDeviation="1" result="effect1_foregroundBlur_18_79"/>
</filter>
<filter id="filter20_f_18_79" x="181.092" y="107" width="82.2534" height="9.40892" filterUnits="userSpaceOnUse" color-interpolation-filters="sRGB">
<feFlood flood-opacity="0" result="BackgroundImageFix"/>
<feBlend mode="normal" in="SourceGraphic" in2="BackgroundImageFix" result="shape"/>
<feGaussianBlur stdDeviation="1" result="effect1_foregroundBlur_18_79"/>
</filter>
<filter id="filter21_f_18_79" x="163.487" y="56.2336" width="19.249" height="26.2149" filterUnits="userSpaceOnUse" color-interpolation-filters="sRGB">
<feFlood flood-opacity="0" result="BackgroundImageFix"/>
<feBlend mode="normal" in="SourceGraphic" in2="BackgroundImageFix" result="shape"/>
<feGaussianBlur stdDeviation="2" result="effect1_foregroundBlur_18_79"/>
</filter>
<filter id="filter22_f_18_79" x="253" y="52.5" width="29.8608" height="32.0348" filterUnits="userSpaceOnUse" color-interpolation-filters="sRGB">
<feFlood flood-opacity="0" result="BackgroundImageFix"/>
<feBlend mode="normal" in="SourceGraphic" in2="BackgroundImageFix" result="shape"/>
<feGaussianBlur stdDeviation="3.5" result="effect1_foregroundBlur_18_79"/>
</filter>
<filter id="filter23_f_18_79" x="166.5" y="114" width="120" height="76.5" filterUnits="userSpaceOnUse" color-interpolation-filters="sRGB">
<feFlood flood-opacity="0" result="BackgroundImageFix"/>
<feBlend mode="normal" in="SourceGraphic" in2="BackgroundImageFix" result="shape"/>
<feGaussianBlur stdDeviation="1.5" result="effect1_foregroundBlur_18_79"/>
</filter>
<filter id="filter24_f_18_79" x="216" y="144" width="18" height="18" filterUnits="userSpaceOnUse" color-interpolation-filters="sRGB">
<feFlood flood-opacity="0" result="BackgroundImageFix"/>
<feBlend mode="normal" in="SourceGraphic" in2="BackgroundImageFix" result="shape"/>
<feGaussianBlur stdDeviation="2.5" result="effect1_foregroundBlur_18_79"/>
</filter>
<filter id="filter25_f_18_79" x="163" y="192" width="126" height="10" filterUnits="userSpaceOnUse" color-interpolation-filters="sRGB">
<feFlood flood-opacity="0" result="BackgroundImageFix"/>
<feBlend mode="normal" in="SourceGraphic" in2="BackgroundImageFix" result="shape"/>
<feGaussianBlur stdDeviation="2" result="effect1_foregroundBlur_18_79"/>
</filter>
<filter id="filter26_f_18_79" x="161.5" y="231.18" width="148.495" height="47.1585" filterUnits="userSpaceOnUse" color-interpolation-filters="sRGB">
<feFlood flood-opacity="0" result="BackgroundImageFix"/>
<feBlend mode="normal" in="SourceGraphic" in2="BackgroundImageFix" result="shape"/>
<feGaussianBlur stdDeviation="4" result="effect1_foregroundBlur_18_79"/>
</filter>
<filter id="filter27_f_18_79" x="258.185" y="232.435" width="54.2705" height="31.152" filterUnits="userSpaceOnUse" color-interpolation-filters="sRGB">
<feFlood flood-opacity="0" result="BackgroundImageFix"/>
<feBlend mode="normal" in="SourceGraphic" in2="BackgroundImageFix" result="shape"/>
<feGaussianBlur stdDeviation="3" result="effect1_foregroundBlur_18_79"/>
</filter>
<filter id="filter28_f_18_79" x="217.469" y="254.623" width="23.2271" height="127.269" filterUnits="userSpaceOnUse" color-interpolation-filters="sRGB">
<feFlood flood-opacity="0" result="BackgroundImageFix"/>
<feBlend mode="normal" in="SourceGraphic" in2="BackgroundImageFix" result="shape"/>
<feGaussianBlur stdDeviation="4" result="effect1_foregroundBlur_18_79"/>
</filter>
<filter id="filter29_f_18_79" x="233.136" y="258.878" width="29.9238" height="121.528" filterUnits="userSpaceOnUse" color-interpolation-filters="sRGB">
<feFlood flood-opacity="0" result="BackgroundImageFix"/>
<feBlend mode="normal" in="SourceGraphic" in2="BackgroundImageFix" result="shape"/>
<feGaussianBlur stdDeviation="4" result="effect1_foregroundBlur_18_79"/>
</filter>
<filter id="filter30_f_18_79" x="300.912" y="257.769" width="13.6602" height="16.8701" filterUnits="userSpaceOnUse" color-interpolation-filters="sRGB">
<feFlood flood-opacity="0" result="BackgroundImageFix"/>
<feBlend mode="normal" in="SourceGraphic" in2="BackgroundImageFix" result="shape"/>
<feGaussianBlur stdDeviation="1" result="effect1_foregroundBlur_18_79"/>
</filter>
<filter id="filter31_f_18_79" x="273" y="235.75" width="30.75" height="18.75" filterUnits="userSpaceOnUse" color-interpolation-filters="sRGB">
<feFlood flood-opacity="0" result="BackgroundImageFix"/>
<feBlend mode="normal" in="SourceGraphic" in2="BackgroundImageFix" result="shape"/>
<feGaussianBlur stdDeviation="2" result="effect1_foregroundBlur_18_79"/>
</filter>
<filter id="filter32_f_18_79" x="0.5" y="200" width="440" height="13" filterUnits="userSpaceOnUse" color-interpolation-filters="sRGB">
<feFlood flood-opacity="0" result="BackgroundImageFix"/>
<feBlend mode="normal" in="SourceGraphic" in2="BackgroundImageFix" result="shape"/>
<feGaussianBlur stdDeviation="3" result="effect1_foregroundBlur_18_79"/>
</filter>
<filter id="filter33_f_18_79" x="30.5" y="202.5" width="381" height="42" filterUnits="userSpaceOnUse" color-interpolation-filters="sRGB">
<feFlood flood-opacity="0" result="BackgroundImageFix"/>
<feBlend mode="normal" in="SourceGraphic" in2="BackgroundImageFix" result="shape"/>
<feGaussianBlur stdDeviation="5" result="effect1_foregroundBlur_18_79"/>
</filter>
<filter id="filter34_f_18_79" x="310.244" y="273.479" width="10.0396" height="32.9327" filterUnits="userSpaceOnUse" color-interpolation-filters="sRGB">
<feFlood flood-opacity="0" result="BackgroundImageFix"/>
<feBlend mode="normal" in="SourceGraphic" in2="BackgroundImageFix" result="shape"/>
<feGaussianBlur stdDeviation="1" result="effect1_foregroundBlur_18_79"/>
</filter>
<filter id="filter35_f_18_79" x="42.002" y="236.935" width="353.494" height="141.63" filterUnits="userSpaceOnUse" color-interpolation-filters="sRGB">
<feFlood flood-opacity="0" result="BackgroundImageFix"/>
<feBlend mode="normal" in="SourceGraphic" in2="BackgroundImageFix" result="shape"/>
<feGaussianBlur stdDeviation="2" result="effect1_foregroundBlur_18_79"/>
</filter>
<filter id="filter36_f_18_79" x="161.502" y="258.448" width="123.495" height="119.103" filterUnits="userSpaceOnUse" color-interpolation-filters="sRGB">
<feFlood flood-opacity="0" result="BackgroundImageFix"/>
<feBlend mode="normal" in="SourceGraphic" in2="BackgroundImageFix" result="shape"/>
<feGaussianBlur stdDeviation="2" result="effect1_foregroundBlur_18_79"/>
</filter>
<filter id="filter37_f_18_79" x="7.75" y="80.75" width="65.5" height="33.5" filterUnits="userSpaceOnUse" color-interpolation-filters="sRGB">
<feFlood flood-opacity="0" result="BackgroundImageFix"/>
<feBlend mode="normal" in="SourceGraphic" in2="BackgroundImageFix" result="shape"/>
<feGaussianBlur stdDeviation="1.5" result="effect1_foregroundBlur_18_79"/>
</filter>
<filter id="filter38_f_18_79" x="35.75" y="17.75" width="55.5" height="33.5" filterUnits="userSpaceOnUse" color-interpolation-filters="sRGB">
<feFlood flood-opacity="0" result="BackgroundImageFix"/>
<feBlend mode="normal" in="SourceGraphic" in2="BackgroundImageFix" result="shape"/>
<feGaussianBlur stdDeviation="1.5" result="effect1_foregroundBlur_18_79"/>
</filter>
<filter id="filter39_f_18_79" x="301.75" y="0.75" width="64.5" height="31.5" filterUnits="userSpaceOnUse" color-interpolation-filters="sRGB">
<feFlood flood-opacity="0" result="BackgroundImageFix"/>
<feBlend mode="normal" in="SourceGraphic" in2="BackgroundImageFix" result="shape"/>
<feGaussianBlur stdDeviation="1.5" result="effect1_foregroundBlur_18_79"/>
</filter>
<filter id="filter40_f_18_79" x="343.75" y="59.75" width="56.5" height="33.5" filterUnits="userSpaceOnUse" color-interpolation-filters="sRGB">
<feFlood flood-opacity="0" result="BackgroundImageFix"/>
<feBlend mode="normal" in="SourceGraphic" in2="BackgroundImageFix" result="shape"/>
<feGaussianBlur stdDeviation="1.5" result="effect1_foregroundBlur_18_79"/>
</filter>
<filter id="filter41_f_18_79" x="357.75" y="122.75" width="53.5" height="33.5" filterUnits="userSpaceOnUse" color-interpolation-filters="sRGB">
<feFlood flood-opacity="0" result="BackgroundImageFix"/>
<feBlend mode="normal" in="SourceGraphic" in2="BackgroundImageFix" result="shape"/>
<feGaussianBlur stdDeviation="1.5" result="effect1_foregroundBlur_18_79"/>
</filter>
<filter id="filter42_f_18_79" x="91.25" y="167.5" width="8.5" height="34" filterUnits="userSpaceOnUse" color-interpolation-filters="sRGB">
<feFlood flood-opacity="0" result="BackgroundImageFix"/>
<feBlend mode="normal" in="SourceGraphic" in2="BackgroundImageFix" result="shape"/>
<feGaussianBlur stdDeviation="2" result="effect1_foregroundBlur_18_79"/>
</filter>
<filter id="filter43_f_18_79" x="178.435" y="0.941101" width="96.0254" height="39.243" filterUnits="userSpaceOnUse" color-interpolation-filters="sRGB">
<feFlood flood-opacity="0" result="BackgroundImageFix"/>
<feBlend mode="normal" in="SourceGraphic" in2="BackgroundImageFix" result="shape"/>
<feGaussianBlur stdDeviation="5.5" result="effect1_foregroundBlur_18_79"/>
</filter>
<filter id="filter44_f_18_79" x="189.786" y="13.705" width="66.4575" height="22.6443" filterUnits="userSpaceOnUse" color-interpolation-filters="sRGB">
<feFlood flood-opacity="0" result="BackgroundImageFix"/>
<feBlend mode="normal" in="SourceGraphic" in2="BackgroundImageFix" result="shape"/>
<feGaussianBlur stdDeviation="3.5" result="effect1_foregroundBlur_18_79"/>
</filter>
<filter id="filter45_f_18_79" x="174.623" y="22.3593" width="16.4219" height="37.6697" filterUnits="userSpaceOnUse" color-interpolation-filters="sRGB">
<feFlood flood-opacity="0" result="BackgroundImageFix"/>
<feBlend mode="normal" in="SourceGraphic" in2="BackgroundImageFix" result="shape"/>
<feGaussianBlur stdDeviation="1" result="effect1_foregroundBlur_18_79"/>
</filter>
<filter id="filter46_d_18_79" x="108.391" y="217.36" width="218.206" height="23.824" filterUnits="userSpaceOnUse" color-interpolation-filters="sRGB">
<feFlood flood-opacity="0" result="BackgroundImageFix"/>
<feColorMatrix in="SourceAlpha" type="matrix" values="0 0 0 0 0 0 0 0 0 0 0 0 0 0 0 0 0 0 127 0" result="hardAlpha"/>
<feOffset dx="-9" dy="1"/>
<feGaussianBlur stdDeviation="2"/>
<feComposite in2="hardAlpha" operator="out"/>
<feColorMatrix type="matrix" values="0 0 0 0 0 0 0 0 0 0 0 0 0 0 0 0 0 0 0.25 0"/>
<feBlend mode="normal" in2="BackgroundImageFix" result="effect1_dropShadow_18_79"/>
<feBlend mode="normal" in="SourceGraphic" in2="effect1_dropShadow_18_79" result="shape"/>
</filter>
<filter id="filter47_f_18_79" x="90.25" y="209" width="271" height="33.25" filterUnits="userSpaceOnUse" color-interpolation-filters="sRGB">
<feFlood flood-opacity="0" result="BackgroundImageFix"/>
<feBlend mode="normal" in="SourceGraphic" in2="BackgroundImageFix" result="shape"/>
<feGaussianBlur stdDeviation="3" result="effect1_foregroundBlur_18_79"/>
</filter>
<filter id="filter48_f_18_79" x="206" y="90" width="31" height="8" filterUnits="userSpaceOnUse" color-interpolation-filters="sRGB">
<feFlood flood-opacity="0" result="BackgroundImageFix"/>
<feBlend mode="normal" in="SourceGraphic" in2="BackgroundImageFix" result="shape"/>
<feGaussianBlur stdDeviation="1.5" result="effect1_foregroundBlur_18_79"/>
</filter>
<filter id="filter49_f_18_79" x="166" y="57" width="18.6138" height="23" filterUnits="userSpaceOnUse" color-interpolation-filters="sRGB">
<feFlood flood-opacity="0" result="BackgroundImageFix"/>
<feBlend mode="normal" in="SourceGraphic" in2="BackgroundImageFix" result="shape"/>
<feGaussianBlur stdDeviation="3" result="effect1_foregroundBlur_18_79"/>
</filter>
<filter id="filter50_f_18_79" x="258.983" y="56.2951" width="19.0435" height="22.8623" filterUnits="userSpaceOnUse" color-interpolation-filters="sRGB">
<feFlood flood-opacity="0" result="BackgroundImageFix"/>
<feBlend mode="normal" in="SourceGraphic" in2="BackgroundImageFix" result="shape"/>
<feGaussianBlur stdDeviation="3" result="effect1_foregroundBlur_18_79"/>
</filter>
<filter id="filter51_f_18_79" x="225.151" y="257" width="38.8398" height="14.4873" filterUnits="userSpaceOnUse" color-interpolation-filters="sRGB">
<feFlood flood-opacity="0" result="BackgroundImageFix"/>
<feBlend mode="normal" in="SourceGraphic" in2="BackgroundImageFix" result="shape"/>
<feGaussianBlur stdDeviation="2" result="effect1_foregroundBlur_18_79"/>
</filter>
<filter id="filter52_f_18_79" x="232.949" y="51.4731" width="15.0928" height="16.0228" filterUnits="userSpaceOnUse" color-interpolation-filters="sRGB">
<feFlood flood-opacity="0" result="BackgroundImageFix"/>
<feBlend mode="normal" in="SourceGraphic" in2="BackgroundImageFix" result="shape"/>
<feGaussianBlur stdDeviation="3" result="effect1_foregroundBlur_18_79"/>
</filter>
<filter id="filter53_f_18_79" x="204.025" y="52.2923" width="12.9214" height="14.2114" filterUnits="userSpaceOnUse" color-interpolation-filters="sRGB">
<feFlood flood-opacity="0" result="BackgroundImageFix"/>
<feBlend mode="normal" in="SourceGraphic" in2="BackgroundImageFix" result="shape"/>
<feGaussianBlur stdDeviation="2.5" result="effect1_foregroundBlur_18_79"/>
</filter>
<filter id="filter54_f_18_79" x="180.495" y="18.7501" width="21.7119" height="15.8911" filterUnits="userSpaceOnUse" color-interpolation-filters="sRGB">
<feFlood flood-opacity="0" result="BackgroundImageFix"/>
<feBlend mode="normal" in="SourceGraphic" in2="BackgroundImageFix" result="shape"/>
<feGaussianBlur stdDeviation="2.5" result="effect1_foregroundBlur_18_79"/>
</filter>
</defs>
</svg>
