<svg width="96" height="71" viewBox="0 0 96 71" fill="none" xmlns="http://www.w3.org/2000/svg">
<path d="M93.1699 11.737C92.0861 7.44889 88.8799 4.06606 84.8007 2.90669C77.4249 0.826173 47.8317 0.826172 47.8317 0.826172C47.8317 0.826172 18.2536 0.826173 10.8628 2.90669C6.79862 4.05018 3.59244 7.43301 2.49361 11.737C0.521729 19.5191 0.521729 35.7662 0.521729 35.7662C0.521729 35.7662 0.521729 52.0133 2.49361 59.7954C3.57739 64.0835 6.78357 67.4663 10.8628 68.6257C18.2536 70.7062 47.8317 70.7062 47.8317 70.7062C47.8317 70.7062 77.4249 70.7062 84.8007 68.6257C88.8648 67.4822 92.071 64.0994 93.1699 59.7954C95.1417 52.0133 95.1417 35.7662 95.1417 35.7662C95.1417 35.7662 95.1417 19.5191 93.1699 11.737Z" fill="#FF3000"/>
<path d="M38.3788 50.7427L62.9595 35.7662L38.3788 20.7896V50.7427Z" fill="white"/>
</svg>
