<svg width="98" height="78" viewBox="0 0 98 78" fill="none" xmlns="http://www.w3.org/2000/svg">
<path d="M7.22468 77.1671H22.6037V37.8606L0.633667 20.5195V70.2307C0.633667 74.0689 3.58864 77.1671 7.22468 77.1671Z" fill="#4285F4"/>
<path d="M75.3318 77.1671H90.7108C94.3578 77.1671 97.3018 74.0573 97.3018 70.2307V20.5195L75.3318 37.8606" fill="#34A853"/>
<path d="M75.3318 7.80329V37.8612L97.3018 20.5201V11.2715C97.3018 2.69344 87.9975 -2.19675 81.4834 2.94778" fill="#FBBC04"/>
<path d="M22.6037 37.8607V7.80273L48.9677 28.6121L75.3318 7.80273V37.8607L48.9677 58.67" fill="#EA4335"/>
<path d="M0.633667 11.2715V20.5201L22.6037 37.8612V7.80329L16.4521 2.94778C9.92699 -2.19675 0.633667 2.69344 0.633667 11.2715Z" fill="#C5221F"/>
</svg>
