<svg width="92" height="97" viewBox="0 0 92 97" fill="none" xmlns="http://www.w3.org/2000/svg">
<path d="M30.8882 48.4242C30.8882 39.6432 37.6543 32.5229 46.003 32.5229C54.3518 32.5229 61.1215 39.6432 61.1215 48.4242C61.1215 57.2052 54.3518 64.3254 46.003 64.3254C37.6543 64.3254 30.8882 57.2052 30.8882 48.4242ZM22.7155 48.4242C22.7155 61.9519 33.1413 72.9176 46.003 72.9176C58.8648 72.9176 69.2906 61.9519 69.2906 48.4242C69.2906 34.8964 58.8648 23.9308 46.003 23.9308C33.1413 23.9308 22.7155 34.8964 22.7155 48.4242ZM64.7703 22.9596C64.7699 24.0917 65.0887 25.1985 65.6863 26.1401C66.2839 27.0816 67.1336 27.8156 68.1279 28.2493C69.1222 28.6829 70.2164 28.7968 71.2721 28.5763C72.3279 28.3559 73.2978 27.8112 74.0592 27.011C74.8206 26.2108 75.3393 25.1911 75.5498 24.0808C75.7602 22.9706 75.6528 21.8196 75.2413 20.7735C74.8298 19.7274 74.1326 18.8332 73.2379 18.2038C72.3432 17.5745 71.2911 17.2383 70.2147 17.2379H70.2125C68.7698 17.2386 67.3862 17.8416 66.3658 18.9144C65.3454 19.9872 64.7716 21.4421 64.7703 22.9596ZM27.6809 87.2508C23.2593 87.0391 20.856 86.2644 19.2589 85.61C17.1415 84.743 15.6308 83.7104 14.0424 82.042C12.454 80.3736 11.4708 78.7862 10.6501 76.5592C10.0275 74.8801 9.29097 72.3516 9.08997 67.7011C8.8701 62.6731 8.8262 61.1627 8.8262 48.4245C8.8262 35.6863 8.87373 34.1802 9.08997 29.148C9.29133 24.4974 10.0333 21.9739 10.6501 20.2899C11.4744 18.0629 12.4562 16.4739 14.0424 14.8033C15.6286 13.1326 17.1379 12.0985 19.2589 11.2353C20.8553 10.5805 23.2593 9.80583 27.6809 9.59442C32.4614 9.36317 33.8974 9.317 46.003 9.317C58.1087 9.317 59.5462 9.36699 64.3306 9.59442C68.7522 9.80621 71.1515 10.5866 72.7526 11.2353C74.87 12.0985 76.3807 13.1349 77.9691 14.8033C79.5575 16.4716 80.5371 18.0629 81.3615 20.2899C81.984 21.969 82.7206 24.4974 82.9216 29.148C83.1414 34.1802 83.1853 35.6863 83.1853 48.4245C83.1853 61.1627 83.1414 62.6689 82.9216 67.7011C82.7202 72.3516 81.9801 74.8794 81.3615 76.5592C80.5371 78.7862 79.5554 80.3752 77.9691 82.042C76.3829 83.7088 74.87 84.743 72.7526 85.61C71.1562 86.2648 68.7522 87.0394 64.3306 87.2508C59.5502 87.4821 58.1141 87.5283 46.003 87.5283C33.8919 87.5283 32.4599 87.4821 27.6809 87.2508ZM27.3054 1.01299C22.4774 1.24424 19.1784 2.04942 16.2973 3.22856C13.3135 4.44625 10.7876 6.07988 8.26348 8.73048C5.73938 11.3811 4.19016 14.042 3.03242 17.1803C1.91133 20.2124 1.14579 23.6804 0.925926 28.7584C0.702432 33.8444 0.651276 35.4704 0.651276 48.4242C0.651276 61.378 0.702432 63.004 0.925926 68.0899C1.14579 73.1683 1.91133 76.6359 3.03242 79.6681C4.19016 82.8044 5.73974 85.4684 8.26348 88.1178C10.7872 90.7673 13.3135 92.3986 16.2973 93.6198C19.1838 94.7989 22.4774 95.6041 27.3054 95.8353C32.1435 96.0666 33.687 96.1242 46.003 96.1242C58.3191 96.1242 59.8651 96.0704 64.7007 95.8353C69.529 95.6041 72.8259 94.7989 75.7088 93.6198C78.6908 92.3986 81.2185 90.7684 83.7426 88.1178C86.2667 85.4672 87.8127 82.8044 88.9737 79.6681C90.0948 76.6359 90.8639 73.1679 91.0802 68.0899C91.3 63.0001 91.3512 61.378 91.3512 48.4242C91.3512 35.4704 91.3 33.8444 91.0802 28.7584C90.8603 23.6801 90.0948 20.2105 88.9737 17.1803C87.8127 14.0439 86.2627 11.3853 83.7426 8.73048C81.2225 6.07568 78.6908 4.44625 75.7124 3.22856C72.8259 2.04942 69.5286 1.24043 64.7043 1.01299C59.8687 0.781743 58.3228 0.724121 46.0067 0.724121C33.6906 0.724121 32.1435 0.777927 27.3054 1.01299Z" fill="url(#paint0_radial_48_580)"/>
<path d="M30.8882 48.4242C30.8882 39.6432 37.6543 32.5229 46.003 32.5229C54.3518 32.5229 61.1215 39.6432 61.1215 48.4242C61.1215 57.2052 54.3518 64.3254 46.003 64.3254C37.6543 64.3254 30.8882 57.2052 30.8882 48.4242ZM22.7155 48.4242C22.7155 61.9519 33.1413 72.9176 46.003 72.9176C58.8648 72.9176 69.2906 61.9519 69.2906 48.4242C69.2906 34.8964 58.8648 23.9308 46.003 23.9308C33.1413 23.9308 22.7155 34.8964 22.7155 48.4242ZM64.7703 22.9596C64.7699 24.0917 65.0887 25.1985 65.6863 26.1401C66.2839 27.0816 67.1336 27.8156 68.1279 28.2493C69.1222 28.6829 70.2164 28.7968 71.2721 28.5763C72.3279 28.3559 73.2978 27.8112 74.0592 27.011C74.8206 26.2108 75.3393 25.1911 75.5498 24.0808C75.7602 22.9706 75.6528 21.8196 75.2413 20.7735C74.8298 19.7274 74.1326 18.8332 73.2379 18.2038C72.3432 17.5745 71.2911 17.2383 70.2147 17.2379H70.2125C68.7698 17.2386 67.3862 17.8416 66.3658 18.9144C65.3454 19.9872 64.7716 21.4421 64.7703 22.9596ZM27.6809 87.2508C23.2593 87.0391 20.856 86.2644 19.2589 85.61C17.1415 84.743 15.6308 83.7104 14.0424 82.042C12.454 80.3736 11.4708 78.7862 10.6501 76.5592C10.0275 74.8801 9.29097 72.3516 9.08997 67.7011C8.8701 62.6731 8.8262 61.1627 8.8262 48.4245C8.8262 35.6863 8.87373 34.1802 9.08997 29.148C9.29133 24.4974 10.0333 21.9739 10.6501 20.2899C11.4744 18.0629 12.4562 16.4739 14.0424 14.8033C15.6286 13.1326 17.1379 12.0985 19.2589 11.2353C20.8553 10.5805 23.2593 9.80583 27.6809 9.59442C32.4614 9.36317 33.8974 9.317 46.003 9.317C58.1087 9.317 59.5462 9.36699 64.3306 9.59442C68.7522 9.80621 71.1515 10.5866 72.7526 11.2353C74.87 12.0985 76.3807 13.1349 77.9691 14.8033C79.5575 16.4716 80.5371 18.0629 81.3615 20.2899C81.984 21.969 82.7206 24.4974 82.9216 29.148C83.1414 34.1802 83.1853 35.6863 83.1853 48.4245C83.1853 61.1627 83.1414 62.6689 82.9216 67.7011C82.7202 72.3516 81.9801 74.8794 81.3615 76.5592C80.5371 78.7862 79.5554 80.3752 77.9691 82.042C76.3829 83.7088 74.87 84.743 72.7526 85.61C71.1562 86.2648 68.7522 87.0394 64.3306 87.2508C59.5502 87.4821 58.1141 87.5283 46.003 87.5283C33.8919 87.5283 32.4599 87.4821 27.6809 87.2508ZM27.3054 1.01299C22.4774 1.24424 19.1784 2.04942 16.2973 3.22856C13.3135 4.44625 10.7876 6.07988 8.26348 8.73048C5.73938 11.3811 4.19016 14.042 3.03242 17.1803C1.91133 20.2124 1.14579 23.6804 0.925926 28.7584C0.702432 33.8444 0.651276 35.4704 0.651276 48.4242C0.651276 61.378 0.702432 63.004 0.925926 68.0899C1.14579 73.1683 1.91133 76.6359 3.03242 79.6681C4.19016 82.8044 5.73974 85.4684 8.26348 88.1178C10.7872 90.7673 13.3135 92.3986 16.2973 93.6198C19.1838 94.7989 22.4774 95.6041 27.3054 95.8353C32.1435 96.0666 33.687 96.1242 46.003 96.1242C58.3191 96.1242 59.8651 96.0704 64.7007 95.8353C69.529 95.6041 72.8259 94.7989 75.7088 93.6198C78.6908 92.3986 81.2185 90.7684 83.7426 88.1178C86.2667 85.4672 87.8127 82.8044 88.9737 79.6681C90.0948 76.6359 90.8639 73.1679 91.0802 68.0899C91.3 63.0001 91.3512 61.378 91.3512 48.4242C91.3512 35.4704 91.3 33.8444 91.0802 28.7584C90.8603 23.6801 90.0948 20.2105 88.9737 17.1803C87.8127 14.0439 86.2627 11.3853 83.7426 8.73048C81.2225 6.07568 78.6908 4.44625 75.7124 3.22856C72.8259 2.04942 69.5286 1.24043 64.7043 1.01299C59.8687 0.781743 58.3228 0.724121 46.0067 0.724121C33.6906 0.724121 32.1435 0.777927 27.3054 1.01299Z" fill="url(#paint1_radial_48_580)"/>
<defs>
<radialGradient id="paint0_radial_48_580" cx="0" cy="0" r="1" gradientUnits="userSpaceOnUse" gradientTransform="translate(12.7018 96.5749) scale(118.406 124.537)">
<stop offset="0.09" stop-color="#FA8F21"/>
<stop offset="0.78" stop-color="#D82D7E"/>
</radialGradient>
<radialGradient id="paint1_radial_48_580" cx="0" cy="0" r="1" gradientUnits="userSpaceOnUse" gradientTransform="translate(55.659 100.849) scale(93.3202 98.1522)">
<stop offset="0.64" stop-color="#8C3AAA" stop-opacity="0"/>
<stop offset="1" stop-color="#8C3AAA"/>
</radialGradient>
</defs>
</svg>
