<svg width="91" height="96" viewBox="0 0 91 96" fill="none" xmlns="http://www.w3.org/2000/svg">
<path d="M0.0726318 6.97997C0.0726318 3.20567 3.07506 0.14209 6.77619 0.14209H84.0726C87.7752 0.14209 90.7762 3.20567 90.7762 6.97997V88.7626C90.7762 92.5381 87.7752 95.5994 84.0726 95.5994H6.77619C3.07542 95.5994 0.0726318 92.5384 0.0726318 88.7638V6.97885V6.97997Z" fill="#006699"/>
<path d="M27.6358 80.0276V37.0524H14.0628V80.0276H27.6372H27.6358ZM20.8521 31.1859C25.5843 31.1859 28.5304 27.8859 28.5304 23.7618C28.4418 19.5438 25.5843 16.3359 20.9421 16.3359C16.2967 16.3359 13.2628 19.5438 13.2628 23.7615C13.2628 27.8855 16.2078 31.1855 20.7632 31.1855H20.8511L20.8521 31.1859ZM35.1486 80.0276H48.7204V56.0309C48.7204 54.7482 48.809 53.4621 49.1676 52.546C50.1483 49.9787 52.3815 47.3212 56.1319 47.3212C61.0419 47.3212 63.0073 51.2618 63.0073 57.0395V80.0276H76.5788V55.3869C76.5788 42.1874 69.8838 36.0449 60.9541 36.0449C53.6329 36.0449 50.4176 40.3513 48.6311 43.2844H48.7215V37.0539H35.1493C35.3264 41.0855 35.1482 80.0291 35.1482 80.0291L35.1486 80.0276Z" fill="white"/>
</svg>
